%TF.GenerationSoftware,KiCad,Pcbnew,9.0.2*%
%TF.CreationDate,2025-06-19T19:06:17-05:00*%
%TF.ProjectId,balance_bot,62616c61-6e63-4655-9f62-6f742e6b6963,rev?*%
%TF.SameCoordinates,Original*%
%TF.FileFunction,Copper,L1,Top*%
%TF.FilePolarity,Positive*%
%FSLAX46Y46*%
G04 Gerber Fmt 4.6, Leading zero omitted, Abs format (unit mm)*
G04 Created by KiCad (PCBNEW 9.0.2) date 2025-06-19 19:06:17*
%MOMM*%
%LPD*%
G01*
G04 APERTURE LIST*
G04 Aperture macros list*
%AMRoundRect*
0 Rectangle with rounded corners*
0 $1 Rounding radius*
0 $2 $3 $4 $5 $6 $7 $8 $9 X,Y pos of 4 corners*
0 Add a 4 corners polygon primitive as box body*
4,1,4,$2,$3,$4,$5,$6,$7,$8,$9,$2,$3,0*
0 Add four circle primitives for the rounded corners*
1,1,$1+$1,$2,$3*
1,1,$1+$1,$4,$5*
1,1,$1+$1,$6,$7*
1,1,$1+$1,$8,$9*
0 Add four rect primitives between the rounded corners*
20,1,$1+$1,$2,$3,$4,$5,0*
20,1,$1+$1,$4,$5,$6,$7,0*
20,1,$1+$1,$6,$7,$8,$9,0*
20,1,$1+$1,$8,$9,$2,$3,0*%
G04 Aperture macros list end*
%TA.AperFunction,SMDPad,CuDef*%
%ADD10RoundRect,0.250000X0.262500X0.450000X-0.262500X0.450000X-0.262500X-0.450000X0.262500X-0.450000X0*%
%TD*%
%TA.AperFunction,SMDPad,CuDef*%
%ADD11RoundRect,0.243750X0.243750X0.456250X-0.243750X0.456250X-0.243750X-0.456250X0.243750X-0.456250X0*%
%TD*%
%TA.AperFunction,SMDPad,CuDef*%
%ADD12R,1.470000X0.895000*%
%TD*%
%TA.AperFunction,SMDPad,CuDef*%
%ADD13R,1.050000X0.450000*%
%TD*%
%TA.AperFunction,SMDPad,CuDef*%
%ADD14RoundRect,0.250000X-0.250000X-0.475000X0.250000X-0.475000X0.250000X0.475000X-0.250000X0.475000X0*%
%TD*%
%TA.AperFunction,ComponentPad*%
%ADD15R,1.700000X1.700000*%
%TD*%
%TA.AperFunction,ComponentPad*%
%ADD16C,1.700000*%
%TD*%
%TA.AperFunction,SMDPad,CuDef*%
%ADD17RoundRect,0.250000X0.450000X-0.262500X0.450000X0.262500X-0.450000X0.262500X-0.450000X-0.262500X0*%
%TD*%
%TA.AperFunction,SMDPad,CuDef*%
%ADD18RoundRect,0.250000X0.475000X-0.250000X0.475000X0.250000X-0.475000X0.250000X-0.475000X-0.250000X0*%
%TD*%
%TA.AperFunction,SMDPad,CuDef*%
%ADD19RoundRect,0.250000X-0.475000X0.250000X-0.475000X-0.250000X0.475000X-0.250000X0.475000X0.250000X0*%
%TD*%
%TA.AperFunction,SMDPad,CuDef*%
%ADD20RoundRect,0.250000X0.250000X0.475000X-0.250000X0.475000X-0.250000X-0.475000X0.250000X-0.475000X0*%
%TD*%
%TA.AperFunction,ComponentPad*%
%ADD21C,1.500000*%
%TD*%
%TA.AperFunction,SMDPad,CuDef*%
%ADD22RoundRect,0.162500X-0.617500X-0.162500X0.617500X-0.162500X0.617500X0.162500X-0.617500X0.162500X0*%
%TD*%
%TA.AperFunction,ComponentPad*%
%ADD23R,1.800000X1.800000*%
%TD*%
%TA.AperFunction,ComponentPad*%
%ADD24C,1.800000*%
%TD*%
%TA.AperFunction,SMDPad,CuDef*%
%ADD25RoundRect,0.250000X-0.262500X-0.450000X0.262500X-0.450000X0.262500X0.450000X-0.262500X0.450000X0*%
%TD*%
%TA.AperFunction,SMDPad,CuDef*%
%ADD26RoundRect,0.150000X-0.587500X-0.150000X0.587500X-0.150000X0.587500X0.150000X-0.587500X0.150000X0*%
%TD*%
%TA.AperFunction,SMDPad,CuDef*%
%ADD27RoundRect,0.243750X-0.243750X-0.456250X0.243750X-0.456250X0.243750X0.456250X-0.243750X0.456250X0*%
%TD*%
%TA.AperFunction,SMDPad,CuDef*%
%ADD28RoundRect,0.075000X-0.075000X0.700000X-0.075000X-0.700000X0.075000X-0.700000X0.075000X0.700000X0*%
%TD*%
%TA.AperFunction,SMDPad,CuDef*%
%ADD29RoundRect,0.075000X-0.700000X0.075000X-0.700000X-0.075000X0.700000X-0.075000X0.700000X0.075000X0*%
%TD*%
%TA.AperFunction,ViaPad*%
%ADD30C,0.700000*%
%TD*%
%TA.AperFunction,Conductor*%
%ADD31C,0.300000*%
%TD*%
%TA.AperFunction,Conductor*%
%ADD32C,0.500000*%
%TD*%
G04 APERTURE END LIST*
D10*
%TO.P,R7,1*%
%TO.N,GND*%
X163576000Y-109601000D03*
%TO.P,R7,2*%
%TO.N,Net-(D2-K)*%
X161751000Y-109601000D03*
%TD*%
D11*
%TO.P,D2,1,K*%
%TO.N,Net-(D2-K)*%
X159207200Y-109575600D03*
%TO.P,D2,2,A*%
%TO.N,Net-(D2-A)*%
X157332200Y-109575600D03*
%TD*%
D12*
%TO.P,U4,17,GND*%
%TO.N,GND*%
X132400000Y-100897500D03*
X132400000Y-100002500D03*
X132400000Y-99107500D03*
X132400000Y-98212500D03*
X130930000Y-100897500D03*
X130930000Y-100002500D03*
X130930000Y-99107500D03*
X130930000Y-98212500D03*
D13*
%TO.P,U4,16,AIN1*%
%TO.N,/ML_CHA*%
X134440000Y-97280000D03*
%TO.P,U4,15,AIN2*%
%TO.N,/ML_CHB*%
X134440000Y-97930000D03*
%TO.P,U4,14,VINT*%
%TO.N,Net-(U4-VINT)*%
X134440000Y-98580000D03*
%TO.P,U4,13,GND*%
%TO.N,GND*%
X134440000Y-99230000D03*
%TO.P,U4,12,VM*%
%TO.N,+5V*%
X134440000Y-99880000D03*
%TO.P,U4,11,VCP*%
%TO.N,Net-(U4-VCP)*%
X134440000Y-100530000D03*
%TO.P,U4,10,BIN2*%
%TO.N,/MR_CHA*%
X134440000Y-101180000D03*
%TO.P,U4,9,BIN1*%
%TO.N,/MR_CHB*%
X134440000Y-101830000D03*
%TO.P,U4,8,~{FAULT}*%
%TO.N,unconnected-(U4-~{FAULT}-Pad8)*%
X128890000Y-101830000D03*
%TO.P,U4,7,BOUT1*%
%TO.N,Net-(J5-Pin_1)*%
X128890000Y-101180000D03*
%TO.P,U4,6,BISEN*%
%TO.N,Net-(U4-BISEN)*%
X128890000Y-100530000D03*
%TO.P,U4,5,BOUT2*%
%TO.N,Net-(J5-Pin_2)*%
X128890000Y-99880000D03*
%TO.P,U4,4,AOUT2*%
%TO.N,Net-(J6-Pin_2)*%
X128890000Y-99230000D03*
%TO.P,U4,3,AISEN*%
%TO.N,Net-(U4-AISEN)*%
X128890000Y-98580000D03*
%TO.P,U4,2,AOUT1*%
%TO.N,Net-(J6-Pin_1)*%
X128890000Y-97930000D03*
%TO.P,U4,1,~{SLEEP}*%
%TO.N,/M_NSLEEP*%
X128890000Y-97280000D03*
%TD*%
D14*
%TO.P,C2,1*%
%TO.N,Net-(U1-VCAP1)*%
X140790000Y-107500000D03*
%TO.P,C2,2*%
%TO.N,GND*%
X142690000Y-107500000D03*
%TD*%
D15*
%TO.P,J5,1,Pin_1*%
%TO.N,Net-(J5-Pin_1)*%
X134894000Y-116561000D03*
D16*
%TO.P,J5,2,Pin_2*%
%TO.N,Net-(J5-Pin_2)*%
X137434000Y-116561000D03*
%TD*%
D15*
%TO.P,J6,1,Pin_1*%
%TO.N,Net-(J6-Pin_1)*%
X126394000Y-116561000D03*
D16*
%TO.P,J6,2,Pin_2*%
%TO.N,Net-(J6-Pin_2)*%
X128934000Y-116561000D03*
%TD*%
D17*
%TO.P,R5,1*%
%TO.N,Net-(U4-BISEN)*%
X119380000Y-100330000D03*
%TO.P,R5,2*%
%TO.N,GND*%
X119380000Y-98505000D03*
%TD*%
%TO.P,R1,1*%
%TO.N,Net-(U4-AISEN)*%
X121920000Y-100330000D03*
%TO.P,R1,2*%
%TO.N,GND*%
X121920000Y-98505000D03*
%TD*%
D18*
%TO.P,C6,2*%
%TO.N,GND*%
X139500000Y-102500000D03*
%TO.P,C6,1*%
%TO.N,+3.3V*%
X139500000Y-104400000D03*
%TD*%
D15*
%TO.P,J1,1,Pin_1*%
%TO.N,/ENCODER_B*%
X132842000Y-86500000D03*
D16*
%TO.P,J1,2,Pin_2*%
%TO.N,+3.3V*%
X132842000Y-89040000D03*
%TO.P,J1,3,Pin_3*%
%TO.N,GND*%
X132842000Y-91580000D03*
%TD*%
D18*
%TO.P,C15,2*%
%TO.N,Net-(U4-VCP)*%
X134112000Y-103698000D03*
%TO.P,C15,1*%
%TO.N,+5V*%
X134112000Y-105598000D03*
%TD*%
D19*
%TO.P,C14,2*%
%TO.N,GND*%
X129286000Y-105532000D03*
%TO.P,C14,1*%
%TO.N,Net-(U4-VINT)*%
X129286000Y-103632000D03*
%TD*%
D16*
%TO.P,J3,5,Pin_5*%
%TO.N,GND*%
X157226000Y-116586000D03*
%TO.P,J3,4,Pin_4*%
%TO.N,/SWCLK*%
X154686000Y-116586000D03*
%TO.P,J3,3,Pin_3*%
%TO.N,/NRST*%
X152146000Y-116586000D03*
%TO.P,J3,2,Pin_2*%
%TO.N,/SWDIO*%
X149606000Y-116586000D03*
D15*
%TO.P,J3,1,Pin_1*%
%TO.N,+3.3V*%
X147066000Y-116586000D03*
%TD*%
D20*
%TO.P,C5,2*%
%TO.N,GND*%
X151363600Y-109397800D03*
%TO.P,C5,1*%
%TO.N,+3.3V*%
X153263600Y-109397800D03*
%TD*%
D16*
%TO.P,U2,4,EN*%
%TO.N,/VIN*%
X106460000Y-95000000D03*
%TO.P,U2,3,VIN*%
X109000000Y-95000000D03*
%TO.P,U2,2,5V*%
%TO.N,+5V*%
X111540000Y-95000000D03*
D15*
%TO.P,U2,1,GND*%
%TO.N,GND*%
X114080000Y-95000000D03*
%TD*%
%TO.P,U5,1,VIN*%
%TO.N,+5V*%
X168340000Y-100780000D03*
D16*
%TO.P,U5,2,3VO*%
%TO.N,unconnected-(U5-3VO-Pad2)*%
X170880000Y-100780000D03*
%TO.P,U5,3,GND*%
%TO.N,GND*%
X173420000Y-100780000D03*
%TO.P,U5,4,SDA*%
%TO.N,/I2C1_SDA*%
X175960000Y-100780000D03*
%TO.P,U5,5,SCL*%
%TO.N,/I2C1_SCL*%
X178500000Y-100780000D03*
%TO.P,U5,6,RST*%
%TO.N,unconnected-(U5-RST-Pad6)*%
X181040000Y-100780000D03*
%TO.P,U5,7,INT*%
%TO.N,unconnected-(U5-INT-Pad7)*%
X178500000Y-83000000D03*
%TO.P,U5,8,ADDR*%
%TO.N,unconnected-(U5-ADDR-Pad8)*%
X175960000Y-83000000D03*
%TO.P,U5,9,PS1*%
%TO.N,unconnected-(U5-PS1-Pad9)*%
X173420000Y-83000000D03*
%TO.P,U5,10,PS0*%
%TO.N,unconnected-(U5-PS0-Pad10)*%
X170880000Y-83000000D03*
%TD*%
D18*
%TO.P,C7,1*%
%TO.N,+3.3V*%
X139446000Y-97216000D03*
%TO.P,C7,2*%
%TO.N,GND*%
X139446000Y-95316000D03*
%TD*%
D21*
%TO.P,Y1,1,1*%
%TO.N,/HSE_IN*%
X151000000Y-85340000D03*
%TO.P,Y1,2,2*%
%TO.N,/HSE_OUT*%
X146120000Y-85340000D03*
%TD*%
D22*
%TO.P,U6,1,VIN*%
%TO.N,+5V*%
X117696000Y-88138000D03*
%TO.P,U6,2,GND*%
%TO.N,GND*%
X117696000Y-89088000D03*
%TO.P,U6,3,EN*%
%TO.N,+5V*%
X117696000Y-90038000D03*
%TO.P,U6,4,NC*%
%TO.N,unconnected-(U6-NC-Pad4)*%
X120396000Y-90038000D03*
%TO.P,U6,5,VOUT*%
%TO.N,+3.3V*%
X120396000Y-88138000D03*
%TD*%
D23*
%TO.P,SW1,1,1*%
%TO.N,GND*%
X175390800Y-107188000D03*
D24*
%TO.P,SW1,2,2*%
%TO.N,/NRST*%
X177890800Y-107188000D03*
%TO.P,SW1,3*%
%TO.N,N/C*%
X180390800Y-107188000D03*
%TO.P,SW1,4*%
X175390800Y-113188000D03*
%TO.P,SW1,5*%
X177890800Y-113188000D03*
%TO.P,SW1,6*%
X180390800Y-113188000D03*
%TD*%
D10*
%TO.P,R6,1*%
%TO.N,Net-(D1-K)*%
X119483500Y-83002000D03*
%TO.P,R6,2*%
%TO.N,GND*%
X117658500Y-83002000D03*
%TD*%
D25*
%TO.P,R4,1*%
%TO.N,/BOOT*%
X156675000Y-102500000D03*
%TO.P,R4,2*%
%TO.N,GND*%
X158500000Y-102500000D03*
%TD*%
%TO.P,R3,1*%
%TO.N,+3.3V*%
X163757600Y-104089200D03*
%TO.P,R3,2*%
%TO.N,/I2C1_SDA*%
X165582600Y-104089200D03*
%TD*%
%TO.P,R2,1*%
%TO.N,+3.3V*%
X163781100Y-106756200D03*
%TO.P,R2,2*%
%TO.N,/I2C1_SCL*%
X165606100Y-106756200D03*
%TD*%
D26*
%TO.P,Q1,1,D*%
%TO.N,Net-(J4-Pin_1)*%
X108062500Y-87550000D03*
%TO.P,Q1,2,G*%
%TO.N,GND*%
X108062500Y-89450000D03*
%TO.P,Q1,3,S*%
%TO.N,/VIN*%
X109937500Y-88500000D03*
%TD*%
D15*
%TO.P,J4,1,Pin_1*%
%TO.N,Net-(J4-Pin_1)*%
X103000000Y-87175000D03*
D16*
%TO.P,J4,2,Pin_2*%
%TO.N,GND*%
X103000000Y-89715000D03*
%TD*%
D15*
%TO.P,J2,1,Pin_1*%
%TO.N,/ENCODER_A*%
X136500000Y-86500000D03*
D16*
%TO.P,J2,2,Pin_2*%
%TO.N,+3.3V*%
X136500000Y-89040000D03*
%TO.P,J2,3,Pin_3*%
%TO.N,GND*%
X136500000Y-91580000D03*
%TD*%
D27*
%TO.P,D1,1,K*%
%TO.N,Net-(D1-K)*%
X121823000Y-83058000D03*
%TO.P,D1,2,A*%
%TO.N,+3.3V*%
X123698000Y-83058000D03*
%TD*%
D14*
%TO.P,C13,1*%
%TO.N,+3.3V*%
X123322000Y-87376000D03*
%TO.P,C13,2*%
%TO.N,GND*%
X125222000Y-87376000D03*
%TD*%
%TO.P,C12,1*%
%TO.N,+3.3V*%
X123322000Y-90876000D03*
%TO.P,C12,2*%
%TO.N,GND*%
X125222000Y-90876000D03*
%TD*%
D20*
%TO.P,C11,1*%
%TO.N,+5V*%
X115062000Y-87376000D03*
%TO.P,C11,2*%
%TO.N,GND*%
X113162000Y-87376000D03*
%TD*%
%TO.P,C10,1*%
%TO.N,+5V*%
X115012000Y-90876000D03*
%TO.P,C10,2*%
%TO.N,GND*%
X113112000Y-90876000D03*
%TD*%
%TO.P,C9,1*%
%TO.N,/HSE_OUT*%
X147500000Y-89840000D03*
%TO.P,C9,2*%
%TO.N,GND*%
X145600000Y-89840000D03*
%TD*%
%TO.P,C8,1*%
%TO.N,/HSE_IN*%
X151500000Y-89840000D03*
%TO.P,C8,2*%
%TO.N,GND*%
X149600000Y-89840000D03*
%TD*%
D19*
%TO.P,C4,1*%
%TO.N,+3.3V*%
X159500000Y-95440000D03*
%TO.P,C4,2*%
%TO.N,GND*%
X159500000Y-97340000D03*
%TD*%
D14*
%TO.P,C3,1*%
%TO.N,+3.3V*%
X154290000Y-92840000D03*
%TO.P,C3,2*%
%TO.N,GND*%
X156190000Y-92840000D03*
%TD*%
D18*
%TO.P,C1,1*%
%TO.N,/NRST*%
X170408600Y-113116400D03*
%TO.P,C1,2*%
%TO.N,GND*%
X170408600Y-111216400D03*
%TD*%
D28*
%TO.P,U1,1,VBAT*%
%TO.N,+3.3V*%
X151990000Y-94165000D03*
%TO.P,U1,2,PC13*%
%TO.N,unconnected-(U1-PC13-Pad2)*%
X151490000Y-94165000D03*
%TO.P,U1,3,PC14*%
%TO.N,unconnected-(U1-PC14-Pad3)*%
X150990000Y-94165000D03*
%TO.P,U1,4,PC15*%
%TO.N,unconnected-(U1-PC15-Pad4)*%
X150490000Y-94165000D03*
%TO.P,U1,5,PH0*%
%TO.N,/HSE_IN*%
X149990000Y-94165000D03*
%TO.P,U1,6,PH1*%
%TO.N,/HSE_OUT*%
X149490000Y-94165000D03*
%TO.P,U1,7,NRST*%
%TO.N,/NRST*%
X148990000Y-94165000D03*
%TO.P,U1,8,PC0*%
%TO.N,unconnected-(U1-PC0-Pad8)*%
X148490000Y-94165000D03*
%TO.P,U1,9,PC1*%
%TO.N,unconnected-(U1-PC1-Pad9)*%
X147990000Y-94165000D03*
%TO.P,U1,10,PC2*%
%TO.N,unconnected-(U1-PC2-Pad10)*%
X147490000Y-94165000D03*
%TO.P,U1,11,PC3*%
%TO.N,unconnected-(U1-PC3-Pad11)*%
X146990000Y-94165000D03*
%TO.P,U1,12,VSSA*%
%TO.N,GND*%
X146490000Y-94165000D03*
%TO.P,U1,13,VREF+*%
%TO.N,+3.3V*%
X145990000Y-94165000D03*
%TO.P,U1,14,PA0*%
%TO.N,/ENCODER_A*%
X145490000Y-94165000D03*
%TO.P,U1,15,PA1*%
%TO.N,/ENCODER_B*%
X144990000Y-94165000D03*
%TO.P,U1,16,PA2*%
%TO.N,unconnected-(U1-PA2-Pad16)*%
X144490000Y-94165000D03*
D29*
%TO.P,U1,17,PA3*%
%TO.N,/M_NSLEEP*%
X142565000Y-96090000D03*
%TO.P,U1,18,VSS*%
%TO.N,GND*%
X142565000Y-96590000D03*
%TO.P,U1,19,VDD*%
%TO.N,+3.3V*%
X142565000Y-97090000D03*
%TO.P,U1,20,PA4*%
%TO.N,unconnected-(U1-PA4-Pad20)*%
X142565000Y-97590000D03*
%TO.P,U1,21,PA5*%
%TO.N,unconnected-(U1-PA5-Pad21)*%
X142565000Y-98090000D03*
%TO.P,U1,22,PA6*%
%TO.N,/ML_CHA*%
X142565000Y-98590000D03*
%TO.P,U1,23,PA7*%
%TO.N,/ML_CHB*%
X142565000Y-99090000D03*
%TO.P,U1,24,PC4*%
%TO.N,unconnected-(U1-PC4-Pad24)*%
X142565000Y-99590000D03*
%TO.P,U1,25,PC5*%
%TO.N,unconnected-(U1-PC5-Pad25)*%
X142565000Y-100090000D03*
%TO.P,U1,26,PB0*%
%TO.N,/MR_CHA*%
X142565000Y-100590000D03*
%TO.P,U1,27,PB1*%
%TO.N,/MR_CHB*%
X142565000Y-101090000D03*
%TO.P,U1,28,PB2*%
%TO.N,unconnected-(U1-PB2-Pad28)*%
X142565000Y-101590000D03*
%TO.P,U1,29,PB10*%
%TO.N,unconnected-(U1-PB10-Pad29)*%
X142565000Y-102090000D03*
%TO.P,U1,30,VCAP1*%
%TO.N,Net-(U1-VCAP1)*%
X142565000Y-102590000D03*
%TO.P,U1,31,VSS*%
%TO.N,GND*%
X142565000Y-103090000D03*
%TO.P,U1,32,VDD*%
%TO.N,+3.3V*%
X142565000Y-103590000D03*
D28*
%TO.P,U1,33,PB12*%
%TO.N,unconnected-(U1-PB12-Pad33)*%
X144490000Y-105515000D03*
%TO.P,U1,34,PB13*%
%TO.N,unconnected-(U1-PB13-Pad34)*%
X144990000Y-105515000D03*
%TO.P,U1,35,PB14*%
%TO.N,unconnected-(U1-PB14-Pad35)*%
X145490000Y-105515000D03*
%TO.P,U1,36,PB15*%
%TO.N,unconnected-(U1-PB15-Pad36)*%
X145990000Y-105515000D03*
%TO.P,U1,37,PC6*%
%TO.N,unconnected-(U1-PC6-Pad37)*%
X146490000Y-105515000D03*
%TO.P,U1,38,PC7*%
%TO.N,unconnected-(U1-PC7-Pad38)*%
X146990000Y-105515000D03*
%TO.P,U1,39,PC8*%
%TO.N,unconnected-(U1-PC8-Pad39)*%
X147490000Y-105515000D03*
%TO.P,U1,40,PC9*%
%TO.N,unconnected-(U1-PC9-Pad40)*%
X147990000Y-105515000D03*
%TO.P,U1,41,PA8*%
%TO.N,unconnected-(U1-PA8-Pad41)*%
X148490000Y-105515000D03*
%TO.P,U1,42,PA9*%
%TO.N,unconnected-(U1-PA9-Pad42)*%
X148990000Y-105515000D03*
%TO.P,U1,43,PA10*%
%TO.N,unconnected-(U1-PA10-Pad43)*%
X149490000Y-105515000D03*
%TO.P,U1,44,PA11*%
%TO.N,unconnected-(U1-PA11-Pad44)*%
X149990000Y-105515000D03*
%TO.P,U1,45,PA12*%
%TO.N,unconnected-(U1-PA12-Pad45)*%
X150490000Y-105515000D03*
%TO.P,U1,46,PA13*%
%TO.N,/SWDIO*%
X150990000Y-105515000D03*
%TO.P,U1,47,VSS*%
%TO.N,GND*%
X151490000Y-105515000D03*
%TO.P,U1,48,VDD*%
%TO.N,+3.3V*%
X151990000Y-105515000D03*
D29*
%TO.P,U1,49,PA14*%
%TO.N,/SWCLK*%
X153915000Y-103590000D03*
%TO.P,U1,50,PA15*%
%TO.N,Net-(D2-A)*%
X153915000Y-103090000D03*
%TO.P,U1,51,PC10*%
%TO.N,unconnected-(U1-PC10-Pad51)*%
X153915000Y-102590000D03*
%TO.P,U1,52,PC11*%
%TO.N,unconnected-(U1-PC11-Pad52)*%
X153915000Y-102090000D03*
%TO.P,U1,53,PC12*%
%TO.N,unconnected-(U1-PC12-Pad53)*%
X153915000Y-101590000D03*
%TO.P,U1,54,PD2*%
%TO.N,unconnected-(U1-PD2-Pad54)*%
X153915000Y-101090000D03*
%TO.P,U1,55,PB3*%
%TO.N,unconnected-(U1-PB3-Pad55)*%
X153915000Y-100590000D03*
%TO.P,U1,56,PB4*%
%TO.N,unconnected-(U1-PB4-Pad56)*%
X153915000Y-100090000D03*
%TO.P,U1,57,PB5*%
%TO.N,unconnected-(U1-PB5-Pad57)*%
X153915000Y-99590000D03*
%TO.P,U1,58,PB6*%
%TO.N,unconnected-(U1-PB6-Pad58)*%
X153915000Y-99090000D03*
%TO.P,U1,59,PB7*%
%TO.N,unconnected-(U1-PB7-Pad59)*%
X153915000Y-98590000D03*
%TO.P,U1,60,BOOT0*%
%TO.N,/BOOT*%
X153915000Y-98090000D03*
%TO.P,U1,61,PB8*%
%TO.N,/I2C1_SCL*%
X153915000Y-97590000D03*
%TO.P,U1,62,PB9*%
%TO.N,/I2C1_SDA*%
X153915000Y-97090000D03*
%TO.P,U1,63,VSS*%
%TO.N,GND*%
X153915000Y-96590000D03*
%TO.P,U1,64,VDD*%
%TO.N,+3.3V*%
X153915000Y-96090000D03*
%TD*%
D30*
%TO.N,GND*%
X165176200Y-108915200D03*
%TO.N,+3.3V*%
X163652200Y-100965000D03*
%TO.N,+5V*%
X168249600Y-103352600D03*
X168275000Y-107696000D03*
%TO.N,+3.3V*%
X163677600Y-102731800D03*
X116916200Y-104216200D03*
X116916200Y-101092000D03*
%TO.N,GND*%
X132334000Y-102108000D03*
%TO.N,+5V*%
X156718000Y-111252000D03*
X148336000Y-111252000D03*
%TO.N,GND*%
X158750000Y-114808000D03*
%TO.N,Net-(U4-BISEN)*%
X123698000Y-101346000D03*
X127047275Y-101139275D03*
%TO.N,Net-(U4-AISEN)*%
X125476000Y-98806000D03*
X123444000Y-98806000D03*
%TO.N,GND*%
X126492000Y-87376000D03*
X138938000Y-91694000D03*
X108204000Y-90678000D03*
X130810000Y-105410000D03*
%TO.N,+5V*%
X127762000Y-106934000D03*
X123444000Y-106934000D03*
%TO.N,GND*%
X142748000Y-106172000D03*
X160528000Y-98806000D03*
X173482000Y-99314000D03*
X144272000Y-88646000D03*
X158496000Y-103886000D03*
X130810000Y-102108000D03*
X121920000Y-97131500D03*
%TO.N,+5V*%
X135890000Y-102616000D03*
X135890000Y-100076000D03*
%TO.N,GND*%
X150622000Y-103886000D03*
X144018000Y-102870000D03*
X156210000Y-94234000D03*
X149606000Y-91186000D03*
%TO.N,*%
X111861600Y-91059000D03*
X111887000Y-89789000D03*
X111887000Y-87401400D03*
X111912400Y-88595200D03*
%TD*%
D31*
%TO.N,Net-(D2-A)*%
X157332200Y-109575600D02*
X157332200Y-105627666D01*
X157332200Y-105627666D02*
X154794534Y-103090000D01*
X154794534Y-103090000D02*
X153915000Y-103090000D01*
%TO.N,GND*%
X164490400Y-109601000D02*
X165176200Y-108915200D01*
X163576000Y-109601000D02*
X164490400Y-109601000D01*
%TO.N,Net-(D2-K)*%
X161725600Y-109575600D02*
X161751000Y-109601000D01*
X159207200Y-109575600D02*
X161725600Y-109575600D01*
%TO.N,/SWCLK*%
X155092400Y-104767400D02*
X153915000Y-103590000D01*
X155092400Y-116179600D02*
X155092400Y-104767400D01*
X154686000Y-116586000D02*
X155092400Y-116179600D01*
%TO.N,/NRST*%
X148990000Y-95650000D02*
X148990000Y-94165000D01*
X152491000Y-103545534D02*
X152491000Y-99151000D01*
X152491000Y-99151000D02*
X148990000Y-95650000D01*
X154457400Y-114274600D02*
X154457400Y-105511934D01*
X154457400Y-105511934D02*
X152491000Y-103545534D01*
X152146000Y-116586000D02*
X154457400Y-114274600D01*
%TO.N,+3.3V*%
X150807000Y-111854400D02*
X153263600Y-109397800D01*
X150103471Y-117787000D02*
X150807000Y-117083471D01*
X150807000Y-117083471D02*
X150807000Y-111854400D01*
X148267000Y-117787000D02*
X150103471Y-117787000D01*
X147066000Y-116586000D02*
X148267000Y-117787000D01*
X151990000Y-108124200D02*
X153263600Y-109397800D01*
X151990000Y-105515000D02*
X151990000Y-108124200D01*
%TO.N,GND*%
X151490000Y-109271400D02*
X151363600Y-109397800D01*
X151490000Y-105515000D02*
X151490000Y-109271400D01*
%TO.N,+3.3V*%
X163652200Y-97967800D02*
X163652200Y-100965000D01*
D32*
%TO.N,+5V*%
X168249600Y-100870400D02*
X168340000Y-100780000D01*
X168249600Y-103352600D02*
X168249600Y-100870400D01*
X164719000Y-111252000D02*
X168275000Y-107696000D01*
X156718000Y-111252000D02*
X164719000Y-111252000D01*
D31*
%TO.N,+3.3V*%
X163677600Y-102731800D02*
X163677600Y-103062000D01*
X163757600Y-103142000D02*
X163757600Y-104089200D01*
X163677600Y-103062000D02*
X163757600Y-103142000D01*
%TO.N,/I2C1_SDA*%
X162052000Y-102031800D02*
X164363400Y-102031800D01*
X157110200Y-97090000D02*
X162052000Y-102031800D01*
X165582600Y-103251000D02*
X165582600Y-104089200D01*
X153915000Y-97090000D02*
X157110200Y-97090000D01*
X164363400Y-102031800D02*
X165582600Y-103251000D01*
%TO.N,+3.3V*%
X161124400Y-95440000D02*
X159500000Y-95440000D01*
X163652200Y-97967800D02*
X161124400Y-95440000D01*
%TO.N,/I2C1_SCL*%
X161696400Y-106240870D02*
X161696400Y-103196400D01*
X163405530Y-107950000D02*
X161696400Y-106240870D01*
X164412300Y-107950000D02*
X163405530Y-107950000D01*
%TO.N,+3.3V*%
X163757600Y-106732700D02*
X163781100Y-106756200D01*
X163757600Y-104089200D02*
X163757600Y-106732700D01*
%TO.N,/I2C1_SCL*%
X164412300Y-107950000D02*
X165606100Y-106756200D01*
X156090000Y-97590000D02*
X161696400Y-103196400D01*
X165606100Y-106756200D02*
X172523800Y-106756200D01*
X172523800Y-106756200D02*
X178500000Y-100780000D01*
%TO.N,/I2C1_SDA*%
X175960000Y-100780000D02*
X172650800Y-104089200D01*
X172650800Y-104089200D02*
X165582600Y-104089200D01*
%TO.N,/NRST*%
X171962400Y-113116400D02*
X170408600Y-113116400D01*
X177890800Y-107188000D02*
X171962400Y-113116400D01*
X162394071Y-113116400D02*
X170408600Y-113116400D01*
X157723471Y-117787000D02*
X162394071Y-113116400D01*
%TO.N,GND*%
X175390800Y-107188000D02*
X171362400Y-111216400D01*
X171362400Y-111216400D02*
X170408600Y-111216400D01*
D32*
%TO.N,+5V*%
X115381000Y-91245000D02*
X115012000Y-90876000D01*
X115381000Y-101157000D02*
X115381000Y-91245000D01*
%TO.N,+3.3V*%
X145289000Y-118363000D02*
X147066000Y-116586000D01*
X125594000Y-118363000D02*
X145289000Y-118363000D01*
X116916200Y-109685200D02*
X125594000Y-118363000D01*
X116916200Y-104216200D02*
X116916200Y-109685200D01*
X116916200Y-97281800D02*
X116916200Y-101092000D01*
X123322000Y-90876000D02*
X116916200Y-97281800D01*
D31*
%TO.N,Net-(U4-VINT)*%
X133638000Y-98580000D02*
X134440000Y-98580000D01*
X133498000Y-98440000D02*
X133638000Y-98580000D01*
X133498000Y-97489500D02*
X133498000Y-98440000D01*
D32*
%TO.N,GND*%
X130864000Y-102054000D02*
X130810000Y-102108000D01*
D31*
X157226000Y-116332000D02*
X158750000Y-114808000D01*
X157226000Y-116586000D02*
X157226000Y-116332000D01*
%TO.N,Net-(U4-BISEN)*%
X120396000Y-101346000D02*
X119380000Y-100330000D01*
X123698000Y-101346000D02*
X120396000Y-101346000D01*
X127047275Y-101171275D02*
X127047275Y-101139275D01*
X127111000Y-101235000D02*
X127047275Y-101171275D01*
%TO.N,Net-(J6-Pin_1)*%
X124460000Y-114627000D02*
X126394000Y-116561000D01*
X124460000Y-98806000D02*
X124460000Y-114627000D01*
X125338500Y-97927500D02*
X124460000Y-98806000D01*
X128824000Y-97927500D02*
X125338500Y-97927500D01*
%TO.N,Net-(U4-AISEN)*%
X125704500Y-98577500D02*
X128824000Y-98577500D01*
X125476000Y-98806000D02*
X125704500Y-98577500D01*
X121920000Y-100330000D02*
X123444000Y-98806000D01*
%TO.N,Net-(J6-Pin_2)*%
X125222000Y-112849000D02*
X128934000Y-116561000D01*
X125222000Y-100438980D02*
X125222000Y-112849000D01*
X126433480Y-99227500D02*
X125222000Y-100438980D01*
X128824000Y-99227500D02*
X126433480Y-99227500D01*
%TO.N,Net-(J5-Pin_2)*%
X126238000Y-110307000D02*
X126238000Y-100131500D01*
X126238000Y-100131500D02*
X126492000Y-99877500D01*
D32*
%TO.N,GND*%
X125222000Y-87376000D02*
X126492000Y-87376000D01*
X138824000Y-91580000D02*
X138938000Y-91694000D01*
X136500000Y-91580000D02*
X138824000Y-91580000D01*
D31*
%TO.N,/ENCODER_B*%
X139473000Y-87701000D02*
X134043000Y-87701000D01*
X144990000Y-93218000D02*
X139473000Y-87701000D01*
X134043000Y-87701000D02*
X132842000Y-86500000D01*
X144990000Y-94165000D02*
X144990000Y-93218000D01*
D32*
%TO.N,+5V*%
X139700000Y-111186000D02*
X134112000Y-105598000D01*
X139700000Y-111252000D02*
X139700000Y-111186000D01*
X148336000Y-111252000D02*
X139700000Y-111252000D01*
D31*
%TO.N,/SWDIO*%
X149359000Y-116339000D02*
X149606000Y-116586000D01*
X149359000Y-108197000D02*
X149359000Y-116339000D01*
X150990000Y-106566000D02*
X149359000Y-108197000D01*
X150990000Y-105515000D02*
X150990000Y-106566000D01*
D32*
%TO.N,GND*%
X125926000Y-91580000D02*
X125222000Y-90876000D01*
X132842000Y-91580000D02*
X125926000Y-91580000D01*
X136500000Y-91580000D02*
X132842000Y-91580000D01*
%TO.N,+3.3V*%
X132842000Y-89040000D02*
X136500000Y-89040000D01*
X139381000Y-84074000D02*
X139446000Y-84139000D01*
X132128000Y-84074000D02*
X139381000Y-84074000D01*
X130002000Y-86200000D02*
X132128000Y-84074000D01*
X130002000Y-86200000D02*
X132842000Y-89040000D01*
X124498000Y-86200000D02*
X130002000Y-86200000D01*
D31*
%TO.N,Net-(U4-VCP)*%
X133549000Y-100527500D02*
X133498000Y-100578500D01*
X134374000Y-100527500D02*
X133549000Y-100527500D01*
X133498000Y-100578500D02*
X133498000Y-103084000D01*
X133498000Y-103084000D02*
X134112000Y-103698000D01*
D32*
%TO.N,GND*%
X108062500Y-90536500D02*
X108204000Y-90678000D01*
X108062500Y-89450000D02*
X108062500Y-90536500D01*
D31*
X130688000Y-105532000D02*
X130810000Y-105410000D01*
X129286000Y-105532000D02*
X130688000Y-105532000D01*
D32*
%TO.N,+5V*%
X123444000Y-106934000D02*
X123698000Y-106934000D01*
X121158000Y-106934000D02*
X115381000Y-101157000D01*
X123444000Y-106934000D02*
X121158000Y-106934000D01*
X134112000Y-106172000D02*
X133350000Y-106934000D01*
X134112000Y-105598000D02*
X134112000Y-106172000D01*
X133350000Y-106934000D02*
X127762000Y-106934000D01*
D31*
%TO.N,Net-(U4-VINT)*%
X129778000Y-103140000D02*
X129778000Y-97411500D01*
X129286000Y-103632000D02*
X129778000Y-103140000D01*
D32*
%TO.N,+5V*%
X135890000Y-103820000D02*
X134112000Y-105598000D01*
X135890000Y-102616000D02*
X135890000Y-103820000D01*
D31*
%TO.N,+3.3V*%
X144780000Y-102616000D02*
X144780000Y-96065480D01*
X150622000Y-102616000D02*
X144780000Y-102616000D01*
X151990000Y-103984000D02*
X150622000Y-102616000D01*
X151990000Y-105515000D02*
X151990000Y-103984000D01*
%TO.N,GND*%
X151490000Y-104390000D02*
X151490000Y-105515000D01*
X150622000Y-103886000D02*
X150986000Y-103886000D01*
X150986000Y-103886000D02*
X151490000Y-104390000D01*
X142690000Y-106230000D02*
X142748000Y-106172000D01*
X142690000Y-107500000D02*
X142690000Y-106230000D01*
%TO.N,Net-(J5-Pin_2)*%
X128824000Y-99877500D02*
X126492000Y-99877500D01*
%TO.N,Net-(U4-BISEN)*%
X127818500Y-100527500D02*
X127111000Y-101235000D01*
X128824000Y-100527500D02*
X127818500Y-100527500D01*
%TO.N,GND*%
X149600000Y-91180000D02*
X149606000Y-91186000D01*
X149600000Y-89840000D02*
X149600000Y-91180000D01*
X156190000Y-94214000D02*
X156210000Y-94234000D01*
X156190000Y-92840000D02*
X156190000Y-94214000D01*
X159500000Y-97778000D02*
X160528000Y-98806000D01*
X159500000Y-97340000D02*
X159500000Y-97778000D01*
X145466000Y-89840000D02*
X145600000Y-89840000D01*
X144272000Y-88646000D02*
X145466000Y-89840000D01*
D32*
X108204000Y-89591500D02*
X108062500Y-89450000D01*
D31*
X121920000Y-98505000D02*
X121920000Y-97131500D01*
%TO.N,+3.3V*%
X144780000Y-96065480D02*
X144741733Y-96027213D01*
X144780000Y-103590000D02*
X144780000Y-102616000D01*
D32*
%TO.N,GND*%
X158500000Y-103882000D02*
X158496000Y-103886000D01*
X158500000Y-102500000D02*
X158500000Y-103882000D01*
%TO.N,+5V*%
X115012000Y-91528000D02*
X115012000Y-90876000D01*
X111540000Y-95000000D02*
X115012000Y-91528000D01*
%TO.N,GND*%
X103000000Y-93379892D02*
X103000000Y-89715000D01*
X105921108Y-96301000D02*
X103000000Y-93379892D01*
X112779000Y-96301000D02*
X105921108Y-96301000D01*
X114080000Y-95000000D02*
X112779000Y-96301000D01*
D31*
%TO.N,+3.3V*%
X137754520Y-89040000D02*
X136500000Y-89040000D01*
X144741733Y-96027213D02*
X137754520Y-89040000D01*
X144741733Y-96304267D02*
X144741733Y-96027213D01*
%TO.N,/NRST*%
X153347000Y-117787000D02*
X157723471Y-117787000D01*
X152146000Y-116586000D02*
X153347000Y-117787000D01*
%TO.N,+3.3V*%
X156695870Y-91764000D02*
X155366000Y-91764000D01*
X159500000Y-94568130D02*
X156695870Y-91764000D01*
X155366000Y-91764000D02*
X154290000Y-92840000D01*
X159500000Y-95440000D02*
X159500000Y-94568130D01*
X144741733Y-96304267D02*
X143956000Y-97090000D01*
D32*
%TO.N,+5V*%
X115062000Y-90826000D02*
X115012000Y-90876000D01*
%TO.N,+3.3V*%
X139446000Y-84139000D02*
X151497471Y-84139000D01*
D31*
X139446000Y-85598000D02*
X139446000Y-84139000D01*
X145990000Y-92142000D02*
X139446000Y-85598000D01*
X145990000Y-94165000D02*
X145990000Y-92142000D01*
%TO.N,Net-(J5-Pin_2)*%
X136233000Y-117762000D02*
X137434000Y-116561000D01*
X133693000Y-117762000D02*
X136233000Y-117762000D01*
X126238000Y-110307000D02*
X133693000Y-117762000D01*
%TO.N,Net-(J5-Pin_1)*%
X127999000Y-101177500D02*
X126857000Y-102319500D01*
X126857000Y-102319500D02*
X126857000Y-108524000D01*
X128824000Y-101177500D02*
X127999000Y-101177500D01*
X126857000Y-108524000D02*
X134894000Y-116561000D01*
%TO.N,GND*%
X125222000Y-92710000D02*
X125222000Y-90876000D01*
X125984000Y-93472000D02*
X125222000Y-92710000D01*
X141478000Y-93472000D02*
X125984000Y-93472000D01*
X143764000Y-95758000D02*
X141478000Y-93472000D01*
X119380000Y-98505000D02*
X121920000Y-98505000D01*
%TO.N,+3.3V*%
X139500000Y-104400000D02*
X140710000Y-104400000D01*
%TO.N,+5V*%
X135691500Y-99877500D02*
X135890000Y-100076000D01*
X134374000Y-99877500D02*
X135691500Y-99877500D01*
D32*
X134112000Y-105852000D02*
X134340000Y-105852000D01*
X134112000Y-105852000D02*
X134259136Y-105852000D01*
D31*
%TO.N,+3.3V*%
X159647500Y-95587500D02*
X159500000Y-95440000D01*
%TO.N,GND*%
X143764000Y-96411956D02*
X143764000Y-95758000D01*
D32*
X111660000Y-85874000D02*
X113162000Y-87376000D01*
X101699000Y-85874000D02*
X111660000Y-85874000D01*
X103000000Y-89715000D02*
X101699000Y-88414000D01*
X101699000Y-88414000D02*
X101699000Y-85874000D01*
D31*
X143798000Y-103090000D02*
X144018000Y-102870000D01*
X142565000Y-103090000D02*
X143798000Y-103090000D01*
%TO.N,+3.3V*%
X142565000Y-103590000D02*
X144780000Y-103590000D01*
X142565000Y-97090000D02*
X143956000Y-97090000D01*
%TO.N,GND*%
X143585956Y-96590000D02*
X143764000Y-96411956D01*
D32*
%TO.N,+3.3V*%
X154290000Y-86931529D02*
X154290000Y-92840000D01*
X151497471Y-84139000D02*
X154290000Y-86931529D01*
D31*
%TO.N,GND*%
X142565000Y-96590000D02*
X143585956Y-96590000D01*
%TO.N,/ENCODER_A*%
X145490000Y-92801479D02*
X139188521Y-86500000D01*
X145490000Y-94165000D02*
X145490000Y-92801479D01*
X136500000Y-86500000D02*
X139188521Y-86500000D01*
%TO.N,GND*%
X115118000Y-83002000D02*
X113162000Y-84958000D01*
X117658500Y-83002000D02*
X115118000Y-83002000D01*
X113162000Y-84958000D02*
X113162000Y-87376000D01*
%TO.N,/MR_CHA*%
X136398000Y-100584000D02*
X136404000Y-100590000D01*
X135804500Y-101177500D02*
X136398000Y-100584000D01*
%TO.N,/MR_CHB*%
X136170500Y-101827500D02*
X136906000Y-101092000D01*
X134374000Y-101827500D02*
X136170500Y-101827500D01*
%TO.N,/MR_CHA*%
X134374000Y-101177500D02*
X135804500Y-101177500D01*
%TO.N,Net-(U4-VINT)*%
X129778000Y-97411500D02*
X133420000Y-97411500D01*
X134300000Y-98651500D02*
X134374000Y-98577500D01*
X133420000Y-97411500D02*
X133498000Y-97489500D01*
%TO.N,/ML_CHA*%
X134374000Y-97277500D02*
X137155500Y-97277500D01*
X137155500Y-97277500D02*
X138430000Y-98552000D01*
%TO.N,/ML_CHB*%
X137698000Y-99090000D02*
X136535500Y-97927500D01*
%TO.N,/M_NSLEEP*%
X131636500Y-94465000D02*
X128824000Y-97277500D01*
%TO.N,/ML_CHB*%
X136535500Y-97927500D02*
X134374000Y-97927500D01*
D32*
%TO.N,GND*%
X113112000Y-87426000D02*
X113162000Y-87376000D01*
%TO.N,/VIN*%
X109000000Y-95000000D02*
X106460000Y-95000000D01*
X109937500Y-94062500D02*
X109000000Y-95000000D01*
X109937500Y-88500000D02*
X109937500Y-94062500D01*
%TO.N,Net-(J4-Pin_1)*%
X107687500Y-87175000D02*
X108062500Y-87550000D01*
X103000000Y-87175000D02*
X107687500Y-87175000D01*
%TO.N,GND*%
X107797500Y-89715000D02*
X108062500Y-89450000D01*
X103000000Y-89715000D02*
X107797500Y-89715000D01*
D31*
%TO.N,+3.3V*%
X123698000Y-85400000D02*
X124498000Y-86200000D01*
X123698000Y-83058000D02*
X123698000Y-85400000D01*
%TO.N,Net-(D1-K)*%
X119483500Y-83002000D02*
X121767000Y-83002000D01*
X121767000Y-83002000D02*
X121823000Y-83058000D01*
%TO.N,+3.3V*%
X120650000Y-87884000D02*
X120396000Y-88138000D01*
X153315000Y-92840000D02*
X151990000Y-94165000D01*
X154290000Y-92840000D02*
X153315000Y-92840000D01*
X154565000Y-95440000D02*
X153915000Y-96090000D01*
X159500000Y-95440000D02*
X154565000Y-95440000D01*
%TO.N,GND*%
X158750000Y-96590000D02*
X159500000Y-97340000D01*
X153915000Y-96590000D02*
X158750000Y-96590000D01*
X146490000Y-90730000D02*
X145600000Y-89840000D01*
X146490000Y-94165000D02*
X146490000Y-90730000D01*
D32*
%TO.N,+3.3V*%
X123322000Y-87376000D02*
X124498000Y-86200000D01*
%TO.N,GND*%
X125222000Y-87376000D02*
X125222000Y-90876000D01*
D31*
X140274000Y-95316000D02*
X139446000Y-95316000D01*
X141548000Y-96590000D02*
X140274000Y-95316000D01*
X142565000Y-96590000D02*
X141548000Y-96590000D01*
%TO.N,+3.3V*%
X140906000Y-97216000D02*
X139446000Y-97216000D01*
X141032000Y-97090000D02*
X140906000Y-97216000D01*
X142565000Y-97090000D02*
X141032000Y-97090000D01*
X141520000Y-103590000D02*
X142565000Y-103590000D01*
D32*
X123322000Y-90876000D02*
X123322000Y-87376000D01*
X121158000Y-87376000D02*
X120396000Y-88138000D01*
X123322000Y-87376000D02*
X121158000Y-87376000D01*
D31*
%TO.N,/ML_CHB*%
X142565000Y-99090000D02*
X137698000Y-99090000D01*
%TO.N,/ML_CHA*%
X142565000Y-98590000D02*
X141685466Y-98590000D01*
X141647466Y-98552000D02*
X141685466Y-98590000D01*
X138430000Y-98552000D02*
X141647466Y-98552000D01*
%TO.N,/MR_CHB*%
X141480000Y-101090000D02*
X141478000Y-101092000D01*
X142565000Y-101090000D02*
X141480000Y-101090000D01*
X141478000Y-101092000D02*
X141683466Y-101092000D01*
X141683466Y-101092000D02*
X141684466Y-101091000D01*
%TO.N,/HSE_IN*%
X151000000Y-88500000D02*
X151000000Y-85340000D01*
X151500000Y-89000000D02*
X151000000Y-88500000D01*
X151500000Y-89840000D02*
X151500000Y-89000000D01*
%TO.N,/HSE_OUT*%
X147500000Y-86720000D02*
X146120000Y-85340000D01*
X147500000Y-89840000D02*
X147500000Y-86720000D01*
X147500000Y-91228520D02*
X147500000Y-89840000D01*
X149490000Y-93218520D02*
X147500000Y-91228520D01*
X149490000Y-94165000D02*
X149490000Y-93218520D01*
%TO.N,/HSE_IN*%
X151500000Y-91500000D02*
X151500000Y-89840000D01*
X149990000Y-93010000D02*
X151500000Y-91500000D01*
X149990000Y-94165000D02*
X149990000Y-93010000D01*
%TO.N,/BOOT*%
X156675000Y-99675000D02*
X156675000Y-102500000D01*
X155090000Y-98090000D02*
X156675000Y-99675000D01*
X153915000Y-98090000D02*
X155090000Y-98090000D01*
%TO.N,/I2C1_SCL*%
X153915000Y-97590000D02*
X156090000Y-97590000D01*
%TO.N,/MR_CHB*%
X136906000Y-101092000D02*
X141478000Y-101092000D01*
%TO.N,/MR_CHA*%
X136404000Y-100590000D02*
X142565000Y-100590000D01*
%TO.N,/M_NSLEEP*%
X140940000Y-94465000D02*
X131636500Y-94465000D01*
X142565000Y-96090000D02*
X140940000Y-94465000D01*
%TO.N,+3.3V*%
X140710000Y-104400000D02*
X141520000Y-103590000D01*
%TO.N,GND*%
X140716000Y-103124000D02*
X140092000Y-102500000D01*
X142565000Y-103090000D02*
X140750000Y-103090000D01*
X140092000Y-102500000D02*
X139500000Y-102500000D01*
X140750000Y-103090000D02*
X140716000Y-103124000D01*
%TO.N,Net-(U1-VCAP1)*%
X140790000Y-107500000D02*
X138424000Y-105134000D01*
X141225000Y-102590000D02*
X142565000Y-102590000D01*
X138424000Y-105134000D02*
X138424000Y-101994130D01*
X138424000Y-101994130D02*
X138769130Y-101649000D01*
X140284000Y-101649000D02*
X141225000Y-102590000D01*
X138769130Y-101649000D02*
X140284000Y-101649000D01*
%TO.N,GND*%
X173420000Y-100780000D02*
X173420000Y-99376000D01*
X173420000Y-99376000D02*
X173482000Y-99314000D01*
%TD*%
%TA.AperFunction,Conductor*%
%TO.N,GND*%
G36*
X132990539Y-97881685D02*
G01*
X133036294Y-97934489D01*
X133047500Y-97986000D01*
X133047500Y-98499308D01*
X133071712Y-98589672D01*
X133078199Y-98613881D01*
X133078201Y-98613887D01*
X133079387Y-98615941D01*
X133080000Y-98618230D01*
X133081311Y-98621394D01*
X133080894Y-98621566D01*
X133096000Y-98677940D01*
X133096000Y-99060000D01*
X133722406Y-99060000D01*
X133772492Y-99070565D01*
X133845009Y-99102585D01*
X133870135Y-99105500D01*
X135004000Y-99105499D01*
X135012685Y-99108049D01*
X135021647Y-99106761D01*
X135045687Y-99117739D01*
X135071039Y-99125184D01*
X135076966Y-99132024D01*
X135085203Y-99135786D01*
X135099490Y-99158018D01*
X135116794Y-99177987D01*
X135119081Y-99188502D01*
X135122977Y-99194564D01*
X135128000Y-99229499D01*
X135128000Y-99230500D01*
X135108315Y-99297539D01*
X135055511Y-99343294D01*
X135004000Y-99354500D01*
X133870143Y-99354500D01*
X133870117Y-99354502D01*
X133845012Y-99357413D01*
X133845008Y-99357415D01*
X133742235Y-99402793D01*
X133662794Y-99482234D01*
X133657561Y-99494087D01*
X133612475Y-99547463D01*
X133545688Y-99567990D01*
X133544127Y-99568000D01*
X133096000Y-99568000D01*
X133096000Y-100340558D01*
X133080895Y-100396930D01*
X133081312Y-100397103D01*
X133080002Y-100400265D01*
X133079389Y-100402554D01*
X133078204Y-100404606D01*
X133078200Y-100404615D01*
X133071712Y-100428824D01*
X133071713Y-100428825D01*
X133047500Y-100519191D01*
X133047500Y-102492000D01*
X133027815Y-102559039D01*
X132975011Y-102604794D01*
X132923500Y-102616000D01*
X130426000Y-102616000D01*
X130358961Y-102596315D01*
X130313206Y-102543511D01*
X130302000Y-102492000D01*
X130302000Y-97986000D01*
X130321685Y-97918961D01*
X130374489Y-97873206D01*
X130426000Y-97862000D01*
X132923500Y-97862000D01*
X132990539Y-97881685D01*
G37*
%TD.AperFunction*%
%TD*%
%TA.AperFunction,Conductor*%
%TO.N,GND*%
G36*
X113988382Y-86272958D02*
G01*
X114034702Y-86325266D01*
X114046441Y-86375411D01*
X114096800Y-88798399D01*
X114096800Y-88798400D01*
X118365589Y-88773866D01*
X118432739Y-88793165D01*
X118478796Y-88845705D01*
X118490300Y-88897864D01*
X118490300Y-89259455D01*
X118470615Y-89326494D01*
X118417811Y-89372249D01*
X118367009Y-89383453D01*
X116988194Y-89391332D01*
X116970433Y-89389833D01*
X116970394Y-89390128D01*
X116967908Y-89389794D01*
X116967905Y-89389793D01*
X116967901Y-89389793D01*
X116918555Y-89385192D01*
X116918548Y-89385191D01*
X116918539Y-89385191D01*
X116791245Y-89383694D01*
X116747733Y-89386292D01*
X116747727Y-89386293D01*
X116712729Y-89390906D01*
X116709374Y-89391448D01*
X116690308Y-89393033D01*
X114071400Y-89407999D01*
X114071399Y-89408000D01*
X114047699Y-91663707D01*
X114027311Y-91730536D01*
X114011387Y-91750085D01*
X113802974Y-91958498D01*
X113741651Y-91991983D01*
X113716727Y-91994809D01*
X111300680Y-92022755D01*
X111233418Y-92003847D01*
X111187055Y-91951576D01*
X111175247Y-91899312D01*
X111174587Y-91750085D01*
X111173883Y-91591136D01*
X111193271Y-91524013D01*
X111245872Y-91478025D01*
X111314986Y-91467775D01*
X111378669Y-91496519D01*
X111385563Y-91502909D01*
X111446927Y-91564273D01*
X111446931Y-91564276D01*
X111553466Y-91635461D01*
X111553472Y-91635464D01*
X111553473Y-91635465D01*
X111671856Y-91684501D01*
X111671860Y-91684501D01*
X111671861Y-91684502D01*
X111797528Y-91709500D01*
X111797531Y-91709500D01*
X111925671Y-91709500D01*
X112010215Y-91692682D01*
X112051344Y-91684501D01*
X112169727Y-91635465D01*
X112276269Y-91564276D01*
X112366876Y-91473669D01*
X112438065Y-91367127D01*
X112487101Y-91248744D01*
X112512100Y-91123069D01*
X112512100Y-90994931D01*
X112512100Y-90994928D01*
X112487102Y-90869261D01*
X112487101Y-90869260D01*
X112487101Y-90869256D01*
X112438065Y-90750873D01*
X112438064Y-90750872D01*
X112438061Y-90750866D01*
X112366876Y-90644331D01*
X112366873Y-90644327D01*
X112276272Y-90553726D01*
X112276268Y-90553723D01*
X112249126Y-90535587D01*
X112204321Y-90481974D01*
X112195614Y-90412649D01*
X112225769Y-90349622D01*
X112249124Y-90329385D01*
X112301669Y-90294276D01*
X112392276Y-90203669D01*
X112463465Y-90097127D01*
X112512501Y-89978744D01*
X112537500Y-89853069D01*
X112537500Y-89724931D01*
X112537500Y-89724928D01*
X112512502Y-89599261D01*
X112512501Y-89599260D01*
X112512501Y-89599256D01*
X112463465Y-89480873D01*
X112463464Y-89480872D01*
X112463461Y-89480866D01*
X112392276Y-89374331D01*
X112392273Y-89374327D01*
X112308834Y-89290888D01*
X112275349Y-89229565D01*
X112280333Y-89159873D01*
X112322205Y-89103940D01*
X112326874Y-89100636D01*
X112327065Y-89100478D01*
X112327069Y-89100476D01*
X112417676Y-89009869D01*
X112488865Y-88903327D01*
X112537901Y-88784944D01*
X112547896Y-88734699D01*
X112562900Y-88659271D01*
X112562900Y-88531128D01*
X112537902Y-88405461D01*
X112537901Y-88405460D01*
X112537901Y-88405456D01*
X112499974Y-88313892D01*
X112488866Y-88287075D01*
X112488861Y-88287066D01*
X112417676Y-88180531D01*
X112417673Y-88180527D01*
X112327072Y-88089926D01*
X112322361Y-88086060D01*
X112323213Y-88085020D01*
X112282815Y-88036673D01*
X112274113Y-87967347D01*
X112304273Y-87904322D01*
X112308815Y-87899529D01*
X112392276Y-87816069D01*
X112463465Y-87709527D01*
X112512501Y-87591144D01*
X112523579Y-87535453D01*
X112537500Y-87465471D01*
X112537500Y-87337328D01*
X112512502Y-87211661D01*
X112512501Y-87211660D01*
X112512501Y-87211656D01*
X112463465Y-87093273D01*
X112463464Y-87093272D01*
X112463461Y-87093266D01*
X112392276Y-86986731D01*
X112392273Y-86986727D01*
X112301672Y-86896126D01*
X112301668Y-86896123D01*
X112195133Y-86824938D01*
X112195124Y-86824933D01*
X112076744Y-86775899D01*
X112076738Y-86775897D01*
X111951071Y-86750900D01*
X111951069Y-86750900D01*
X111822931Y-86750900D01*
X111822929Y-86750900D01*
X111697261Y-86775897D01*
X111697255Y-86775899D01*
X111578875Y-86824933D01*
X111578866Y-86824938D01*
X111472331Y-86896123D01*
X111472327Y-86896126D01*
X111381726Y-86986727D01*
X111381723Y-86986731D01*
X111380315Y-86988839D01*
X111379292Y-86989693D01*
X111377860Y-86991439D01*
X111377528Y-86991167D01*
X111326701Y-87033641D01*
X111257375Y-87042345D01*
X111194349Y-87012188D01*
X111157633Y-86952743D01*
X111153217Y-86920492D01*
X111150945Y-86407016D01*
X111170333Y-86339890D01*
X111222934Y-86293902D01*
X111273607Y-86282474D01*
X113921135Y-86253995D01*
X113988382Y-86272958D01*
G37*
%TD.AperFunction*%
%TD*%
%TA.AperFunction,Conductor*%
%TO.N,+5V*%
G36*
X115589239Y-86608285D02*
G01*
X115634994Y-86661089D01*
X115646200Y-86712600D01*
X115646200Y-87731600D01*
X118904462Y-87756098D01*
X118971352Y-87776286D01*
X119016708Y-87829432D01*
X119027489Y-87876900D01*
X119041267Y-88411547D01*
X119043759Y-88508235D01*
X119043759Y-88508236D01*
X119045959Y-88593608D01*
X119046000Y-88596802D01*
X119046000Y-90326322D01*
X119026315Y-90393361D01*
X118973511Y-90439116D01*
X118922926Y-90450319D01*
X115646200Y-90474800D01*
X115646200Y-91519200D01*
X115626515Y-91586239D01*
X115573711Y-91631994D01*
X115522200Y-91643200D01*
X114578484Y-91643200D01*
X114511445Y-91623515D01*
X114465690Y-91570711D01*
X114454501Y-91517134D01*
X114475768Y-90241134D01*
X114496567Y-90174431D01*
X114550126Y-90129563D01*
X114599751Y-90119200D01*
X116662200Y-90119200D01*
X116662200Y-89813164D01*
X116664956Y-89803776D01*
X116663678Y-89794074D01*
X116674639Y-89770800D01*
X116681885Y-89746125D01*
X116689278Y-89739718D01*
X116693449Y-89730864D01*
X116715253Y-89717211D01*
X116734689Y-89700370D01*
X116745952Y-89697989D01*
X116752668Y-89693784D01*
X116787651Y-89689173D01*
X116914961Y-89690671D01*
X116954449Y-89697619D01*
X116991451Y-89710567D01*
X116991458Y-89710567D01*
X116991460Y-89710568D01*
X117022724Y-89713500D01*
X117022728Y-89713500D01*
X118369277Y-89713500D01*
X118408065Y-89709863D01*
X118408094Y-89710181D01*
X118425171Y-89708439D01*
X118788508Y-89712714D01*
X118795799Y-89712800D01*
X118795800Y-89712800D01*
X118795800Y-88468200D01*
X118794644Y-88468186D01*
X118382662Y-88463338D01*
X118372570Y-88462808D01*
X118369278Y-88462500D01*
X118369272Y-88462500D01*
X118311994Y-88462500D01*
X118310535Y-88462491D01*
X116759341Y-88444241D01*
X116692538Y-88423770D01*
X116647407Y-88370431D01*
X116636800Y-88320250D01*
X116636800Y-88061800D01*
X114654094Y-88085688D01*
X114586822Y-88066813D01*
X114540434Y-88014564D01*
X114528600Y-87961697D01*
X114528600Y-86712600D01*
X114548285Y-86645561D01*
X114601089Y-86599806D01*
X114652600Y-86588600D01*
X115522200Y-86588600D01*
X115589239Y-86608285D01*
G37*
%TD.AperFunction*%
%TD*%
M02*
