%TF.GenerationSoftware,KiCad,Pcbnew,9.0.2*%
%TF.CreationDate,2025-06-19T19:06:17-05:00*%
%TF.ProjectId,balance_bot,62616c61-6e63-4655-9f62-6f742e6b6963,rev?*%
%TF.SameCoordinates,Original*%
%TF.FileFunction,Copper,L2,Bot*%
%TF.FilePolarity,Positive*%
%FSLAX46Y46*%
G04 Gerber Fmt 4.6, Leading zero omitted, Abs format (unit mm)*
G04 Created by KiCad (PCBNEW 9.0.2) date 2025-06-19 19:06:17*
%MOMM*%
%LPD*%
G01*
G04 APERTURE LIST*
%TA.AperFunction,ComponentPad*%
%ADD10R,1.700000X1.700000*%
%TD*%
%TA.AperFunction,ComponentPad*%
%ADD11C,1.700000*%
%TD*%
%TA.AperFunction,ComponentPad*%
%ADD12C,1.500000*%
%TD*%
%TA.AperFunction,ComponentPad*%
%ADD13R,1.800000X1.800000*%
%TD*%
%TA.AperFunction,ComponentPad*%
%ADD14C,1.800000*%
%TD*%
%TA.AperFunction,ViaPad*%
%ADD15C,0.700000*%
%TD*%
%TA.AperFunction,Conductor*%
%ADD16C,0.300000*%
%TD*%
%TA.AperFunction,Conductor*%
%ADD17C,0.500000*%
%TD*%
G04 APERTURE END LIST*
D10*
%TO.P,J5,1,Pin_1*%
%TO.N,Net-(J5-Pin_1)*%
X134894000Y-116561000D03*
D11*
%TO.P,J5,2,Pin_2*%
%TO.N,Net-(J5-Pin_2)*%
X137434000Y-116561000D03*
%TD*%
D10*
%TO.P,J6,1,Pin_1*%
%TO.N,Net-(J6-Pin_1)*%
X126394000Y-116561000D03*
D11*
%TO.P,J6,2,Pin_2*%
%TO.N,Net-(J6-Pin_2)*%
X128934000Y-116561000D03*
%TD*%
D10*
%TO.P,J1,1,Pin_1*%
%TO.N,/ENCODER_B*%
X132842000Y-86500000D03*
D11*
%TO.P,J1,2,Pin_2*%
%TO.N,+3.3V*%
X132842000Y-89040000D03*
%TO.P,J1,3,Pin_3*%
%TO.N,GND*%
X132842000Y-91580000D03*
%TD*%
%TO.P,J3,5,Pin_5*%
%TO.N,GND*%
X157226000Y-116586000D03*
%TO.P,J3,4,Pin_4*%
%TO.N,/SWCLK*%
X154686000Y-116586000D03*
%TO.P,J3,3,Pin_3*%
%TO.N,/NRST*%
X152146000Y-116586000D03*
%TO.P,J3,2,Pin_2*%
%TO.N,/SWDIO*%
X149606000Y-116586000D03*
D10*
%TO.P,J3,1,Pin_1*%
%TO.N,+3.3V*%
X147066000Y-116586000D03*
%TD*%
D11*
%TO.P,U2,4,EN*%
%TO.N,/VIN*%
X106460000Y-95000000D03*
%TO.P,U2,3,VIN*%
X109000000Y-95000000D03*
%TO.P,U2,2,5V*%
%TO.N,+5V*%
X111540000Y-95000000D03*
D10*
%TO.P,U2,1,GND*%
%TO.N,GND*%
X114080000Y-95000000D03*
%TD*%
%TO.P,U5,1,VIN*%
%TO.N,+5V*%
X168340000Y-100780000D03*
D11*
%TO.P,U5,2,3VO*%
%TO.N,unconnected-(U5-3VO-Pad2)*%
X170880000Y-100780000D03*
%TO.P,U5,3,GND*%
%TO.N,GND*%
X173420000Y-100780000D03*
%TO.P,U5,4,SDA*%
%TO.N,/I2C1_SDA*%
X175960000Y-100780000D03*
%TO.P,U5,5,SCL*%
%TO.N,/I2C1_SCL*%
X178500000Y-100780000D03*
%TO.P,U5,6,RST*%
%TO.N,unconnected-(U5-RST-Pad6)*%
X181040000Y-100780000D03*
%TO.P,U5,7,INT*%
%TO.N,unconnected-(U5-INT-Pad7)*%
X178500000Y-83000000D03*
%TO.P,U5,8,ADDR*%
%TO.N,unconnected-(U5-ADDR-Pad8)*%
X175960000Y-83000000D03*
%TO.P,U5,9,PS1*%
%TO.N,unconnected-(U5-PS1-Pad9)*%
X173420000Y-83000000D03*
%TO.P,U5,10,PS0*%
%TO.N,unconnected-(U5-PS0-Pad10)*%
X170880000Y-83000000D03*
%TD*%
D12*
%TO.P,Y1,1,1*%
%TO.N,/HSE_IN*%
X151000000Y-85340000D03*
%TO.P,Y1,2,2*%
%TO.N,/HSE_OUT*%
X146120000Y-85340000D03*
%TD*%
D13*
%TO.P,SW1,1,1*%
%TO.N,GND*%
X175390800Y-107188000D03*
D14*
%TO.P,SW1,2,2*%
%TO.N,/NRST*%
X177890800Y-107188000D03*
%TO.P,SW1,3*%
%TO.N,N/C*%
X180390800Y-107188000D03*
%TO.P,SW1,4*%
X175390800Y-113188000D03*
%TO.P,SW1,5*%
X177890800Y-113188000D03*
%TO.P,SW1,6*%
X180390800Y-113188000D03*
%TD*%
D10*
%TO.P,J4,1,Pin_1*%
%TO.N,Net-(J4-Pin_1)*%
X103000000Y-87175000D03*
D11*
%TO.P,J4,2,Pin_2*%
%TO.N,GND*%
X103000000Y-89715000D03*
%TD*%
D10*
%TO.P,J2,1,Pin_1*%
%TO.N,/ENCODER_A*%
X136500000Y-86500000D03*
D11*
%TO.P,J2,2,Pin_2*%
%TO.N,+3.3V*%
X136500000Y-89040000D03*
%TO.P,J2,3,Pin_3*%
%TO.N,GND*%
X136500000Y-91580000D03*
%TD*%
D15*
%TO.N,GND*%
X165176200Y-108915200D03*
%TO.N,+3.3V*%
X163652200Y-100965000D03*
%TO.N,+5V*%
X168249600Y-103352600D03*
X168275000Y-107696000D03*
%TO.N,+3.3V*%
X163677600Y-102731800D03*
X116916200Y-104216200D03*
X116916200Y-101092000D03*
%TO.N,GND*%
X132334000Y-102108000D03*
%TO.N,+5V*%
X156718000Y-111252000D03*
X148336000Y-111252000D03*
%TO.N,GND*%
X158750000Y-114808000D03*
%TO.N,Net-(U4-BISEN)*%
X123698000Y-101346000D03*
X127047275Y-101139275D03*
%TO.N,Net-(U4-AISEN)*%
X125476000Y-98806000D03*
X123444000Y-98806000D03*
%TO.N,GND*%
X126492000Y-87376000D03*
X138938000Y-91694000D03*
X108204000Y-90678000D03*
X130810000Y-105410000D03*
%TO.N,+5V*%
X127762000Y-106934000D03*
X123444000Y-106934000D03*
%TO.N,GND*%
X142748000Y-106172000D03*
X160528000Y-98806000D03*
X173482000Y-99314000D03*
X144272000Y-88646000D03*
X158496000Y-103886000D03*
X130810000Y-102108000D03*
X121920000Y-97131500D03*
%TO.N,+5V*%
X135890000Y-102616000D03*
X135890000Y-100076000D03*
%TO.N,GND*%
X150622000Y-103886000D03*
X144018000Y-102870000D03*
X156210000Y-94234000D03*
X149606000Y-91186000D03*
%TO.N,*%
X111861600Y-91059000D03*
X111887000Y-89789000D03*
X111887000Y-87401400D03*
X111912400Y-88595200D03*
%TD*%
D16*
%TO.N,+3.3V*%
X163652200Y-100965000D02*
X163652200Y-102706400D01*
X163652200Y-102706400D02*
X163677600Y-102731800D01*
D17*
%TO.N,+5V*%
X168275000Y-103378000D02*
X168249600Y-103352600D01*
X168275000Y-107696000D02*
X168275000Y-103378000D01*
%TO.N,+3.3V*%
X116916200Y-101092000D02*
X116916200Y-104216200D01*
%TO.N,+5V*%
X156718000Y-111252000D02*
X148336000Y-111252000D01*
D16*
%TO.N,Net-(U4-BISEN)*%
X123904725Y-101139275D02*
X123698000Y-101346000D01*
X127047275Y-101139275D02*
X123904725Y-101139275D01*
%TO.N,Net-(U4-AISEN)*%
X123444000Y-98806000D02*
X125476000Y-98806000D01*
D17*
%TO.N,+5V*%
X123444000Y-106934000D02*
X127762000Y-106934000D01*
X135890000Y-102616000D02*
X135890000Y-100076000D01*
%TD*%
%TA.AperFunction,Conductor*%
%TO.N,GND*%
G36*
X193002855Y-76000632D02*
G01*
X193363310Y-76017296D01*
X193374700Y-76018352D01*
X193729238Y-76067808D01*
X193740482Y-76069910D01*
X194088944Y-76151867D01*
X194099934Y-76154994D01*
X194439368Y-76268761D01*
X194450022Y-76272889D01*
X194777488Y-76417479D01*
X194787735Y-76422581D01*
X195100452Y-76596765D01*
X195110190Y-76602794D01*
X195405512Y-76805093D01*
X195414652Y-76811996D01*
X195690035Y-77040671D01*
X195698499Y-77048387D01*
X195951612Y-77301500D01*
X195959328Y-77309964D01*
X196188003Y-77585347D01*
X196194906Y-77594487D01*
X196397205Y-77889809D01*
X196403234Y-77899547D01*
X196577418Y-78212264D01*
X196582523Y-78222517D01*
X196686528Y-78458067D01*
X196727105Y-78549964D01*
X196731243Y-78560644D01*
X196845001Y-78900052D01*
X196848135Y-78911068D01*
X196930087Y-79259509D01*
X196932192Y-79270768D01*
X196981646Y-79625292D01*
X196982703Y-79636696D01*
X196999368Y-79997144D01*
X196999500Y-80002871D01*
X196999500Y-115497128D01*
X196999368Y-115502855D01*
X196982703Y-115863303D01*
X196981646Y-115874707D01*
X196932192Y-116229231D01*
X196930087Y-116240490D01*
X196848135Y-116588931D01*
X196845001Y-116599947D01*
X196731243Y-116939355D01*
X196727105Y-116950035D01*
X196582523Y-117277482D01*
X196577418Y-117287735D01*
X196403234Y-117600452D01*
X196397205Y-117610190D01*
X196194906Y-117905512D01*
X196188003Y-117914652D01*
X195959328Y-118190035D01*
X195951612Y-118198499D01*
X195698499Y-118451612D01*
X195690035Y-118459328D01*
X195414652Y-118688003D01*
X195405512Y-118694906D01*
X195110190Y-118897205D01*
X195100452Y-118903234D01*
X194787735Y-119077418D01*
X194777482Y-119082523D01*
X194450035Y-119227105D01*
X194439355Y-119231243D01*
X194099947Y-119345001D01*
X194088931Y-119348135D01*
X193740490Y-119430087D01*
X193729231Y-119432192D01*
X193374707Y-119481646D01*
X193363303Y-119482703D01*
X193002855Y-119499368D01*
X192997128Y-119499500D01*
X104002872Y-119499500D01*
X103997145Y-119499368D01*
X103636696Y-119482703D01*
X103625292Y-119481646D01*
X103270768Y-119432192D01*
X103259509Y-119430087D01*
X102911068Y-119348135D01*
X102900052Y-119345001D01*
X102560644Y-119231243D01*
X102549964Y-119227105D01*
X102222517Y-119082523D01*
X102212264Y-119077418D01*
X101899547Y-118903234D01*
X101889809Y-118897205D01*
X101594487Y-118694906D01*
X101585347Y-118688003D01*
X101309964Y-118459328D01*
X101301500Y-118451612D01*
X101048387Y-118198499D01*
X101040671Y-118190035D01*
X100811994Y-117914649D01*
X100805093Y-117905512D01*
X100602794Y-117610190D01*
X100596765Y-117600452D01*
X100449183Y-117335494D01*
X100422579Y-117287731D01*
X100417476Y-117277482D01*
X100378405Y-117188994D01*
X100272889Y-116950022D01*
X100268761Y-116939368D01*
X100154994Y-116599934D01*
X100151867Y-116588944D01*
X100069910Y-116240482D01*
X100067807Y-116229231D01*
X100057606Y-116156104D01*
X100018352Y-115874700D01*
X100017296Y-115863303D01*
X100014901Y-115811505D01*
X100000632Y-115502855D01*
X100000500Y-115497128D01*
X100000500Y-115438711D01*
X102149500Y-115438711D01*
X102149500Y-115681288D01*
X102181161Y-115921785D01*
X102243947Y-116156104D01*
X102310423Y-116316591D01*
X102336776Y-116380212D01*
X102458064Y-116590289D01*
X102458066Y-116590292D01*
X102458067Y-116590293D01*
X102605733Y-116782736D01*
X102605739Y-116782743D01*
X102777256Y-116954260D01*
X102777262Y-116954265D01*
X102969711Y-117101936D01*
X103179788Y-117223224D01*
X103403900Y-117316054D01*
X103638211Y-117378838D01*
X103818586Y-117402584D01*
X103878711Y-117410500D01*
X103878712Y-117410500D01*
X104121289Y-117410500D01*
X104169388Y-117404167D01*
X104361789Y-117378838D01*
X104596100Y-117316054D01*
X104820212Y-117223224D01*
X105030289Y-117101936D01*
X105222738Y-116954265D01*
X105394265Y-116782738D01*
X105541936Y-116590289D01*
X105663224Y-116380212D01*
X105756054Y-116156100D01*
X105818838Y-115921789D01*
X105850500Y-115681288D01*
X105850500Y-115666131D01*
X125243500Y-115666131D01*
X125243500Y-117455856D01*
X125243502Y-117455882D01*
X125246413Y-117480987D01*
X125246415Y-117480991D01*
X125291793Y-117583764D01*
X125291794Y-117583765D01*
X125371235Y-117663206D01*
X125474009Y-117708585D01*
X125499135Y-117711500D01*
X127288864Y-117711499D01*
X127288879Y-117711497D01*
X127288882Y-117711497D01*
X127313987Y-117708586D01*
X127313988Y-117708585D01*
X127313991Y-117708585D01*
X127416765Y-117663206D01*
X127496206Y-117583765D01*
X127541585Y-117480991D01*
X127544500Y-117455865D01*
X127544499Y-116718125D01*
X127564183Y-116651089D01*
X127616987Y-116605334D01*
X127686146Y-116595390D01*
X127749702Y-116624415D01*
X127787476Y-116683193D01*
X127790972Y-116698729D01*
X127811829Y-116830410D01*
X127867787Y-117002636D01*
X127867788Y-117002639D01*
X127950006Y-117163997D01*
X128056441Y-117310494D01*
X128056445Y-117310499D01*
X128184500Y-117438554D01*
X128184505Y-117438558D01*
X128312287Y-117531396D01*
X128331006Y-117544996D01*
X128407094Y-117583765D01*
X128492360Y-117627211D01*
X128492363Y-117627212D01*
X128569304Y-117652211D01*
X128664591Y-117683171D01*
X128747429Y-117696291D01*
X128843449Y-117711500D01*
X128843454Y-117711500D01*
X129024551Y-117711500D01*
X129111259Y-117697765D01*
X129203409Y-117683171D01*
X129375639Y-117627211D01*
X129536994Y-117544996D01*
X129683501Y-117438553D01*
X129811553Y-117310501D01*
X129917996Y-117163994D01*
X130000211Y-117002639D01*
X130056171Y-116830409D01*
X130070765Y-116738259D01*
X130084500Y-116651551D01*
X130084500Y-116470448D01*
X130068019Y-116366397D01*
X130056171Y-116291591D01*
X130016556Y-116169666D01*
X130000212Y-116119363D01*
X130000211Y-116119360D01*
X129971740Y-116063484D01*
X129917996Y-115958006D01*
X129860195Y-115878449D01*
X129811558Y-115811505D01*
X129811554Y-115811500D01*
X129683499Y-115683445D01*
X129683494Y-115683441D01*
X129659669Y-115666131D01*
X133743500Y-115666131D01*
X133743500Y-117455856D01*
X133743502Y-117455882D01*
X133746413Y-117480987D01*
X133746415Y-117480991D01*
X133791793Y-117583764D01*
X133791794Y-117583765D01*
X133871235Y-117663206D01*
X133974009Y-117708585D01*
X133999135Y-117711500D01*
X135788864Y-117711499D01*
X135788879Y-117711497D01*
X135788882Y-117711497D01*
X135813987Y-117708586D01*
X135813988Y-117708585D01*
X135813991Y-117708585D01*
X135916765Y-117663206D01*
X135996206Y-117583765D01*
X136041585Y-117480991D01*
X136044500Y-117455865D01*
X136044499Y-116718125D01*
X136064183Y-116651089D01*
X136116987Y-116605334D01*
X136186146Y-116595390D01*
X136249702Y-116624415D01*
X136287476Y-116683193D01*
X136290972Y-116698729D01*
X136311829Y-116830410D01*
X136367787Y-117002636D01*
X136367788Y-117002639D01*
X136450006Y-117163997D01*
X136556441Y-117310494D01*
X136556445Y-117310499D01*
X136684500Y-117438554D01*
X136684505Y-117438558D01*
X136812287Y-117531396D01*
X136831006Y-117544996D01*
X136907094Y-117583765D01*
X136992360Y-117627211D01*
X136992363Y-117627212D01*
X137069304Y-117652211D01*
X137164591Y-117683171D01*
X137247429Y-117696291D01*
X137343449Y-117711500D01*
X137343454Y-117711500D01*
X137524551Y-117711500D01*
X137611259Y-117697765D01*
X137703409Y-117683171D01*
X137875639Y-117627211D01*
X138036994Y-117544996D01*
X138183501Y-117438553D01*
X138311553Y-117310501D01*
X138417996Y-117163994D01*
X138500211Y-117002639D01*
X138556171Y-116830409D01*
X138570765Y-116738259D01*
X138584500Y-116651551D01*
X138584500Y-116470448D01*
X138568019Y-116366397D01*
X138556171Y-116291591D01*
X138516556Y-116169666D01*
X138500212Y-116119363D01*
X138500211Y-116119360D01*
X138471740Y-116063484D01*
X138417996Y-115958006D01*
X138360195Y-115878449D01*
X138311558Y-115811505D01*
X138311554Y-115811500D01*
X138191185Y-115691131D01*
X145915500Y-115691131D01*
X145915500Y-117480856D01*
X145915502Y-117480882D01*
X145918413Y-117505987D01*
X145918415Y-117505991D01*
X145963793Y-117608764D01*
X145963794Y-117608765D01*
X146043235Y-117688206D01*
X146146009Y-117733585D01*
X146171135Y-117736500D01*
X147960864Y-117736499D01*
X147960879Y-117736497D01*
X147960882Y-117736497D01*
X147985987Y-117733586D01*
X147985988Y-117733585D01*
X147985991Y-117733585D01*
X148088765Y-117688206D01*
X148168206Y-117608765D01*
X148213585Y-117505991D01*
X148216500Y-117480865D01*
X148216499Y-116743125D01*
X148236183Y-116676089D01*
X148288987Y-116630334D01*
X148358146Y-116620390D01*
X148421702Y-116649415D01*
X148459476Y-116708193D01*
X148462972Y-116723729D01*
X148483829Y-116855410D01*
X148539787Y-117027636D01*
X148539788Y-117027639D01*
X148595664Y-117137300D01*
X148609267Y-117163997D01*
X148622006Y-117188997D01*
X148728441Y-117335494D01*
X148728445Y-117335499D01*
X148856500Y-117463554D01*
X148856505Y-117463558D01*
X148968592Y-117544993D01*
X149003006Y-117569996D01*
X149079094Y-117608765D01*
X149164360Y-117652211D01*
X149164363Y-117652212D01*
X149250476Y-117680191D01*
X149336591Y-117708171D01*
X149419429Y-117721291D01*
X149515449Y-117736500D01*
X149515454Y-117736500D01*
X149696551Y-117736500D01*
X149783259Y-117722765D01*
X149875409Y-117708171D01*
X150047639Y-117652211D01*
X150208994Y-117569996D01*
X150355501Y-117463553D01*
X150483553Y-117335501D01*
X150589996Y-117188994D01*
X150672211Y-117027639D01*
X150728171Y-116855409D01*
X150742422Y-116765425D01*
X150753527Y-116695321D01*
X150783456Y-116632186D01*
X150842768Y-116595255D01*
X150912630Y-116596253D01*
X150970863Y-116634863D01*
X150998473Y-116695321D01*
X151023829Y-116855410D01*
X151079787Y-117027636D01*
X151079788Y-117027639D01*
X151135664Y-117137300D01*
X151149267Y-117163997D01*
X151162006Y-117188997D01*
X151268441Y-117335494D01*
X151268445Y-117335499D01*
X151396500Y-117463554D01*
X151396505Y-117463558D01*
X151508592Y-117544993D01*
X151543006Y-117569996D01*
X151619094Y-117608765D01*
X151704360Y-117652211D01*
X151704363Y-117652212D01*
X151790476Y-117680191D01*
X151876591Y-117708171D01*
X151959429Y-117721291D01*
X152055449Y-117736500D01*
X152055454Y-117736500D01*
X152236551Y-117736500D01*
X152323259Y-117722765D01*
X152415409Y-117708171D01*
X152587639Y-117652211D01*
X152748994Y-117569996D01*
X152895501Y-117463553D01*
X153023553Y-117335501D01*
X153129996Y-117188994D01*
X153212211Y-117027639D01*
X153268171Y-116855409D01*
X153282422Y-116765425D01*
X153293527Y-116695321D01*
X153323456Y-116632186D01*
X153382768Y-116595255D01*
X153452630Y-116596253D01*
X153510863Y-116634863D01*
X153538473Y-116695321D01*
X153563829Y-116855410D01*
X153619787Y-117027636D01*
X153619788Y-117027639D01*
X153675664Y-117137300D01*
X153689267Y-117163997D01*
X153702006Y-117188997D01*
X153808441Y-117335494D01*
X153808445Y-117335499D01*
X153936500Y-117463554D01*
X153936505Y-117463558D01*
X154048592Y-117544993D01*
X154083006Y-117569996D01*
X154159094Y-117608765D01*
X154244360Y-117652211D01*
X154244363Y-117652212D01*
X154330476Y-117680191D01*
X154416591Y-117708171D01*
X154499429Y-117721291D01*
X154595449Y-117736500D01*
X154595454Y-117736500D01*
X154776551Y-117736500D01*
X154863259Y-117722765D01*
X154955409Y-117708171D01*
X155127639Y-117652211D01*
X155288994Y-117569996D01*
X155411500Y-117480991D01*
X155435495Y-117463558D01*
X155435497Y-117463555D01*
X155435501Y-117463553D01*
X155563553Y-117335501D01*
X155669996Y-117188994D01*
X155737090Y-117057314D01*
X155785065Y-117006519D01*
X155852886Y-116989724D01*
X155919021Y-117012262D01*
X155962472Y-117066977D01*
X155965506Y-117075292D01*
X155974904Y-117104217D01*
X156071375Y-117293550D01*
X156110728Y-117347716D01*
X156743037Y-116715408D01*
X156760075Y-116778993D01*
X156825901Y-116893007D01*
X156918993Y-116986099D01*
X157033007Y-117051925D01*
X157096590Y-117068962D01*
X156464282Y-117701269D01*
X156464282Y-117701270D01*
X156518449Y-117740624D01*
X156707782Y-117837095D01*
X156909870Y-117902757D01*
X157119754Y-117936000D01*
X157332246Y-117936000D01*
X157542127Y-117902757D01*
X157542130Y-117902757D01*
X157744217Y-117837095D01*
X157933554Y-117740622D01*
X157987716Y-117701270D01*
X157987717Y-117701270D01*
X157355408Y-117068962D01*
X157418993Y-117051925D01*
X157533007Y-116986099D01*
X157626099Y-116893007D01*
X157691925Y-116778993D01*
X157708962Y-116715409D01*
X158341270Y-117347717D01*
X158341270Y-117347716D01*
X158380622Y-117293554D01*
X158477095Y-117104217D01*
X158542757Y-116902130D01*
X158542757Y-116902127D01*
X158576000Y-116692246D01*
X158576000Y-116479753D01*
X158542757Y-116269872D01*
X158542757Y-116269869D01*
X158477095Y-116067782D01*
X158380624Y-115878449D01*
X158341270Y-115824282D01*
X158341269Y-115824282D01*
X157708962Y-116456590D01*
X157691925Y-116393007D01*
X157626099Y-116278993D01*
X157533007Y-116185901D01*
X157418993Y-116120075D01*
X157355409Y-116103037D01*
X157987716Y-115470728D01*
X157943647Y-115438711D01*
X191049500Y-115438711D01*
X191049500Y-115681288D01*
X191081161Y-115921785D01*
X191143947Y-116156104D01*
X191210423Y-116316591D01*
X191236776Y-116380212D01*
X191358064Y-116590289D01*
X191358066Y-116590292D01*
X191358067Y-116590293D01*
X191505733Y-116782736D01*
X191505739Y-116782743D01*
X191677256Y-116954260D01*
X191677262Y-116954265D01*
X191869711Y-117101936D01*
X192079788Y-117223224D01*
X192303900Y-117316054D01*
X192538211Y-117378838D01*
X192718586Y-117402584D01*
X192778711Y-117410500D01*
X192778712Y-117410500D01*
X193021289Y-117410500D01*
X193069388Y-117404167D01*
X193261789Y-117378838D01*
X193496100Y-117316054D01*
X193720212Y-117223224D01*
X193930289Y-117101936D01*
X194122738Y-116954265D01*
X194294265Y-116782738D01*
X194441936Y-116590289D01*
X194563224Y-116380212D01*
X194656054Y-116156100D01*
X194718838Y-115921789D01*
X194750500Y-115681288D01*
X194750500Y-115438712D01*
X194750077Y-115435502D01*
X194718838Y-115198214D01*
X194718838Y-115198211D01*
X194656054Y-114963900D01*
X194563224Y-114739788D01*
X194441936Y-114529711D01*
X194294265Y-114337262D01*
X194294260Y-114337256D01*
X194122743Y-114165739D01*
X194122736Y-114165733D01*
X193930293Y-114018067D01*
X193930292Y-114018066D01*
X193930289Y-114018064D01*
X193720212Y-113896776D01*
X193720205Y-113896773D01*
X193496104Y-113803947D01*
X193261785Y-113741161D01*
X193021289Y-113709500D01*
X193021288Y-113709500D01*
X192778712Y-113709500D01*
X192778711Y-113709500D01*
X192538214Y-113741161D01*
X192303895Y-113803947D01*
X192079794Y-113896773D01*
X192079785Y-113896777D01*
X191869706Y-114018067D01*
X191677263Y-114165733D01*
X191677256Y-114165739D01*
X191505739Y-114337256D01*
X191505733Y-114337263D01*
X191358067Y-114529706D01*
X191236777Y-114739785D01*
X191236773Y-114739794D01*
X191143947Y-114963895D01*
X191081161Y-115198214D01*
X191049500Y-115438711D01*
X157943647Y-115438711D01*
X157933550Y-115431375D01*
X157744217Y-115334904D01*
X157542129Y-115269242D01*
X157332246Y-115236000D01*
X157119754Y-115236000D01*
X156909872Y-115269242D01*
X156909869Y-115269242D01*
X156707782Y-115334904D01*
X156518439Y-115431380D01*
X156464282Y-115470727D01*
X156464282Y-115470728D01*
X157096591Y-116103037D01*
X157033007Y-116120075D01*
X156918993Y-116185901D01*
X156825901Y-116278993D01*
X156760075Y-116393007D01*
X156743037Y-116456591D01*
X156110728Y-115824282D01*
X156110727Y-115824282D01*
X156071380Y-115878439D01*
X155974905Y-116067781D01*
X155965506Y-116096708D01*
X155926068Y-116154383D01*
X155861709Y-116181581D01*
X155792862Y-116169666D01*
X155741387Y-116122421D01*
X155737090Y-116114684D01*
X155713191Y-116067781D01*
X155669996Y-115983006D01*
X155651830Y-115958002D01*
X155563558Y-115836505D01*
X155563554Y-115836500D01*
X155435499Y-115708445D01*
X155435494Y-115708441D01*
X155311432Y-115618305D01*
X155288996Y-115602005D01*
X155127639Y-115519788D01*
X155127636Y-115519787D01*
X154955410Y-115463829D01*
X154776551Y-115435500D01*
X154776546Y-115435500D01*
X154595454Y-115435500D01*
X154595449Y-115435500D01*
X154416589Y-115463829D01*
X154244363Y-115519787D01*
X154244360Y-115519788D01*
X154083002Y-115602006D01*
X153936505Y-115708441D01*
X153936500Y-115708445D01*
X153808445Y-115836500D01*
X153808441Y-115836505D01*
X153702006Y-115983002D01*
X153619788Y-116144360D01*
X153619787Y-116144363D01*
X153563829Y-116316589D01*
X153538473Y-116476678D01*
X153508544Y-116539813D01*
X153449232Y-116576744D01*
X153379369Y-116575746D01*
X153321137Y-116537136D01*
X153293527Y-116476678D01*
X153278248Y-116380214D01*
X153268171Y-116316591D01*
X153225708Y-116185901D01*
X153212212Y-116144363D01*
X153212211Y-116144360D01*
X153173191Y-116067781D01*
X153129996Y-115983006D01*
X153111830Y-115958002D01*
X153023558Y-115836505D01*
X153023554Y-115836500D01*
X152895499Y-115708445D01*
X152895494Y-115708441D01*
X152748997Y-115602006D01*
X152748996Y-115602005D01*
X152748994Y-115602004D01*
X152672906Y-115563235D01*
X152587639Y-115519788D01*
X152587636Y-115519787D01*
X152415410Y-115463829D01*
X152236551Y-115435500D01*
X152236546Y-115435500D01*
X152055454Y-115435500D01*
X152055449Y-115435500D01*
X151876589Y-115463829D01*
X151704363Y-115519787D01*
X151704360Y-115519788D01*
X151543002Y-115602006D01*
X151396505Y-115708441D01*
X151396500Y-115708445D01*
X151268445Y-115836500D01*
X151268441Y-115836505D01*
X151162006Y-115983002D01*
X151079788Y-116144360D01*
X151079787Y-116144363D01*
X151023829Y-116316589D01*
X150998473Y-116476678D01*
X150968544Y-116539813D01*
X150909232Y-116576744D01*
X150839369Y-116575746D01*
X150781137Y-116537136D01*
X150753527Y-116476678D01*
X150738248Y-116380214D01*
X150728171Y-116316591D01*
X150685708Y-116185901D01*
X150672212Y-116144363D01*
X150672211Y-116144360D01*
X150633191Y-116067781D01*
X150589996Y-115983006D01*
X150571830Y-115958002D01*
X150483558Y-115836505D01*
X150483554Y-115836500D01*
X150355499Y-115708445D01*
X150355494Y-115708441D01*
X150208997Y-115602006D01*
X150208996Y-115602005D01*
X150208994Y-115602004D01*
X150132906Y-115563235D01*
X150047639Y-115519788D01*
X150047636Y-115519787D01*
X149875410Y-115463829D01*
X149696551Y-115435500D01*
X149696546Y-115435500D01*
X149515454Y-115435500D01*
X149515449Y-115435500D01*
X149336589Y-115463829D01*
X149164363Y-115519787D01*
X149164360Y-115519788D01*
X149003002Y-115602006D01*
X148856505Y-115708441D01*
X148856500Y-115708445D01*
X148728445Y-115836500D01*
X148728441Y-115836505D01*
X148622006Y-115983002D01*
X148539788Y-116144360D01*
X148539787Y-116144363D01*
X148483829Y-116316589D01*
X148462972Y-116448271D01*
X148433042Y-116511405D01*
X148373731Y-116548336D01*
X148303868Y-116547338D01*
X148245636Y-116508728D01*
X148217522Y-116444764D01*
X148216499Y-116428872D01*
X148216499Y-115691143D01*
X148216499Y-115691136D01*
X148216497Y-115691117D01*
X148213586Y-115666012D01*
X148213585Y-115666010D01*
X148213585Y-115666009D01*
X148168206Y-115563235D01*
X148088765Y-115483794D01*
X148088763Y-115483793D01*
X147985992Y-115438415D01*
X147960865Y-115435500D01*
X146171143Y-115435500D01*
X146171117Y-115435502D01*
X146146012Y-115438413D01*
X146146008Y-115438415D01*
X146043235Y-115483793D01*
X145963794Y-115563234D01*
X145918415Y-115666006D01*
X145918415Y-115666008D01*
X145915500Y-115691131D01*
X138191185Y-115691131D01*
X138183499Y-115683445D01*
X138183494Y-115683441D01*
X138036997Y-115577006D01*
X138036996Y-115577005D01*
X138036994Y-115577004D01*
X137960906Y-115538235D01*
X137875639Y-115494788D01*
X137875636Y-115494787D01*
X137703410Y-115438829D01*
X137524551Y-115410500D01*
X137524546Y-115410500D01*
X137343454Y-115410500D01*
X137343449Y-115410500D01*
X137164589Y-115438829D01*
X136992363Y-115494787D01*
X136992360Y-115494788D01*
X136831002Y-115577006D01*
X136684505Y-115683441D01*
X136684500Y-115683445D01*
X136556445Y-115811500D01*
X136556441Y-115811505D01*
X136450006Y-115958002D01*
X136367788Y-116119360D01*
X136367787Y-116119363D01*
X136311829Y-116291589D01*
X136290972Y-116423271D01*
X136261042Y-116486405D01*
X136201731Y-116523336D01*
X136131868Y-116522338D01*
X136073636Y-116483728D01*
X136045522Y-116419764D01*
X136044499Y-116403872D01*
X136044499Y-115666143D01*
X136044499Y-115666136D01*
X136044484Y-115666006D01*
X136041586Y-115641012D01*
X136041585Y-115641010D01*
X136041585Y-115641009D01*
X135996206Y-115538235D01*
X135916765Y-115458794D01*
X135916763Y-115458793D01*
X135813992Y-115413415D01*
X135788865Y-115410500D01*
X133999143Y-115410500D01*
X133999117Y-115410502D01*
X133974012Y-115413413D01*
X133974008Y-115413415D01*
X133871235Y-115458793D01*
X133791794Y-115538234D01*
X133746415Y-115641006D01*
X133746415Y-115641008D01*
X133743500Y-115666131D01*
X129659669Y-115666131D01*
X129536997Y-115577006D01*
X129536996Y-115577005D01*
X129536994Y-115577004D01*
X129460906Y-115538235D01*
X129375639Y-115494788D01*
X129375636Y-115494787D01*
X129203410Y-115438829D01*
X129024551Y-115410500D01*
X129024546Y-115410500D01*
X128843454Y-115410500D01*
X128843449Y-115410500D01*
X128664589Y-115438829D01*
X128492363Y-115494787D01*
X128492360Y-115494788D01*
X128331002Y-115577006D01*
X128184505Y-115683441D01*
X128184500Y-115683445D01*
X128056445Y-115811500D01*
X128056441Y-115811505D01*
X127950006Y-115958002D01*
X127867788Y-116119360D01*
X127867787Y-116119363D01*
X127811829Y-116291589D01*
X127790972Y-116423271D01*
X127761042Y-116486405D01*
X127701731Y-116523336D01*
X127631868Y-116522338D01*
X127573636Y-116483728D01*
X127545522Y-116419764D01*
X127544499Y-116403872D01*
X127544499Y-115666143D01*
X127544499Y-115666136D01*
X127544484Y-115666006D01*
X127541586Y-115641012D01*
X127541585Y-115641010D01*
X127541585Y-115641009D01*
X127496206Y-115538235D01*
X127416765Y-115458794D01*
X127416763Y-115458793D01*
X127313992Y-115413415D01*
X127288865Y-115410500D01*
X125499143Y-115410500D01*
X125499117Y-115410502D01*
X125474012Y-115413413D01*
X125474008Y-115413415D01*
X125371235Y-115458793D01*
X125291794Y-115538234D01*
X125246415Y-115641006D01*
X125246415Y-115641008D01*
X125243500Y-115666131D01*
X105850500Y-115666131D01*
X105850500Y-115438712D01*
X105850077Y-115435502D01*
X105818838Y-115198214D01*
X105818838Y-115198211D01*
X105756054Y-114963900D01*
X105663224Y-114739788D01*
X105541936Y-114529711D01*
X105394265Y-114337262D01*
X105394260Y-114337256D01*
X105222743Y-114165739D01*
X105222736Y-114165733D01*
X105030293Y-114018067D01*
X105030292Y-114018066D01*
X105030289Y-114018064D01*
X104820212Y-113896776D01*
X104820205Y-113896773D01*
X104596104Y-113803947D01*
X104361785Y-113741161D01*
X104121289Y-113709500D01*
X104121288Y-113709500D01*
X103878712Y-113709500D01*
X103878711Y-113709500D01*
X103638214Y-113741161D01*
X103403895Y-113803947D01*
X103179794Y-113896773D01*
X103179785Y-113896777D01*
X102969706Y-114018067D01*
X102777263Y-114165733D01*
X102777256Y-114165739D01*
X102605739Y-114337256D01*
X102605733Y-114337263D01*
X102458067Y-114529706D01*
X102336777Y-114739785D01*
X102336773Y-114739794D01*
X102243947Y-114963895D01*
X102181161Y-115198214D01*
X102149500Y-115438711D01*
X100000500Y-115438711D01*
X100000500Y-113093513D01*
X174190300Y-113093513D01*
X174190300Y-113282486D01*
X174219859Y-113469118D01*
X174278254Y-113648836D01*
X174325297Y-113741162D01*
X174364040Y-113817199D01*
X174475110Y-113970073D01*
X174608727Y-114103690D01*
X174761601Y-114214760D01*
X174841147Y-114255290D01*
X174929963Y-114300545D01*
X174929965Y-114300545D01*
X174929968Y-114300547D01*
X175026297Y-114331846D01*
X175109681Y-114358940D01*
X175296314Y-114388500D01*
X175296319Y-114388500D01*
X175485286Y-114388500D01*
X175671918Y-114358940D01*
X175851632Y-114300547D01*
X176019999Y-114214760D01*
X176172873Y-114103690D01*
X176306490Y-113970073D01*
X176417560Y-113817199D01*
X176503347Y-113648832D01*
X176522869Y-113588748D01*
X176562307Y-113531073D01*
X176626665Y-113503875D01*
X176695512Y-113515790D01*
X176746987Y-113563034D01*
X176758730Y-113588746D01*
X176778253Y-113648832D01*
X176864040Y-113817199D01*
X176975110Y-113970073D01*
X177108727Y-114103690D01*
X177261601Y-114214760D01*
X177341147Y-114255290D01*
X177429963Y-114300545D01*
X177429965Y-114300545D01*
X177429968Y-114300547D01*
X177526297Y-114331846D01*
X177609681Y-114358940D01*
X177796314Y-114388500D01*
X177796319Y-114388500D01*
X177985286Y-114388500D01*
X178171918Y-114358940D01*
X178351632Y-114300547D01*
X178519999Y-114214760D01*
X178672873Y-114103690D01*
X178806490Y-113970073D01*
X178917560Y-113817199D01*
X179003347Y-113648832D01*
X179022869Y-113588748D01*
X179062307Y-113531073D01*
X179126665Y-113503875D01*
X179195512Y-113515790D01*
X179246987Y-113563034D01*
X179258730Y-113588746D01*
X179278253Y-113648832D01*
X179364040Y-113817199D01*
X179475110Y-113970073D01*
X179608727Y-114103690D01*
X179761601Y-114214760D01*
X179841147Y-114255290D01*
X179929963Y-114300545D01*
X179929965Y-114300545D01*
X179929968Y-114300547D01*
X180026297Y-114331846D01*
X180109681Y-114358940D01*
X180296314Y-114388500D01*
X180296319Y-114388500D01*
X180485286Y-114388500D01*
X180671918Y-114358940D01*
X180851632Y-114300547D01*
X181019999Y-114214760D01*
X181172873Y-114103690D01*
X181306490Y-113970073D01*
X181417560Y-113817199D01*
X181503347Y-113648832D01*
X181561740Y-113469118D01*
X181591300Y-113282486D01*
X181591300Y-113093513D01*
X181561740Y-112906881D01*
X181503345Y-112727163D01*
X181417559Y-112558800D01*
X181306490Y-112405927D01*
X181172873Y-112272310D01*
X181019999Y-112161240D01*
X180851636Y-112075454D01*
X180671918Y-112017059D01*
X180485286Y-111987500D01*
X180485281Y-111987500D01*
X180296319Y-111987500D01*
X180296314Y-111987500D01*
X180109681Y-112017059D01*
X179929963Y-112075454D01*
X179761600Y-112161240D01*
X179674379Y-112224610D01*
X179608727Y-112272310D01*
X179608725Y-112272312D01*
X179608724Y-112272312D01*
X179475112Y-112405924D01*
X179475112Y-112405925D01*
X179475110Y-112405927D01*
X179427410Y-112471579D01*
X179364040Y-112558800D01*
X179278254Y-112727163D01*
X179258731Y-112787251D01*
X179219293Y-112844926D01*
X179154934Y-112872124D01*
X179086088Y-112860209D01*
X179034612Y-112812965D01*
X179022869Y-112787251D01*
X179003345Y-112727163D01*
X178917559Y-112558800D01*
X178806490Y-112405927D01*
X178672873Y-112272310D01*
X178519999Y-112161240D01*
X178351636Y-112075454D01*
X178171918Y-112017059D01*
X177985286Y-111987500D01*
X177985281Y-111987500D01*
X177796319Y-111987500D01*
X177796314Y-111987500D01*
X177609681Y-112017059D01*
X177429963Y-112075454D01*
X177261600Y-112161240D01*
X177174379Y-112224610D01*
X177108727Y-112272310D01*
X177108725Y-112272312D01*
X177108724Y-112272312D01*
X176975112Y-112405924D01*
X176975112Y-112405925D01*
X176975110Y-112405927D01*
X176927410Y-112471579D01*
X176864040Y-112558800D01*
X176778254Y-112727163D01*
X176758731Y-112787251D01*
X176719293Y-112844926D01*
X176654934Y-112872124D01*
X176586088Y-112860209D01*
X176534612Y-112812965D01*
X176522869Y-112787251D01*
X176503345Y-112727163D01*
X176417559Y-112558800D01*
X176306490Y-112405927D01*
X176172873Y-112272310D01*
X176019999Y-112161240D01*
X175851636Y-112075454D01*
X175671918Y-112017059D01*
X175485286Y-111987500D01*
X175485281Y-111987500D01*
X175296319Y-111987500D01*
X175296314Y-111987500D01*
X175109681Y-112017059D01*
X174929963Y-112075454D01*
X174761600Y-112161240D01*
X174674379Y-112224610D01*
X174608727Y-112272310D01*
X174608725Y-112272312D01*
X174608724Y-112272312D01*
X174475112Y-112405924D01*
X174475112Y-112405925D01*
X174475110Y-112405927D01*
X174427410Y-112471579D01*
X174364040Y-112558800D01*
X174278254Y-112727163D01*
X174219859Y-112906881D01*
X174190300Y-113093513D01*
X100000500Y-113093513D01*
X100000500Y-111316071D01*
X147685499Y-111316071D01*
X147710497Y-111441738D01*
X147710499Y-111441744D01*
X147759533Y-111560124D01*
X147759538Y-111560133D01*
X147830723Y-111666668D01*
X147830726Y-111666672D01*
X147921327Y-111757273D01*
X147921331Y-111757276D01*
X148027866Y-111828461D01*
X148027872Y-111828464D01*
X148027873Y-111828465D01*
X148146256Y-111877501D01*
X148146260Y-111877501D01*
X148146261Y-111877502D01*
X148271928Y-111902500D01*
X148271931Y-111902500D01*
X148400071Y-111902500D01*
X148484615Y-111885682D01*
X148525744Y-111877501D01*
X148644127Y-111828465D01*
X148651712Y-111823396D01*
X148718389Y-111802520D01*
X148720601Y-111802500D01*
X156333399Y-111802500D01*
X156400438Y-111822185D01*
X156402252Y-111823373D01*
X156409873Y-111828465D01*
X156528256Y-111877501D01*
X156528260Y-111877501D01*
X156528261Y-111877502D01*
X156653928Y-111902500D01*
X156653931Y-111902500D01*
X156782071Y-111902500D01*
X156866615Y-111885682D01*
X156907744Y-111877501D01*
X157026127Y-111828465D01*
X157132669Y-111757276D01*
X157223276Y-111666669D01*
X157294465Y-111560127D01*
X157343501Y-111441744D01*
X157368500Y-111316069D01*
X157368500Y-111187931D01*
X157368500Y-111187928D01*
X157343502Y-111062261D01*
X157343501Y-111062260D01*
X157343501Y-111062256D01*
X157294465Y-110943873D01*
X157294464Y-110943872D01*
X157294461Y-110943866D01*
X157223276Y-110837331D01*
X157223273Y-110837327D01*
X157132672Y-110746726D01*
X157132668Y-110746723D01*
X157026133Y-110675538D01*
X157026124Y-110675533D01*
X156907744Y-110626499D01*
X156907738Y-110626497D01*
X156782071Y-110601500D01*
X156782069Y-110601500D01*
X156653931Y-110601500D01*
X156653929Y-110601500D01*
X156528261Y-110626497D01*
X156528255Y-110626499D01*
X156409876Y-110675533D01*
X156409873Y-110675534D01*
X156409873Y-110675535D01*
X156402287Y-110680603D01*
X156335611Y-110701480D01*
X156333399Y-110701500D01*
X148720601Y-110701500D01*
X148653562Y-110681815D01*
X148651747Y-110680626D01*
X148644127Y-110675535D01*
X148644124Y-110675533D01*
X148644123Y-110675533D01*
X148525744Y-110626499D01*
X148525738Y-110626497D01*
X148400071Y-110601500D01*
X148400069Y-110601500D01*
X148271931Y-110601500D01*
X148271929Y-110601500D01*
X148146261Y-110626497D01*
X148146255Y-110626499D01*
X148027875Y-110675533D01*
X148027866Y-110675538D01*
X147921331Y-110746723D01*
X147921327Y-110746726D01*
X147830726Y-110837327D01*
X147830723Y-110837331D01*
X147759538Y-110943866D01*
X147759533Y-110943875D01*
X147710499Y-111062255D01*
X147710497Y-111062261D01*
X147685500Y-111187928D01*
X147685500Y-111187931D01*
X147685500Y-111316069D01*
X147685500Y-111316071D01*
X147685499Y-111316071D01*
X100000500Y-111316071D01*
X100000500Y-106998071D01*
X122793499Y-106998071D01*
X122818497Y-107123738D01*
X122818499Y-107123744D01*
X122867533Y-107242124D01*
X122867538Y-107242133D01*
X122938723Y-107348668D01*
X122938726Y-107348672D01*
X123029327Y-107439273D01*
X123029331Y-107439276D01*
X123135866Y-107510461D01*
X123135875Y-107510466D01*
X123162692Y-107521574D01*
X123254256Y-107559501D01*
X123254260Y-107559501D01*
X123254261Y-107559502D01*
X123379928Y-107584500D01*
X123379931Y-107584500D01*
X123508071Y-107584500D01*
X123592615Y-107567682D01*
X123633744Y-107559501D01*
X123752127Y-107510465D01*
X123759712Y-107505396D01*
X123826389Y-107484520D01*
X123828601Y-107484500D01*
X127377399Y-107484500D01*
X127444438Y-107504185D01*
X127446252Y-107505373D01*
X127453873Y-107510465D01*
X127572256Y-107559501D01*
X127572260Y-107559501D01*
X127572261Y-107559502D01*
X127697928Y-107584500D01*
X127697931Y-107584500D01*
X127826071Y-107584500D01*
X127910615Y-107567682D01*
X127951744Y-107559501D01*
X128070127Y-107510465D01*
X128176669Y-107439276D01*
X128267276Y-107348669D01*
X128338465Y-107242127D01*
X128387501Y-107123744D01*
X128412500Y-106998069D01*
X128412500Y-106869931D01*
X128412500Y-106869928D01*
X128387502Y-106744261D01*
X128387501Y-106744260D01*
X128387501Y-106744256D01*
X128338465Y-106625873D01*
X128338464Y-106625872D01*
X128338461Y-106625866D01*
X128267276Y-106519331D01*
X128267273Y-106519327D01*
X128176672Y-106428726D01*
X128176668Y-106428723D01*
X128070133Y-106357538D01*
X128070124Y-106357533D01*
X127951744Y-106308499D01*
X127951738Y-106308497D01*
X127826071Y-106283500D01*
X127826069Y-106283500D01*
X127697931Y-106283500D01*
X127697929Y-106283500D01*
X127572261Y-106308497D01*
X127572255Y-106308499D01*
X127453876Y-106357533D01*
X127453873Y-106357534D01*
X127453873Y-106357535D01*
X127446287Y-106362603D01*
X127379611Y-106383480D01*
X127377399Y-106383500D01*
X123828601Y-106383500D01*
X123761562Y-106363815D01*
X123759747Y-106362626D01*
X123752127Y-106357535D01*
X123752124Y-106357533D01*
X123752123Y-106357533D01*
X123633744Y-106308499D01*
X123633738Y-106308497D01*
X123508071Y-106283500D01*
X123508069Y-106283500D01*
X123379931Y-106283500D01*
X123379929Y-106283500D01*
X123254261Y-106308497D01*
X123254255Y-106308499D01*
X123135875Y-106357533D01*
X123135866Y-106357538D01*
X123029331Y-106428723D01*
X123029327Y-106428726D01*
X122938726Y-106519327D01*
X122938723Y-106519331D01*
X122867538Y-106625866D01*
X122867533Y-106625875D01*
X122818499Y-106744255D01*
X122818497Y-106744261D01*
X122793500Y-106869928D01*
X122793500Y-106869931D01*
X122793500Y-106998069D01*
X122793500Y-106998071D01*
X122793499Y-106998071D01*
X100000500Y-106998071D01*
X100000500Y-101156071D01*
X116265699Y-101156071D01*
X116290697Y-101281738D01*
X116290699Y-101281744D01*
X116339733Y-101400124D01*
X116339734Y-101400126D01*
X116339735Y-101400127D01*
X116344800Y-101407708D01*
X116365680Y-101474383D01*
X116365700Y-101476600D01*
X116365700Y-103831598D01*
X116346015Y-103898637D01*
X116344804Y-103900486D01*
X116339734Y-103908072D01*
X116290699Y-104026455D01*
X116290697Y-104026461D01*
X116265700Y-104152128D01*
X116265700Y-104152131D01*
X116265700Y-104280269D01*
X116265700Y-104280271D01*
X116265699Y-104280271D01*
X116290697Y-104405938D01*
X116290699Y-104405944D01*
X116339733Y-104524324D01*
X116339738Y-104524333D01*
X116410923Y-104630868D01*
X116410926Y-104630872D01*
X116501527Y-104721473D01*
X116501531Y-104721476D01*
X116608066Y-104792661D01*
X116608072Y-104792664D01*
X116608073Y-104792665D01*
X116726456Y-104841701D01*
X116726460Y-104841701D01*
X116726461Y-104841702D01*
X116852128Y-104866700D01*
X116852131Y-104866700D01*
X116980271Y-104866700D01*
X117064815Y-104849882D01*
X117105944Y-104841701D01*
X117224327Y-104792665D01*
X117330869Y-104721476D01*
X117421476Y-104630869D01*
X117492665Y-104524327D01*
X117541701Y-104405944D01*
X117566700Y-104280269D01*
X117566700Y-104152131D01*
X117566700Y-104152128D01*
X117541702Y-104026461D01*
X117541701Y-104026460D01*
X117541701Y-104026456D01*
X117492665Y-103908073D01*
X117492665Y-103908072D01*
X117487596Y-103900486D01*
X117466720Y-103833808D01*
X117466700Y-103831598D01*
X117466700Y-103416671D01*
X167599099Y-103416671D01*
X167624097Y-103542338D01*
X167624099Y-103542344D01*
X167673133Y-103660724D01*
X167673135Y-103660727D01*
X167703602Y-103706324D01*
X167724480Y-103773000D01*
X167724500Y-103775215D01*
X167724500Y-107311398D01*
X167704815Y-107378437D01*
X167703604Y-107380286D01*
X167698534Y-107387872D01*
X167649499Y-107506255D01*
X167649497Y-107506261D01*
X167624500Y-107631928D01*
X167624500Y-107631931D01*
X167624500Y-107760069D01*
X167624500Y-107760071D01*
X167624499Y-107760071D01*
X167649497Y-107885738D01*
X167649499Y-107885744D01*
X167698533Y-108004124D01*
X167698538Y-108004133D01*
X167769723Y-108110668D01*
X167769726Y-108110672D01*
X167860327Y-108201273D01*
X167860331Y-108201276D01*
X167966866Y-108272461D01*
X167966872Y-108272464D01*
X167966873Y-108272465D01*
X168085256Y-108321501D01*
X168085260Y-108321501D01*
X168085261Y-108321502D01*
X168210928Y-108346500D01*
X168210931Y-108346500D01*
X168339071Y-108346500D01*
X168423615Y-108329682D01*
X168464744Y-108321501D01*
X168583127Y-108272465D01*
X168689669Y-108201276D01*
X168780276Y-108110669D01*
X168851465Y-108004127D01*
X168900501Y-107885744D01*
X168925500Y-107760069D01*
X168925500Y-107631931D01*
X168925500Y-107631928D01*
X168900502Y-107506261D01*
X168900501Y-107506260D01*
X168900501Y-107506256D01*
X168851465Y-107387873D01*
X168841349Y-107372733D01*
X168837454Y-107364517D01*
X168833352Y-107338624D01*
X168825520Y-107313608D01*
X168825500Y-107311398D01*
X168825500Y-106240155D01*
X173990800Y-106240155D01*
X173990800Y-106938000D01*
X175015522Y-106938000D01*
X174971467Y-107014306D01*
X174940800Y-107128756D01*
X174940800Y-107247244D01*
X174971467Y-107361694D01*
X175015522Y-107438000D01*
X173990800Y-107438000D01*
X173990800Y-108135844D01*
X173997201Y-108195372D01*
X173997203Y-108195379D01*
X174047445Y-108330086D01*
X174047449Y-108330093D01*
X174133609Y-108445187D01*
X174133612Y-108445190D01*
X174248706Y-108531350D01*
X174248713Y-108531354D01*
X174383420Y-108581596D01*
X174383427Y-108581598D01*
X174442955Y-108587999D01*
X174442972Y-108588000D01*
X175140800Y-108588000D01*
X175140800Y-107563277D01*
X175217106Y-107607333D01*
X175331556Y-107638000D01*
X175450044Y-107638000D01*
X175564494Y-107607333D01*
X175640800Y-107563277D01*
X175640800Y-108588000D01*
X176338628Y-108588000D01*
X176338644Y-108587999D01*
X176398172Y-108581598D01*
X176398179Y-108581596D01*
X176532886Y-108531354D01*
X176532893Y-108531350D01*
X176647987Y-108445190D01*
X176647990Y-108445187D01*
X176734150Y-108330093D01*
X176734154Y-108330086D01*
X176784396Y-108195379D01*
X176784398Y-108195372D01*
X176790799Y-108135844D01*
X176790800Y-108135827D01*
X176790800Y-108085125D01*
X176810485Y-108018086D01*
X176863289Y-107972331D01*
X176932447Y-107962387D01*
X176996003Y-107991412D01*
X177002481Y-107997444D01*
X177108727Y-108103690D01*
X177261601Y-108214760D01*
X177341147Y-108255290D01*
X177429963Y-108300545D01*
X177429965Y-108300545D01*
X177429968Y-108300547D01*
X177520879Y-108330086D01*
X177609681Y-108358940D01*
X177796314Y-108388500D01*
X177796319Y-108388500D01*
X177985286Y-108388500D01*
X178171918Y-108358940D01*
X178210204Y-108346500D01*
X178351632Y-108300547D01*
X178519999Y-108214760D01*
X178672873Y-108103690D01*
X178806490Y-107970073D01*
X178917560Y-107817199D01*
X179003347Y-107648832D01*
X179022869Y-107588748D01*
X179062307Y-107531073D01*
X179126665Y-107503875D01*
X179195512Y-107515790D01*
X179246987Y-107563034D01*
X179258730Y-107588746D01*
X179278253Y-107648832D01*
X179364040Y-107817199D01*
X179475110Y-107970073D01*
X179608727Y-108103690D01*
X179761601Y-108214760D01*
X179841147Y-108255290D01*
X179929963Y-108300545D01*
X179929965Y-108300545D01*
X179929968Y-108300547D01*
X180020879Y-108330086D01*
X180109681Y-108358940D01*
X180296314Y-108388500D01*
X180296319Y-108388500D01*
X180485286Y-108388500D01*
X180671918Y-108358940D01*
X180710204Y-108346500D01*
X180851632Y-108300547D01*
X181019999Y-108214760D01*
X181172873Y-108103690D01*
X181306490Y-107970073D01*
X181417560Y-107817199D01*
X181503347Y-107648832D01*
X181561740Y-107469118D01*
X181562502Y-107464306D01*
X181591300Y-107282486D01*
X181591300Y-107093513D01*
X181561740Y-106906881D01*
X181508899Y-106744255D01*
X181503347Y-106727168D01*
X181503345Y-106727165D01*
X181503345Y-106727163D01*
X181417559Y-106558800D01*
X181388880Y-106519327D01*
X181306490Y-106405927D01*
X181172873Y-106272310D01*
X181019999Y-106161240D01*
X180851636Y-106075454D01*
X180671918Y-106017059D01*
X180485286Y-105987500D01*
X180485281Y-105987500D01*
X180296319Y-105987500D01*
X180296314Y-105987500D01*
X180109681Y-106017059D01*
X179929963Y-106075454D01*
X179761600Y-106161240D01*
X179734917Y-106180627D01*
X179608727Y-106272310D01*
X179608725Y-106272312D01*
X179608724Y-106272312D01*
X179475112Y-106405924D01*
X179475112Y-106405925D01*
X179475110Y-106405927D01*
X179427410Y-106471579D01*
X179364040Y-106558800D01*
X179278254Y-106727163D01*
X179258731Y-106787251D01*
X179219293Y-106844926D01*
X179154934Y-106872124D01*
X179086088Y-106860209D01*
X179034612Y-106812965D01*
X179022869Y-106787251D01*
X179008899Y-106744255D01*
X179003347Y-106727168D01*
X179003345Y-106727165D01*
X179003345Y-106727163D01*
X178917559Y-106558800D01*
X178888880Y-106519327D01*
X178806490Y-106405927D01*
X178672873Y-106272310D01*
X178519999Y-106161240D01*
X178351636Y-106075454D01*
X178171918Y-106017059D01*
X177985286Y-105987500D01*
X177985281Y-105987500D01*
X177796319Y-105987500D01*
X177796314Y-105987500D01*
X177609681Y-106017059D01*
X177429963Y-106075454D01*
X177261600Y-106161240D01*
X177234917Y-106180627D01*
X177108727Y-106272310D01*
X177108725Y-106272312D01*
X177108724Y-106272312D01*
X177002481Y-106378556D01*
X176941158Y-106412041D01*
X176871466Y-106407057D01*
X176815533Y-106365185D01*
X176791116Y-106299721D01*
X176790800Y-106290875D01*
X176790800Y-106240172D01*
X176790799Y-106240155D01*
X176784398Y-106180627D01*
X176784396Y-106180620D01*
X176734154Y-106045913D01*
X176734150Y-106045906D01*
X176647990Y-105930812D01*
X176647987Y-105930809D01*
X176532893Y-105844649D01*
X176532886Y-105844645D01*
X176398179Y-105794403D01*
X176398172Y-105794401D01*
X176338644Y-105788000D01*
X175640800Y-105788000D01*
X175640800Y-106812722D01*
X175564494Y-106768667D01*
X175450044Y-106738000D01*
X175331556Y-106738000D01*
X175217106Y-106768667D01*
X175140800Y-106812722D01*
X175140800Y-105788000D01*
X174442955Y-105788000D01*
X174383427Y-105794401D01*
X174383420Y-105794403D01*
X174248713Y-105844645D01*
X174248706Y-105844649D01*
X174133612Y-105930809D01*
X174133609Y-105930812D01*
X174047449Y-106045906D01*
X174047445Y-106045913D01*
X173997203Y-106180620D01*
X173997201Y-106180627D01*
X173990800Y-106240155D01*
X168825500Y-106240155D01*
X168825500Y-103686756D01*
X168834939Y-103639303D01*
X168875101Y-103542344D01*
X168900100Y-103416669D01*
X168900100Y-103288531D01*
X168900100Y-103288528D01*
X168875102Y-103162861D01*
X168875101Y-103162860D01*
X168875101Y-103162856D01*
X168826065Y-103044473D01*
X168826064Y-103044472D01*
X168826061Y-103044466D01*
X168754876Y-102937931D01*
X168754873Y-102937927D01*
X168664272Y-102847326D01*
X168664268Y-102847323D01*
X168557733Y-102776138D01*
X168557724Y-102776133D01*
X168439344Y-102727099D01*
X168439338Y-102727097D01*
X168313671Y-102702100D01*
X168313669Y-102702100D01*
X168185531Y-102702100D01*
X168185529Y-102702100D01*
X168059861Y-102727097D01*
X168059855Y-102727099D01*
X167941475Y-102776133D01*
X167941466Y-102776138D01*
X167834931Y-102847323D01*
X167834927Y-102847326D01*
X167744326Y-102937927D01*
X167744323Y-102937931D01*
X167673138Y-103044466D01*
X167673133Y-103044475D01*
X167624099Y-103162855D01*
X167624097Y-103162861D01*
X167599100Y-103288528D01*
X167599100Y-103288531D01*
X167599100Y-103416669D01*
X167599100Y-103416671D01*
X167599099Y-103416671D01*
X117466700Y-103416671D01*
X117466700Y-101476600D01*
X117475235Y-101431391D01*
X117480131Y-101418883D01*
X117486020Y-101410071D01*
X123047499Y-101410071D01*
X123072497Y-101535738D01*
X123072499Y-101535744D01*
X123121533Y-101654124D01*
X123121538Y-101654133D01*
X123192723Y-101760668D01*
X123192726Y-101760672D01*
X123283327Y-101851273D01*
X123283331Y-101851276D01*
X123389866Y-101922461D01*
X123389872Y-101922464D01*
X123389873Y-101922465D01*
X123508256Y-101971501D01*
X123508260Y-101971501D01*
X123508261Y-101971502D01*
X123633928Y-101996500D01*
X123633931Y-101996500D01*
X123762071Y-101996500D01*
X123846615Y-101979682D01*
X123887744Y-101971501D01*
X124006127Y-101922465D01*
X124112669Y-101851276D01*
X124203276Y-101760669D01*
X124260597Y-101674882D01*
X124277850Y-101649062D01*
X124279134Y-101649920D01*
X124322785Y-101605480D01*
X124383185Y-101589775D01*
X126526467Y-101589775D01*
X126593506Y-101609460D01*
X126614148Y-101626094D01*
X126632602Y-101644548D01*
X126632606Y-101644551D01*
X126739141Y-101715736D01*
X126739147Y-101715739D01*
X126739148Y-101715740D01*
X126857531Y-101764776D01*
X126857535Y-101764776D01*
X126857536Y-101764777D01*
X126983203Y-101789775D01*
X126983206Y-101789775D01*
X127111346Y-101789775D01*
X127195890Y-101772957D01*
X127237019Y-101764776D01*
X127355402Y-101715740D01*
X127461944Y-101644551D01*
X127552551Y-101553944D01*
X127623740Y-101447402D01*
X127672776Y-101329019D01*
X127694136Y-101221639D01*
X127697775Y-101203346D01*
X127697775Y-101075203D01*
X127672777Y-100949536D01*
X127672776Y-100949535D01*
X127672776Y-100949531D01*
X127623740Y-100831148D01*
X127623739Y-100831147D01*
X127623736Y-100831141D01*
X127552551Y-100724606D01*
X127552548Y-100724602D01*
X127461947Y-100634001D01*
X127461943Y-100633998D01*
X127355408Y-100562813D01*
X127355399Y-100562808D01*
X127237019Y-100513774D01*
X127237013Y-100513772D01*
X127111346Y-100488775D01*
X127111344Y-100488775D01*
X126983206Y-100488775D01*
X126983204Y-100488775D01*
X126857536Y-100513772D01*
X126857530Y-100513774D01*
X126739150Y-100562808D01*
X126739141Y-100562813D01*
X126632606Y-100633998D01*
X126632602Y-100634001D01*
X126614148Y-100652456D01*
X126552825Y-100685941D01*
X126526467Y-100688775D01*
X123845413Y-100688775D01*
X123823423Y-100694667D01*
X123767149Y-100696510D01*
X123762070Y-100695500D01*
X123762069Y-100695500D01*
X123633931Y-100695500D01*
X123633929Y-100695500D01*
X123508261Y-100720497D01*
X123508255Y-100720499D01*
X123389875Y-100769533D01*
X123389866Y-100769538D01*
X123283331Y-100840723D01*
X123283327Y-100840726D01*
X123192726Y-100931327D01*
X123192723Y-100931331D01*
X123121538Y-101037866D01*
X123121533Y-101037875D01*
X123072499Y-101156255D01*
X123072497Y-101156261D01*
X123047500Y-101281928D01*
X123047500Y-101281931D01*
X123047500Y-101410069D01*
X123047500Y-101410071D01*
X123047499Y-101410071D01*
X117486020Y-101410071D01*
X117492665Y-101400127D01*
X117541701Y-101281744D01*
X117566700Y-101156069D01*
X117566700Y-101027931D01*
X117566700Y-101027928D01*
X117541702Y-100902261D01*
X117541701Y-100902260D01*
X117541701Y-100902256D01*
X117492665Y-100783873D01*
X117492664Y-100783872D01*
X117492661Y-100783866D01*
X117421476Y-100677331D01*
X117421473Y-100677327D01*
X117330872Y-100586726D01*
X117330868Y-100586723D01*
X117224333Y-100515538D01*
X117224324Y-100515533D01*
X117105944Y-100466499D01*
X117105938Y-100466497D01*
X116980271Y-100441500D01*
X116980269Y-100441500D01*
X116852131Y-100441500D01*
X116852129Y-100441500D01*
X116726461Y-100466497D01*
X116726455Y-100466499D01*
X116608075Y-100515533D01*
X116608066Y-100515538D01*
X116501531Y-100586723D01*
X116501527Y-100586726D01*
X116410926Y-100677327D01*
X116410923Y-100677331D01*
X116339738Y-100783866D01*
X116339733Y-100783875D01*
X116290699Y-100902255D01*
X116290697Y-100902261D01*
X116265700Y-101027928D01*
X116265700Y-101027931D01*
X116265700Y-101156069D01*
X116265700Y-101156071D01*
X116265699Y-101156071D01*
X100000500Y-101156071D01*
X100000500Y-100140071D01*
X135239499Y-100140071D01*
X135264497Y-100265738D01*
X135264499Y-100265744D01*
X135313533Y-100384124D01*
X135313534Y-100384126D01*
X135313535Y-100384127D01*
X135318600Y-100391708D01*
X135339480Y-100458383D01*
X135339500Y-100460600D01*
X135339500Y-102231398D01*
X135319815Y-102298437D01*
X135318604Y-102300286D01*
X135313534Y-102307872D01*
X135264499Y-102426255D01*
X135264497Y-102426261D01*
X135239500Y-102551928D01*
X135239500Y-102551931D01*
X135239500Y-102680069D01*
X135239500Y-102680071D01*
X135239499Y-102680071D01*
X135264497Y-102805738D01*
X135264499Y-102805744D01*
X135313533Y-102924124D01*
X135313538Y-102924133D01*
X135384723Y-103030668D01*
X135384726Y-103030672D01*
X135475327Y-103121273D01*
X135475331Y-103121276D01*
X135581866Y-103192461D01*
X135581875Y-103192466D01*
X135608692Y-103203574D01*
X135700256Y-103241501D01*
X135700260Y-103241501D01*
X135700261Y-103241502D01*
X135825928Y-103266500D01*
X135825931Y-103266500D01*
X135954071Y-103266500D01*
X136038615Y-103249682D01*
X136079744Y-103241501D01*
X136198127Y-103192465D01*
X136304669Y-103121276D01*
X136395276Y-103030669D01*
X136466465Y-102924127D01*
X136515501Y-102805744D01*
X136540500Y-102680069D01*
X136540500Y-102551931D01*
X136540500Y-102551928D01*
X136515502Y-102426261D01*
X136515501Y-102426260D01*
X136515501Y-102426256D01*
X136466465Y-102307873D01*
X136466465Y-102307872D01*
X136461396Y-102300286D01*
X136440520Y-102233608D01*
X136440500Y-102231398D01*
X136440500Y-101029071D01*
X163001699Y-101029071D01*
X163026697Y-101154738D01*
X163026699Y-101154744D01*
X163075733Y-101273124D01*
X163075738Y-101273133D01*
X163146923Y-101379668D01*
X163146925Y-101379671D01*
X163165379Y-101398124D01*
X163198866Y-101459446D01*
X163201700Y-101485807D01*
X163201700Y-102236967D01*
X163182015Y-102304006D01*
X163173559Y-102315625D01*
X163172325Y-102317128D01*
X163101138Y-102423666D01*
X163101133Y-102423675D01*
X163052099Y-102542055D01*
X163052097Y-102542061D01*
X163027100Y-102667728D01*
X163027100Y-102667731D01*
X163027100Y-102795869D01*
X163027100Y-102795871D01*
X163027099Y-102795871D01*
X163052097Y-102921538D01*
X163052099Y-102921544D01*
X163101133Y-103039924D01*
X163101138Y-103039933D01*
X163172323Y-103146468D01*
X163172326Y-103146472D01*
X163262927Y-103237073D01*
X163262931Y-103237076D01*
X163369466Y-103308261D01*
X163369472Y-103308264D01*
X163369473Y-103308265D01*
X163487856Y-103357301D01*
X163487860Y-103357301D01*
X163487861Y-103357302D01*
X163613528Y-103382300D01*
X163613531Y-103382300D01*
X163741671Y-103382300D01*
X163826215Y-103365482D01*
X163867344Y-103357301D01*
X163985727Y-103308265D01*
X164092269Y-103237076D01*
X164092272Y-103237073D01*
X164134588Y-103194758D01*
X164182873Y-103146472D01*
X164182876Y-103146469D01*
X164254065Y-103039927D01*
X164303101Y-102921544D01*
X164328100Y-102795869D01*
X164328100Y-102667731D01*
X164328100Y-102667728D01*
X164303102Y-102542061D01*
X164303101Y-102542060D01*
X164303101Y-102542056D01*
X164254065Y-102423673D01*
X164254064Y-102423672D01*
X164254061Y-102423666D01*
X164182876Y-102317131D01*
X164182873Y-102317127D01*
X164139019Y-102273273D01*
X164105534Y-102211950D01*
X164102700Y-102185592D01*
X164102700Y-101485807D01*
X164122385Y-101418768D01*
X164139021Y-101398124D01*
X164157474Y-101379671D01*
X164157476Y-101379669D01*
X164228665Y-101273127D01*
X164277701Y-101154744D01*
X164298654Y-101049409D01*
X164302700Y-101029071D01*
X164302700Y-100900928D01*
X164277702Y-100775261D01*
X164277701Y-100775260D01*
X164277701Y-100775256D01*
X164228665Y-100656873D01*
X164228664Y-100656872D01*
X164228661Y-100656866D01*
X164157476Y-100550331D01*
X164157473Y-100550327D01*
X164066872Y-100459726D01*
X164066868Y-100459723D01*
X163960333Y-100388538D01*
X163960324Y-100388533D01*
X163841944Y-100339499D01*
X163841938Y-100339497D01*
X163716271Y-100314500D01*
X163716269Y-100314500D01*
X163588131Y-100314500D01*
X163588129Y-100314500D01*
X163462461Y-100339497D01*
X163462455Y-100339499D01*
X163344075Y-100388533D01*
X163344066Y-100388538D01*
X163237531Y-100459723D01*
X163237527Y-100459726D01*
X163146926Y-100550327D01*
X163146923Y-100550331D01*
X163075738Y-100656866D01*
X163075733Y-100656875D01*
X163026699Y-100775255D01*
X163026697Y-100775261D01*
X163001700Y-100900928D01*
X163001700Y-100900931D01*
X163001700Y-101029069D01*
X163001700Y-101029071D01*
X163001699Y-101029071D01*
X136440500Y-101029071D01*
X136440500Y-100460600D01*
X136460185Y-100393561D01*
X136461359Y-100391768D01*
X136466465Y-100384127D01*
X136515501Y-100265744D01*
X136533153Y-100177004D01*
X136540500Y-100140071D01*
X136540500Y-100011928D01*
X136519378Y-99905746D01*
X136519378Y-99905745D01*
X136515502Y-99886263D01*
X136515502Y-99886261D01*
X136515501Y-99886256D01*
X136515035Y-99885131D01*
X167189500Y-99885131D01*
X167189500Y-101674856D01*
X167189502Y-101674882D01*
X167192413Y-101699987D01*
X167192415Y-101699991D01*
X167237793Y-101802764D01*
X167237794Y-101802765D01*
X167317235Y-101882206D01*
X167420009Y-101927585D01*
X167445135Y-101930500D01*
X169234864Y-101930499D01*
X169234879Y-101930497D01*
X169234882Y-101930497D01*
X169259987Y-101927586D01*
X169259988Y-101927585D01*
X169259991Y-101927585D01*
X169362765Y-101882206D01*
X169442206Y-101802765D01*
X169487585Y-101699991D01*
X169490500Y-101674865D01*
X169490499Y-100937125D01*
X169510183Y-100870089D01*
X169562987Y-100824334D01*
X169632146Y-100814390D01*
X169695702Y-100843415D01*
X169733476Y-100902193D01*
X169736972Y-100917729D01*
X169757829Y-101049410D01*
X169813787Y-101221636D01*
X169813788Y-101221639D01*
X169868499Y-101329013D01*
X169894309Y-101379668D01*
X169896006Y-101382997D01*
X170002441Y-101529494D01*
X170002445Y-101529499D01*
X170130500Y-101657554D01*
X170130505Y-101657558D01*
X170210581Y-101715736D01*
X170277006Y-101763996D01*
X170353094Y-101802765D01*
X170438360Y-101846211D01*
X170438363Y-101846212D01*
X170524476Y-101874191D01*
X170610591Y-101902171D01*
X170693429Y-101915291D01*
X170789449Y-101930500D01*
X170789454Y-101930500D01*
X170970551Y-101930500D01*
X171057259Y-101916765D01*
X171149409Y-101902171D01*
X171321639Y-101846211D01*
X171482994Y-101763996D01*
X171605669Y-101674868D01*
X171629495Y-101657558D01*
X171629497Y-101657555D01*
X171629501Y-101657553D01*
X171757553Y-101529501D01*
X171863996Y-101382994D01*
X171931090Y-101251314D01*
X171979065Y-101200519D01*
X172046886Y-101183724D01*
X172113021Y-101206262D01*
X172156472Y-101260977D01*
X172159506Y-101269292D01*
X172168904Y-101298217D01*
X172265375Y-101487550D01*
X172304728Y-101541716D01*
X172937037Y-100909408D01*
X172954075Y-100972993D01*
X173019901Y-101087007D01*
X173112993Y-101180099D01*
X173227007Y-101245925D01*
X173290590Y-101262962D01*
X172658282Y-101895269D01*
X172658282Y-101895270D01*
X172712449Y-101934624D01*
X172901782Y-102031095D01*
X173103870Y-102096757D01*
X173313754Y-102130000D01*
X173526246Y-102130000D01*
X173736127Y-102096757D01*
X173736130Y-102096757D01*
X173938217Y-102031095D01*
X174127554Y-101934622D01*
X174181716Y-101895270D01*
X174181717Y-101895270D01*
X173549408Y-101262962D01*
X173612993Y-101245925D01*
X173727007Y-101180099D01*
X173820099Y-101087007D01*
X173885925Y-100972993D01*
X173902962Y-100909408D01*
X174535270Y-101541717D01*
X174535270Y-101541716D01*
X174574622Y-101487554D01*
X174671095Y-101298217D01*
X174680492Y-101269295D01*
X174719928Y-101211618D01*
X174784286Y-101184419D01*
X174853133Y-101196331D01*
X174904610Y-101243574D01*
X174908908Y-101251314D01*
X174976004Y-101382995D01*
X175082441Y-101529494D01*
X175082445Y-101529499D01*
X175210500Y-101657554D01*
X175210505Y-101657558D01*
X175290581Y-101715736D01*
X175357006Y-101763996D01*
X175433094Y-101802765D01*
X175518360Y-101846211D01*
X175518363Y-101846212D01*
X175604476Y-101874191D01*
X175690591Y-101902171D01*
X175773429Y-101915291D01*
X175869449Y-101930500D01*
X175869454Y-101930500D01*
X176050551Y-101930500D01*
X176137259Y-101916765D01*
X176229409Y-101902171D01*
X176401639Y-101846211D01*
X176562994Y-101763996D01*
X176709501Y-101657553D01*
X176837553Y-101529501D01*
X176943996Y-101382994D01*
X177026211Y-101221639D01*
X177082171Y-101049409D01*
X177097990Y-100949530D01*
X177107527Y-100889321D01*
X177137456Y-100826186D01*
X177196768Y-100789255D01*
X177266630Y-100790253D01*
X177324863Y-100828863D01*
X177352473Y-100889321D01*
X177377829Y-101049410D01*
X177433787Y-101221636D01*
X177433788Y-101221639D01*
X177488499Y-101329013D01*
X177514309Y-101379668D01*
X177516006Y-101382997D01*
X177622441Y-101529494D01*
X177622445Y-101529499D01*
X177750500Y-101657554D01*
X177750505Y-101657558D01*
X177830581Y-101715736D01*
X177897006Y-101763996D01*
X177973094Y-101802765D01*
X178058360Y-101846211D01*
X178058363Y-101846212D01*
X178144476Y-101874191D01*
X178230591Y-101902171D01*
X178313429Y-101915291D01*
X178409449Y-101930500D01*
X178409454Y-101930500D01*
X178590551Y-101930500D01*
X178677259Y-101916765D01*
X178769409Y-101902171D01*
X178941639Y-101846211D01*
X179102994Y-101763996D01*
X179249501Y-101657553D01*
X179377553Y-101529501D01*
X179483996Y-101382994D01*
X179566211Y-101221639D01*
X179622171Y-101049409D01*
X179637990Y-100949530D01*
X179647527Y-100889321D01*
X179677456Y-100826186D01*
X179736768Y-100789255D01*
X179806630Y-100790253D01*
X179864863Y-100828863D01*
X179892473Y-100889321D01*
X179917829Y-101049410D01*
X179973787Y-101221636D01*
X179973788Y-101221639D01*
X180028499Y-101329013D01*
X180054309Y-101379668D01*
X180056006Y-101382997D01*
X180162441Y-101529494D01*
X180162445Y-101529499D01*
X180290500Y-101657554D01*
X180290505Y-101657558D01*
X180370581Y-101715736D01*
X180437006Y-101763996D01*
X180513094Y-101802765D01*
X180598360Y-101846211D01*
X180598363Y-101846212D01*
X180684476Y-101874191D01*
X180770591Y-101902171D01*
X180853429Y-101915291D01*
X180949449Y-101930500D01*
X180949454Y-101930500D01*
X181130551Y-101930500D01*
X181217259Y-101916765D01*
X181309409Y-101902171D01*
X181481639Y-101846211D01*
X181642994Y-101763996D01*
X181789501Y-101657553D01*
X181917553Y-101529501D01*
X182023996Y-101382994D01*
X182106211Y-101221639D01*
X182162171Y-101049409D01*
X182177990Y-100949530D01*
X182190500Y-100870551D01*
X182190500Y-100689448D01*
X182170442Y-100562813D01*
X182162171Y-100510591D01*
X182118530Y-100376275D01*
X182106212Y-100338363D01*
X182106211Y-100338360D01*
X182076474Y-100280000D01*
X182023996Y-100177006D01*
X181997160Y-100140069D01*
X181917558Y-100030505D01*
X181917554Y-100030500D01*
X181789499Y-99902445D01*
X181789494Y-99902441D01*
X181642997Y-99796006D01*
X181642996Y-99796005D01*
X181642994Y-99796004D01*
X181566906Y-99757235D01*
X181481639Y-99713788D01*
X181481636Y-99713787D01*
X181309410Y-99657829D01*
X181130551Y-99629500D01*
X181130546Y-99629500D01*
X180949454Y-99629500D01*
X180949449Y-99629500D01*
X180770589Y-99657829D01*
X180598363Y-99713787D01*
X180598360Y-99713788D01*
X180437002Y-99796006D01*
X180290505Y-99902441D01*
X180290500Y-99902445D01*
X180162445Y-100030500D01*
X180162441Y-100030505D01*
X180056006Y-100177002D01*
X179973788Y-100338360D01*
X179973787Y-100338363D01*
X179917829Y-100510589D01*
X179892473Y-100670678D01*
X179862544Y-100733813D01*
X179803232Y-100770744D01*
X179733369Y-100769746D01*
X179675137Y-100731136D01*
X179647527Y-100670678D01*
X179630442Y-100562813D01*
X179622171Y-100510591D01*
X179578530Y-100376275D01*
X179566212Y-100338363D01*
X179566211Y-100338360D01*
X179536474Y-100280000D01*
X179483996Y-100177006D01*
X179457160Y-100140069D01*
X179377558Y-100030505D01*
X179377554Y-100030500D01*
X179249499Y-99902445D01*
X179249494Y-99902441D01*
X179102997Y-99796006D01*
X179102996Y-99796005D01*
X179102994Y-99796004D01*
X179026906Y-99757235D01*
X178941639Y-99713788D01*
X178941636Y-99713787D01*
X178769410Y-99657829D01*
X178590551Y-99629500D01*
X178590546Y-99629500D01*
X178409454Y-99629500D01*
X178409449Y-99629500D01*
X178230589Y-99657829D01*
X178058363Y-99713787D01*
X178058360Y-99713788D01*
X177897002Y-99796006D01*
X177750505Y-99902441D01*
X177750500Y-99902445D01*
X177622445Y-100030500D01*
X177622441Y-100030505D01*
X177516006Y-100177002D01*
X177433788Y-100338360D01*
X177433787Y-100338363D01*
X177377829Y-100510589D01*
X177352473Y-100670678D01*
X177322544Y-100733813D01*
X177263232Y-100770744D01*
X177193369Y-100769746D01*
X177135137Y-100731136D01*
X177107527Y-100670678D01*
X177090442Y-100562813D01*
X177082171Y-100510591D01*
X177038530Y-100376275D01*
X177026212Y-100338363D01*
X177026211Y-100338360D01*
X176996474Y-100280000D01*
X176943996Y-100177006D01*
X176917160Y-100140069D01*
X176837558Y-100030505D01*
X176837554Y-100030500D01*
X176709499Y-99902445D01*
X176709494Y-99902441D01*
X176562997Y-99796006D01*
X176562996Y-99796005D01*
X176562994Y-99796004D01*
X176486906Y-99757235D01*
X176401639Y-99713788D01*
X176401636Y-99713787D01*
X176229410Y-99657829D01*
X176050551Y-99629500D01*
X176050546Y-99629500D01*
X175869454Y-99629500D01*
X175869449Y-99629500D01*
X175690589Y-99657829D01*
X175518363Y-99713787D01*
X175518360Y-99713788D01*
X175357002Y-99796006D01*
X175210505Y-99902441D01*
X175210500Y-99902445D01*
X175082445Y-100030500D01*
X175082441Y-100030505D01*
X174976004Y-100177004D01*
X174908908Y-100308685D01*
X174860933Y-100359480D01*
X174793112Y-100376275D01*
X174726977Y-100353737D01*
X174683527Y-100299021D01*
X174680492Y-100290705D01*
X174671094Y-100261780D01*
X174574624Y-100072449D01*
X174535270Y-100018282D01*
X174535269Y-100018282D01*
X173902962Y-100650590D01*
X173885925Y-100587007D01*
X173820099Y-100472993D01*
X173727007Y-100379901D01*
X173612993Y-100314075D01*
X173549409Y-100297037D01*
X174181716Y-99664728D01*
X174127550Y-99625375D01*
X173938217Y-99528904D01*
X173736129Y-99463242D01*
X173526246Y-99430000D01*
X173313754Y-99430000D01*
X173103872Y-99463242D01*
X173103869Y-99463242D01*
X172901782Y-99528904D01*
X172712439Y-99625380D01*
X172658282Y-99664727D01*
X172658282Y-99664728D01*
X173290591Y-100297037D01*
X173227007Y-100314075D01*
X173112993Y-100379901D01*
X173019901Y-100472993D01*
X172954075Y-100587007D01*
X172937037Y-100650591D01*
X172304728Y-100018282D01*
X172304727Y-100018282D01*
X172265380Y-100072439D01*
X172168905Y-100261781D01*
X172159506Y-100290708D01*
X172120068Y-100348383D01*
X172055709Y-100375581D01*
X171986862Y-100363666D01*
X171935387Y-100316421D01*
X171931090Y-100308684D01*
X171915853Y-100278780D01*
X171863996Y-100177006D01*
X171837160Y-100140069D01*
X171757558Y-100030505D01*
X171757554Y-100030500D01*
X171629499Y-99902445D01*
X171629494Y-99902441D01*
X171505432Y-99812305D01*
X171482996Y-99796005D01*
X171321639Y-99713788D01*
X171321636Y-99713787D01*
X171149410Y-99657829D01*
X170970551Y-99629500D01*
X170970546Y-99629500D01*
X170789454Y-99629500D01*
X170789449Y-99629500D01*
X170610589Y-99657829D01*
X170438363Y-99713787D01*
X170438360Y-99713788D01*
X170277002Y-99796006D01*
X170130505Y-99902441D01*
X170130500Y-99902445D01*
X170002445Y-100030500D01*
X170002441Y-100030505D01*
X169896006Y-100177002D01*
X169813788Y-100338360D01*
X169813787Y-100338363D01*
X169757829Y-100510589D01*
X169736972Y-100642271D01*
X169707042Y-100705405D01*
X169647731Y-100742336D01*
X169577868Y-100741338D01*
X169519636Y-100702728D01*
X169491522Y-100638764D01*
X169490499Y-100622872D01*
X169490499Y-99885143D01*
X169490499Y-99885136D01*
X169490497Y-99885117D01*
X169487586Y-99860012D01*
X169487585Y-99860010D01*
X169487585Y-99860009D01*
X169442206Y-99757235D01*
X169362765Y-99677794D01*
X169362763Y-99677793D01*
X169259992Y-99632415D01*
X169234865Y-99629500D01*
X167445143Y-99629500D01*
X167445117Y-99629502D01*
X167420012Y-99632413D01*
X167420008Y-99632415D01*
X167317235Y-99677793D01*
X167237794Y-99757234D01*
X167192415Y-99860006D01*
X167192415Y-99860008D01*
X167189500Y-99885131D01*
X136515035Y-99885131D01*
X136466465Y-99767873D01*
X136466464Y-99767872D01*
X136466461Y-99767866D01*
X136395276Y-99661331D01*
X136395273Y-99661327D01*
X136304672Y-99570726D01*
X136304668Y-99570723D01*
X136198133Y-99499538D01*
X136198124Y-99499533D01*
X136079744Y-99450499D01*
X136079738Y-99450497D01*
X135954071Y-99425500D01*
X135954069Y-99425500D01*
X135825931Y-99425500D01*
X135825929Y-99425500D01*
X135700261Y-99450497D01*
X135700255Y-99450499D01*
X135581875Y-99499533D01*
X135581866Y-99499538D01*
X135475331Y-99570723D01*
X135475327Y-99570726D01*
X135384726Y-99661327D01*
X135384723Y-99661331D01*
X135313538Y-99767866D01*
X135313533Y-99767875D01*
X135264499Y-99886255D01*
X135264497Y-99886261D01*
X135239500Y-100011928D01*
X135239500Y-100011931D01*
X135239500Y-100140069D01*
X135239500Y-100140071D01*
X135239499Y-100140071D01*
X100000500Y-100140071D01*
X100000500Y-98870071D01*
X122793499Y-98870071D01*
X122818497Y-98995738D01*
X122818499Y-98995744D01*
X122867533Y-99114124D01*
X122867538Y-99114133D01*
X122938723Y-99220668D01*
X122938726Y-99220672D01*
X123029327Y-99311273D01*
X123029331Y-99311276D01*
X123135866Y-99382461D01*
X123135872Y-99382464D01*
X123135873Y-99382465D01*
X123254256Y-99431501D01*
X123254260Y-99431501D01*
X123254261Y-99431502D01*
X123379928Y-99456500D01*
X123379931Y-99456500D01*
X123508071Y-99456500D01*
X123592615Y-99439682D01*
X123633744Y-99431501D01*
X123752127Y-99382465D01*
X123858669Y-99311276D01*
X123858672Y-99311273D01*
X123877127Y-99292819D01*
X123938450Y-99259334D01*
X123964808Y-99256500D01*
X124955192Y-99256500D01*
X125022231Y-99276185D01*
X125042873Y-99292819D01*
X125061327Y-99311273D01*
X125061331Y-99311276D01*
X125167866Y-99382461D01*
X125167872Y-99382464D01*
X125167873Y-99382465D01*
X125286256Y-99431501D01*
X125286260Y-99431501D01*
X125286261Y-99431502D01*
X125411928Y-99456500D01*
X125411931Y-99456500D01*
X125540071Y-99456500D01*
X125624615Y-99439682D01*
X125665744Y-99431501D01*
X125784127Y-99382465D01*
X125890669Y-99311276D01*
X125981276Y-99220669D01*
X126052465Y-99114127D01*
X126101501Y-98995744D01*
X126126500Y-98870069D01*
X126126500Y-98741931D01*
X126126500Y-98741928D01*
X126101502Y-98616261D01*
X126101501Y-98616260D01*
X126101501Y-98616256D01*
X126052465Y-98497873D01*
X126052464Y-98497872D01*
X126052461Y-98497866D01*
X125981276Y-98391331D01*
X125981273Y-98391327D01*
X125890672Y-98300726D01*
X125890668Y-98300723D01*
X125784133Y-98229538D01*
X125784124Y-98229533D01*
X125665744Y-98180499D01*
X125665738Y-98180497D01*
X125540071Y-98155500D01*
X125540069Y-98155500D01*
X125411931Y-98155500D01*
X125411929Y-98155500D01*
X125286261Y-98180497D01*
X125286255Y-98180499D01*
X125167875Y-98229533D01*
X125167866Y-98229538D01*
X125061331Y-98300723D01*
X125061327Y-98300726D01*
X125042873Y-98319181D01*
X124981550Y-98352666D01*
X124955192Y-98355500D01*
X123964808Y-98355500D01*
X123897769Y-98335815D01*
X123877127Y-98319181D01*
X123858672Y-98300726D01*
X123858668Y-98300723D01*
X123752133Y-98229538D01*
X123752124Y-98229533D01*
X123633744Y-98180499D01*
X123633738Y-98180497D01*
X123508071Y-98155500D01*
X123508069Y-98155500D01*
X123379931Y-98155500D01*
X123379929Y-98155500D01*
X123254261Y-98180497D01*
X123254255Y-98180499D01*
X123135875Y-98229533D01*
X123135866Y-98229538D01*
X123029331Y-98300723D01*
X123029327Y-98300726D01*
X122938726Y-98391327D01*
X122938723Y-98391331D01*
X122867538Y-98497866D01*
X122867533Y-98497875D01*
X122818499Y-98616255D01*
X122818497Y-98616261D01*
X122793500Y-98741928D01*
X122793500Y-98741931D01*
X122793500Y-98870069D01*
X122793500Y-98870071D01*
X122793499Y-98870071D01*
X100000500Y-98870071D01*
X100000500Y-94909448D01*
X105309500Y-94909448D01*
X105309500Y-95090551D01*
X105337829Y-95269410D01*
X105393787Y-95441636D01*
X105393788Y-95441639D01*
X105476006Y-95602997D01*
X105582441Y-95749494D01*
X105582445Y-95749499D01*
X105710500Y-95877554D01*
X105710505Y-95877558D01*
X105738427Y-95897844D01*
X105857006Y-95983996D01*
X105962484Y-96037740D01*
X106018360Y-96066211D01*
X106018363Y-96066212D01*
X106097997Y-96092086D01*
X106190591Y-96122171D01*
X106273429Y-96135291D01*
X106369449Y-96150500D01*
X106369454Y-96150500D01*
X106550551Y-96150500D01*
X106637259Y-96136765D01*
X106729409Y-96122171D01*
X106901639Y-96066211D01*
X107062994Y-95983996D01*
X107209501Y-95877553D01*
X107337553Y-95749501D01*
X107443996Y-95602994D01*
X107526211Y-95441639D01*
X107582171Y-95269409D01*
X107596422Y-95179425D01*
X107607527Y-95109321D01*
X107637456Y-95046186D01*
X107696768Y-95009255D01*
X107766630Y-95010253D01*
X107824863Y-95048863D01*
X107852473Y-95109321D01*
X107877829Y-95269410D01*
X107933787Y-95441636D01*
X107933788Y-95441639D01*
X108016006Y-95602997D01*
X108122441Y-95749494D01*
X108122445Y-95749499D01*
X108250500Y-95877554D01*
X108250505Y-95877558D01*
X108278427Y-95897844D01*
X108397006Y-95983996D01*
X108502484Y-96037740D01*
X108558360Y-96066211D01*
X108558363Y-96066212D01*
X108637997Y-96092086D01*
X108730591Y-96122171D01*
X108813429Y-96135291D01*
X108909449Y-96150500D01*
X108909454Y-96150500D01*
X109090551Y-96150500D01*
X109177259Y-96136765D01*
X109269409Y-96122171D01*
X109441639Y-96066211D01*
X109602994Y-95983996D01*
X109749501Y-95877553D01*
X109877553Y-95749501D01*
X109983996Y-95602994D01*
X110066211Y-95441639D01*
X110122171Y-95269409D01*
X110136422Y-95179425D01*
X110147527Y-95109321D01*
X110177456Y-95046186D01*
X110236768Y-95009255D01*
X110306630Y-95010253D01*
X110364863Y-95048863D01*
X110392473Y-95109321D01*
X110417829Y-95269410D01*
X110473787Y-95441636D01*
X110473788Y-95441639D01*
X110556006Y-95602997D01*
X110662441Y-95749494D01*
X110662445Y-95749499D01*
X110790500Y-95877554D01*
X110790505Y-95877558D01*
X110818427Y-95897844D01*
X110937006Y-95983996D01*
X111042484Y-96037740D01*
X111098360Y-96066211D01*
X111098363Y-96066212D01*
X111177997Y-96092086D01*
X111270591Y-96122171D01*
X111353429Y-96135291D01*
X111449449Y-96150500D01*
X111449454Y-96150500D01*
X111630551Y-96150500D01*
X111717259Y-96136765D01*
X111809409Y-96122171D01*
X111981639Y-96066211D01*
X112142994Y-95983996D01*
X112289501Y-95877553D01*
X112417553Y-95749501D01*
X112417555Y-95749497D01*
X112417558Y-95749495D01*
X112505682Y-95628202D01*
X112561011Y-95585536D01*
X112630625Y-95579557D01*
X112692420Y-95612162D01*
X112726777Y-95673001D01*
X112730000Y-95701087D01*
X112730000Y-95897844D01*
X112736401Y-95957372D01*
X112736403Y-95957379D01*
X112786645Y-96092086D01*
X112786649Y-96092093D01*
X112872809Y-96207187D01*
X112872812Y-96207190D01*
X112987906Y-96293350D01*
X112987913Y-96293354D01*
X113122620Y-96343596D01*
X113122627Y-96343598D01*
X113182155Y-96349999D01*
X113182172Y-96350000D01*
X113830000Y-96350000D01*
X113830000Y-95433012D01*
X113887007Y-95465925D01*
X114014174Y-95500000D01*
X114145826Y-95500000D01*
X114272993Y-95465925D01*
X114330000Y-95433012D01*
X114330000Y-96350000D01*
X114977828Y-96350000D01*
X114977844Y-96349999D01*
X115037372Y-96343598D01*
X115037379Y-96343596D01*
X115172086Y-96293354D01*
X115172093Y-96293350D01*
X115287187Y-96207190D01*
X115287190Y-96207187D01*
X115373350Y-96092093D01*
X115373354Y-96092086D01*
X115423596Y-95957379D01*
X115423598Y-95957372D01*
X115429999Y-95897844D01*
X115430000Y-95897827D01*
X115430000Y-95250000D01*
X114513012Y-95250000D01*
X114545925Y-95192993D01*
X114580000Y-95065826D01*
X114580000Y-94934174D01*
X114545925Y-94807007D01*
X114513012Y-94750000D01*
X115430000Y-94750000D01*
X115430000Y-94102172D01*
X115429999Y-94102155D01*
X115423598Y-94042627D01*
X115423596Y-94042620D01*
X115373354Y-93907913D01*
X115373350Y-93907906D01*
X115287190Y-93792812D01*
X115287187Y-93792809D01*
X115172093Y-93706649D01*
X115172086Y-93706645D01*
X115037379Y-93656403D01*
X115037372Y-93656401D01*
X114977844Y-93650000D01*
X114330000Y-93650000D01*
X114330000Y-94566988D01*
X114272993Y-94534075D01*
X114145826Y-94500000D01*
X114014174Y-94500000D01*
X113887007Y-94534075D01*
X113830000Y-94566988D01*
X113830000Y-93650000D01*
X113182155Y-93650000D01*
X113122627Y-93656401D01*
X113122620Y-93656403D01*
X112987913Y-93706645D01*
X112987906Y-93706649D01*
X112872812Y-93792809D01*
X112872809Y-93792812D01*
X112786649Y-93907906D01*
X112786645Y-93907913D01*
X112736403Y-94042620D01*
X112736401Y-94042627D01*
X112730000Y-94102155D01*
X112730000Y-94298912D01*
X112710315Y-94365951D01*
X112657511Y-94411706D01*
X112588353Y-94421650D01*
X112524797Y-94392625D01*
X112505682Y-94371797D01*
X112417558Y-94250505D01*
X112417554Y-94250500D01*
X112289499Y-94122445D01*
X112289494Y-94122441D01*
X112142997Y-94016006D01*
X112142996Y-94016005D01*
X112142994Y-94016004D01*
X112091300Y-93989664D01*
X111981639Y-93933788D01*
X111981636Y-93933787D01*
X111809410Y-93877829D01*
X111630551Y-93849500D01*
X111630546Y-93849500D01*
X111449454Y-93849500D01*
X111449449Y-93849500D01*
X111270589Y-93877829D01*
X111098363Y-93933787D01*
X111098360Y-93933788D01*
X110937002Y-94016006D01*
X110790505Y-94122441D01*
X110790500Y-94122445D01*
X110662445Y-94250500D01*
X110662441Y-94250505D01*
X110556006Y-94397002D01*
X110473788Y-94558360D01*
X110473787Y-94558363D01*
X110417829Y-94730589D01*
X110392473Y-94890678D01*
X110362544Y-94953813D01*
X110303232Y-94990744D01*
X110233369Y-94989746D01*
X110175137Y-94951136D01*
X110147527Y-94890678D01*
X110125245Y-94750000D01*
X110122171Y-94730591D01*
X110066211Y-94558361D01*
X110066211Y-94558360D01*
X110036474Y-94500000D01*
X109983996Y-94397006D01*
X109912727Y-94298912D01*
X109877558Y-94250505D01*
X109877554Y-94250500D01*
X109749499Y-94122445D01*
X109749494Y-94122441D01*
X109602997Y-94016006D01*
X109602996Y-94016005D01*
X109602994Y-94016004D01*
X109551300Y-93989664D01*
X109441639Y-93933788D01*
X109441636Y-93933787D01*
X109269410Y-93877829D01*
X109090551Y-93849500D01*
X109090546Y-93849500D01*
X108909454Y-93849500D01*
X108909449Y-93849500D01*
X108730589Y-93877829D01*
X108558363Y-93933787D01*
X108558360Y-93933788D01*
X108397002Y-94016006D01*
X108250505Y-94122441D01*
X108250500Y-94122445D01*
X108122445Y-94250500D01*
X108122441Y-94250505D01*
X108016006Y-94397002D01*
X107933788Y-94558360D01*
X107933787Y-94558363D01*
X107877829Y-94730589D01*
X107852473Y-94890678D01*
X107822544Y-94953813D01*
X107763232Y-94990744D01*
X107693369Y-94989746D01*
X107635137Y-94951136D01*
X107607527Y-94890678D01*
X107585245Y-94750000D01*
X107582171Y-94730591D01*
X107526211Y-94558361D01*
X107526211Y-94558360D01*
X107496474Y-94500000D01*
X107443996Y-94397006D01*
X107372727Y-94298912D01*
X107337558Y-94250505D01*
X107337554Y-94250500D01*
X107209499Y-94122445D01*
X107209494Y-94122441D01*
X107062997Y-94016006D01*
X107062996Y-94016005D01*
X107062994Y-94016004D01*
X107011300Y-93989664D01*
X106901639Y-93933788D01*
X106901636Y-93933787D01*
X106729410Y-93877829D01*
X106550551Y-93849500D01*
X106550546Y-93849500D01*
X106369454Y-93849500D01*
X106369449Y-93849500D01*
X106190589Y-93877829D01*
X106018363Y-93933787D01*
X106018360Y-93933788D01*
X105857002Y-94016006D01*
X105710505Y-94122441D01*
X105710500Y-94122445D01*
X105582445Y-94250500D01*
X105582441Y-94250505D01*
X105476006Y-94397002D01*
X105393788Y-94558360D01*
X105393787Y-94558363D01*
X105337829Y-94730589D01*
X105309500Y-94909448D01*
X100000500Y-94909448D01*
X100000500Y-91123071D01*
X111211099Y-91123071D01*
X111236097Y-91248738D01*
X111236099Y-91248744D01*
X111285133Y-91367124D01*
X111285138Y-91367133D01*
X111356323Y-91473668D01*
X111356326Y-91473672D01*
X111446927Y-91564273D01*
X111446931Y-91564276D01*
X111553466Y-91635461D01*
X111553472Y-91635464D01*
X111553473Y-91635465D01*
X111671856Y-91684501D01*
X111671860Y-91684501D01*
X111671861Y-91684502D01*
X111797528Y-91709500D01*
X111797531Y-91709500D01*
X111925671Y-91709500D01*
X112010215Y-91692682D01*
X112051344Y-91684501D01*
X112169727Y-91635465D01*
X112276269Y-91564276D01*
X112366792Y-91473753D01*
X131492000Y-91473753D01*
X131492000Y-91686246D01*
X131525242Y-91896127D01*
X131525242Y-91896130D01*
X131590904Y-92098217D01*
X131687375Y-92287550D01*
X131726728Y-92341716D01*
X132359037Y-91709408D01*
X132376075Y-91772993D01*
X132441901Y-91887007D01*
X132534993Y-91980099D01*
X132649007Y-92045925D01*
X132712590Y-92062962D01*
X132080282Y-92695269D01*
X132080282Y-92695270D01*
X132134449Y-92734624D01*
X132323782Y-92831095D01*
X132525870Y-92896757D01*
X132735754Y-92930000D01*
X132948246Y-92930000D01*
X133158127Y-92896757D01*
X133158130Y-92896757D01*
X133360217Y-92831095D01*
X133549554Y-92734622D01*
X133603716Y-92695270D01*
X133603717Y-92695270D01*
X132971408Y-92062962D01*
X133034993Y-92045925D01*
X133149007Y-91980099D01*
X133242099Y-91887007D01*
X133307925Y-91772993D01*
X133324962Y-91709409D01*
X133957270Y-92341717D01*
X133957270Y-92341716D01*
X133996622Y-92287554D01*
X134093095Y-92098217D01*
X134158757Y-91896130D01*
X134158757Y-91896127D01*
X134192000Y-91686246D01*
X134192000Y-91473753D01*
X135150000Y-91473753D01*
X135150000Y-91686246D01*
X135183242Y-91896127D01*
X135183242Y-91896130D01*
X135248904Y-92098217D01*
X135345375Y-92287550D01*
X135384728Y-92341716D01*
X136017037Y-91709408D01*
X136034075Y-91772993D01*
X136099901Y-91887007D01*
X136192993Y-91980099D01*
X136307007Y-92045925D01*
X136370590Y-92062962D01*
X135738282Y-92695269D01*
X135738282Y-92695270D01*
X135792449Y-92734624D01*
X135981782Y-92831095D01*
X136183870Y-92896757D01*
X136393754Y-92930000D01*
X136606246Y-92930000D01*
X136816127Y-92896757D01*
X136816130Y-92896757D01*
X137018217Y-92831095D01*
X137207554Y-92734622D01*
X137261716Y-92695270D01*
X137261717Y-92695270D01*
X136629408Y-92062962D01*
X136692993Y-92045925D01*
X136807007Y-91980099D01*
X136900099Y-91887007D01*
X136965925Y-91772993D01*
X136982962Y-91709408D01*
X137615270Y-92341717D01*
X137615270Y-92341716D01*
X137654622Y-92287554D01*
X137751095Y-92098217D01*
X137816757Y-91896130D01*
X137816757Y-91896127D01*
X137850000Y-91686246D01*
X137850000Y-91473753D01*
X137816757Y-91263872D01*
X137816757Y-91263869D01*
X137751095Y-91061782D01*
X137654624Y-90872449D01*
X137615270Y-90818282D01*
X137615269Y-90818282D01*
X136982962Y-91450590D01*
X136965925Y-91387007D01*
X136900099Y-91272993D01*
X136807007Y-91179901D01*
X136692993Y-91114075D01*
X136629409Y-91097037D01*
X137261716Y-90464728D01*
X137207550Y-90425375D01*
X137018217Y-90328904D01*
X136989292Y-90319506D01*
X136931616Y-90280068D01*
X136904418Y-90215710D01*
X136916333Y-90146863D01*
X136963577Y-90095388D01*
X136971315Y-90091090D01*
X137102994Y-90023996D01*
X137249501Y-89917553D01*
X137377553Y-89789501D01*
X137483996Y-89642994D01*
X137566211Y-89481639D01*
X137622171Y-89309409D01*
X137641584Y-89186839D01*
X137650500Y-89130551D01*
X137650500Y-88949448D01*
X137624443Y-88784938D01*
X137622171Y-88770591D01*
X137586001Y-88659269D01*
X137566212Y-88598363D01*
X137566211Y-88598360D01*
X137522214Y-88512013D01*
X137483996Y-88437006D01*
X137402982Y-88325499D01*
X137377558Y-88290505D01*
X137377554Y-88290500D01*
X137249499Y-88162445D01*
X137249494Y-88162441D01*
X137102997Y-88056006D01*
X137102996Y-88056005D01*
X137102994Y-88056004D01*
X137000068Y-88003560D01*
X136941639Y-87973788D01*
X136941636Y-87973787D01*
X136769410Y-87917829D01*
X136637728Y-87896972D01*
X136574594Y-87867042D01*
X136537663Y-87807731D01*
X136538661Y-87737868D01*
X136577271Y-87679636D01*
X136641235Y-87651522D01*
X136657120Y-87650499D01*
X137394864Y-87650499D01*
X137394879Y-87650497D01*
X137394882Y-87650497D01*
X137419987Y-87647586D01*
X137419988Y-87647585D01*
X137419991Y-87647585D01*
X137522765Y-87602206D01*
X137602206Y-87522765D01*
X137647585Y-87419991D01*
X137650500Y-87394865D01*
X137650499Y-85605136D01*
X137650497Y-85605117D01*
X137647586Y-85580012D01*
X137647585Y-85580010D01*
X137647585Y-85580009D01*
X137602206Y-85477235D01*
X137522765Y-85397794D01*
X137522763Y-85397793D01*
X137419994Y-85352416D01*
X137419992Y-85352415D01*
X137419991Y-85352415D01*
X137394865Y-85349500D01*
X135605143Y-85349500D01*
X135605117Y-85349502D01*
X135580012Y-85352413D01*
X135580008Y-85352415D01*
X135477235Y-85397793D01*
X135397794Y-85477234D01*
X135352415Y-85580006D01*
X135352415Y-85580008D01*
X135349500Y-85605131D01*
X135349500Y-87394856D01*
X135349502Y-87394882D01*
X135352413Y-87419987D01*
X135352415Y-87419991D01*
X135397793Y-87522764D01*
X135397794Y-87522765D01*
X135477235Y-87602206D01*
X135580009Y-87647585D01*
X135605135Y-87650500D01*
X136342873Y-87650499D01*
X136409910Y-87670183D01*
X136455665Y-87722987D01*
X136465609Y-87792146D01*
X136436584Y-87855702D01*
X136377806Y-87893476D01*
X136362270Y-87896972D01*
X136230589Y-87917829D01*
X136058363Y-87973787D01*
X136058360Y-87973788D01*
X135897002Y-88056006D01*
X135750505Y-88162441D01*
X135750500Y-88162445D01*
X135622445Y-88290500D01*
X135622441Y-88290505D01*
X135516006Y-88437002D01*
X135433788Y-88598360D01*
X135433787Y-88598363D01*
X135377829Y-88770589D01*
X135349500Y-88949448D01*
X135349500Y-89130551D01*
X135377829Y-89309410D01*
X135433787Y-89481636D01*
X135433788Y-89481639D01*
X135516006Y-89642997D01*
X135622441Y-89789494D01*
X135622445Y-89789499D01*
X135750500Y-89917554D01*
X135750505Y-89917558D01*
X135878287Y-90010396D01*
X135897006Y-90023996D01*
X135998780Y-90075853D01*
X136028684Y-90091090D01*
X136079480Y-90139065D01*
X136096275Y-90206886D01*
X136073737Y-90273021D01*
X136019022Y-90316472D01*
X136010708Y-90319506D01*
X135981781Y-90328905D01*
X135792439Y-90425380D01*
X135738282Y-90464727D01*
X135738282Y-90464728D01*
X136370591Y-91097037D01*
X136307007Y-91114075D01*
X136192993Y-91179901D01*
X136099901Y-91272993D01*
X136034075Y-91387007D01*
X136017037Y-91450591D01*
X135384728Y-90818282D01*
X135384727Y-90818282D01*
X135345380Y-90872439D01*
X135248904Y-91061782D01*
X135183242Y-91263869D01*
X135183242Y-91263872D01*
X135150000Y-91473753D01*
X134192000Y-91473753D01*
X134158757Y-91263872D01*
X134158757Y-91263869D01*
X134093095Y-91061782D01*
X133996624Y-90872449D01*
X133957270Y-90818282D01*
X133957269Y-90818282D01*
X133324962Y-91450590D01*
X133307925Y-91387007D01*
X133242099Y-91272993D01*
X133149007Y-91179901D01*
X133034993Y-91114075D01*
X132971409Y-91097037D01*
X133603716Y-90464728D01*
X133549550Y-90425375D01*
X133360217Y-90328904D01*
X133331292Y-90319506D01*
X133273616Y-90280068D01*
X133246418Y-90215710D01*
X133258333Y-90146863D01*
X133305577Y-90095388D01*
X133313315Y-90091090D01*
X133444994Y-90023996D01*
X133591501Y-89917553D01*
X133719553Y-89789501D01*
X133825996Y-89642994D01*
X133908211Y-89481639D01*
X133964171Y-89309409D01*
X133983584Y-89186839D01*
X133992500Y-89130551D01*
X133992500Y-88949448D01*
X133966443Y-88784938D01*
X133964171Y-88770591D01*
X133928001Y-88659269D01*
X133908212Y-88598363D01*
X133908211Y-88598360D01*
X133864214Y-88512013D01*
X133825996Y-88437006D01*
X133744982Y-88325499D01*
X133719558Y-88290505D01*
X133719554Y-88290500D01*
X133591499Y-88162445D01*
X133591494Y-88162441D01*
X133444997Y-88056006D01*
X133444996Y-88056005D01*
X133444994Y-88056004D01*
X133342068Y-88003560D01*
X133283639Y-87973788D01*
X133283636Y-87973787D01*
X133111410Y-87917829D01*
X132979728Y-87896972D01*
X132916594Y-87867042D01*
X132879663Y-87807731D01*
X132880661Y-87737868D01*
X132919271Y-87679636D01*
X132983235Y-87651522D01*
X132999120Y-87650499D01*
X133736864Y-87650499D01*
X133736879Y-87650497D01*
X133736882Y-87650497D01*
X133761987Y-87647586D01*
X133761988Y-87647585D01*
X133761991Y-87647585D01*
X133864765Y-87602206D01*
X133944206Y-87522765D01*
X133989585Y-87419991D01*
X133992500Y-87394865D01*
X133992499Y-85605136D01*
X133992499Y-85605135D01*
X133992499Y-85605130D01*
X133989586Y-85580012D01*
X133989585Y-85580010D01*
X133989585Y-85580009D01*
X133944206Y-85477235D01*
X133864765Y-85397794D01*
X133864763Y-85397793D01*
X133761992Y-85352415D01*
X133736865Y-85349500D01*
X131947143Y-85349500D01*
X131947117Y-85349502D01*
X131922012Y-85352413D01*
X131922008Y-85352415D01*
X131819235Y-85397793D01*
X131739794Y-85477234D01*
X131694415Y-85580006D01*
X131694415Y-85580008D01*
X131691500Y-85605131D01*
X131691500Y-87394856D01*
X131691502Y-87394882D01*
X131694413Y-87419987D01*
X131694415Y-87419991D01*
X131739793Y-87522764D01*
X131739794Y-87522765D01*
X131819235Y-87602206D01*
X131922009Y-87647585D01*
X131947135Y-87650500D01*
X132684873Y-87650499D01*
X132751910Y-87670183D01*
X132797665Y-87722987D01*
X132807609Y-87792146D01*
X132778584Y-87855702D01*
X132719806Y-87893476D01*
X132704270Y-87896972D01*
X132572589Y-87917829D01*
X132400363Y-87973787D01*
X132400360Y-87973788D01*
X132239002Y-88056006D01*
X132092505Y-88162441D01*
X132092500Y-88162445D01*
X131964445Y-88290500D01*
X131964441Y-88290505D01*
X131858006Y-88437002D01*
X131775788Y-88598360D01*
X131775787Y-88598363D01*
X131719829Y-88770589D01*
X131691500Y-88949448D01*
X131691500Y-89130551D01*
X131719829Y-89309410D01*
X131775787Y-89481636D01*
X131775788Y-89481639D01*
X131858006Y-89642997D01*
X131964441Y-89789494D01*
X131964445Y-89789499D01*
X132092500Y-89917554D01*
X132092505Y-89917558D01*
X132220287Y-90010396D01*
X132239006Y-90023996D01*
X132340780Y-90075853D01*
X132370684Y-90091090D01*
X132421480Y-90139065D01*
X132438275Y-90206886D01*
X132415737Y-90273021D01*
X132361022Y-90316472D01*
X132352708Y-90319506D01*
X132323781Y-90328905D01*
X132134439Y-90425380D01*
X132080282Y-90464727D01*
X132080282Y-90464728D01*
X132712591Y-91097037D01*
X132649007Y-91114075D01*
X132534993Y-91179901D01*
X132441901Y-91272993D01*
X132376075Y-91387007D01*
X132359037Y-91450591D01*
X131726728Y-90818282D01*
X131726727Y-90818282D01*
X131687380Y-90872439D01*
X131590904Y-91061782D01*
X131525242Y-91263869D01*
X131525242Y-91263872D01*
X131492000Y-91473753D01*
X112366792Y-91473753D01*
X112366876Y-91473669D01*
X112438065Y-91367127D01*
X112487101Y-91248744D01*
X112512100Y-91123069D01*
X112512100Y-90994931D01*
X112512100Y-90994928D01*
X112487102Y-90869261D01*
X112487101Y-90869260D01*
X112487101Y-90869256D01*
X112438065Y-90750873D01*
X112438064Y-90750872D01*
X112438061Y-90750866D01*
X112366876Y-90644331D01*
X112366873Y-90644327D01*
X112276272Y-90553726D01*
X112276268Y-90553723D01*
X112249126Y-90535587D01*
X112204321Y-90481974D01*
X112195614Y-90412649D01*
X112225769Y-90349622D01*
X112249124Y-90329385D01*
X112301669Y-90294276D01*
X112392276Y-90203669D01*
X112463465Y-90097127D01*
X112512501Y-89978744D01*
X112537500Y-89853069D01*
X112537500Y-89724931D01*
X112537500Y-89724928D01*
X112512502Y-89599261D01*
X112512501Y-89599260D01*
X112512501Y-89599256D01*
X112463465Y-89480873D01*
X112463464Y-89480872D01*
X112463461Y-89480866D01*
X112392276Y-89374331D01*
X112392273Y-89374327D01*
X112308834Y-89290888D01*
X112275349Y-89229565D01*
X112280333Y-89159873D01*
X112322205Y-89103940D01*
X112326874Y-89100636D01*
X112327065Y-89100478D01*
X112327069Y-89100476D01*
X112417676Y-89009869D01*
X112488865Y-88903327D01*
X112537901Y-88784944D01*
X112562900Y-88659269D01*
X112562900Y-88531131D01*
X112562900Y-88531128D01*
X112537902Y-88405461D01*
X112537901Y-88405460D01*
X112537901Y-88405456D01*
X112488865Y-88287073D01*
X112488864Y-88287072D01*
X112488861Y-88287066D01*
X112417676Y-88180531D01*
X112417673Y-88180527D01*
X112327072Y-88089926D01*
X112322361Y-88086060D01*
X112323213Y-88085020D01*
X112282815Y-88036673D01*
X112274113Y-87967347D01*
X112304273Y-87904322D01*
X112308815Y-87899529D01*
X112392276Y-87816069D01*
X112463465Y-87709527D01*
X112512501Y-87591144D01*
X112537500Y-87465469D01*
X112537500Y-87337331D01*
X112537500Y-87337328D01*
X112512502Y-87211661D01*
X112512501Y-87211660D01*
X112512501Y-87211656D01*
X112463465Y-87093273D01*
X112463464Y-87093272D01*
X112463461Y-87093266D01*
X112392276Y-86986731D01*
X112392273Y-86986727D01*
X112301672Y-86896126D01*
X112301668Y-86896123D01*
X112195133Y-86824938D01*
X112195124Y-86824933D01*
X112076744Y-86775899D01*
X112076738Y-86775897D01*
X111951071Y-86750900D01*
X111951069Y-86750900D01*
X111822931Y-86750900D01*
X111822929Y-86750900D01*
X111697261Y-86775897D01*
X111697255Y-86775899D01*
X111578875Y-86824933D01*
X111578866Y-86824938D01*
X111472331Y-86896123D01*
X111472327Y-86896126D01*
X111381726Y-86986727D01*
X111381723Y-86986731D01*
X111310538Y-87093266D01*
X111310533Y-87093275D01*
X111261499Y-87211655D01*
X111261497Y-87211661D01*
X111236500Y-87337328D01*
X111236500Y-87337331D01*
X111236500Y-87465469D01*
X111236500Y-87465471D01*
X111236499Y-87465471D01*
X111261497Y-87591138D01*
X111261499Y-87591144D01*
X111310533Y-87709524D01*
X111310538Y-87709533D01*
X111381723Y-87816068D01*
X111381726Y-87816072D01*
X111472327Y-87906673D01*
X111477039Y-87910540D01*
X111476185Y-87911580D01*
X111516581Y-87959920D01*
X111525287Y-88029245D01*
X111495130Y-88092272D01*
X111490566Y-88097088D01*
X111407123Y-88180531D01*
X111335938Y-88287066D01*
X111335933Y-88287075D01*
X111286899Y-88405455D01*
X111286897Y-88405461D01*
X111261900Y-88531128D01*
X111261900Y-88531131D01*
X111261900Y-88659269D01*
X111261900Y-88659271D01*
X111261899Y-88659271D01*
X111286897Y-88784938D01*
X111286899Y-88784944D01*
X111335933Y-88903324D01*
X111335938Y-88903333D01*
X111407123Y-89009868D01*
X111407126Y-89009872D01*
X111490565Y-89093311D01*
X111524050Y-89154634D01*
X111519066Y-89224326D01*
X111477194Y-89280259D01*
X111472530Y-89283560D01*
X111472327Y-89283726D01*
X111381726Y-89374327D01*
X111381723Y-89374331D01*
X111310538Y-89480866D01*
X111310533Y-89480875D01*
X111261499Y-89599255D01*
X111261497Y-89599261D01*
X111236500Y-89724928D01*
X111236500Y-89724931D01*
X111236500Y-89853069D01*
X111236500Y-89853071D01*
X111236499Y-89853071D01*
X111261497Y-89978738D01*
X111261499Y-89978744D01*
X111310533Y-90097124D01*
X111310538Y-90097133D01*
X111381723Y-90203668D01*
X111381726Y-90203672D01*
X111472330Y-90294276D01*
X111499473Y-90312412D01*
X111544278Y-90366024D01*
X111552985Y-90435349D01*
X111522831Y-90498376D01*
X111499473Y-90518616D01*
X111446931Y-90553723D01*
X111446927Y-90553726D01*
X111356326Y-90644327D01*
X111356323Y-90644331D01*
X111285138Y-90750866D01*
X111285133Y-90750875D01*
X111236099Y-90869255D01*
X111236097Y-90869261D01*
X111211100Y-90994928D01*
X111211100Y-90994931D01*
X111211100Y-91123069D01*
X111211100Y-91123071D01*
X111211099Y-91123071D01*
X100000500Y-91123071D01*
X100000500Y-89608753D01*
X101650000Y-89608753D01*
X101650000Y-89821246D01*
X101683242Y-90031127D01*
X101683242Y-90031130D01*
X101748904Y-90233217D01*
X101845375Y-90422550D01*
X101884728Y-90476716D01*
X102517037Y-89844408D01*
X102534075Y-89907993D01*
X102599901Y-90022007D01*
X102692993Y-90115099D01*
X102807007Y-90180925D01*
X102870590Y-90197962D01*
X102238282Y-90830269D01*
X102238282Y-90830270D01*
X102292449Y-90869624D01*
X102481782Y-90966095D01*
X102683870Y-91031757D01*
X102893754Y-91065000D01*
X103106246Y-91065000D01*
X103316127Y-91031757D01*
X103316130Y-91031757D01*
X103518217Y-90966095D01*
X103690418Y-90878354D01*
X103707554Y-90869622D01*
X103761716Y-90830270D01*
X103761717Y-90830270D01*
X103129408Y-90197962D01*
X103192993Y-90180925D01*
X103307007Y-90115099D01*
X103400099Y-90022007D01*
X103465925Y-89907993D01*
X103482962Y-89844409D01*
X104115270Y-90476717D01*
X104115270Y-90476716D01*
X104154622Y-90422554D01*
X104251095Y-90233217D01*
X104316757Y-90031130D01*
X104316757Y-90031127D01*
X104350000Y-89821246D01*
X104350000Y-89608753D01*
X104316757Y-89398872D01*
X104316757Y-89398869D01*
X104251095Y-89196782D01*
X104154624Y-89007449D01*
X104115270Y-88953282D01*
X104115269Y-88953282D01*
X103482962Y-89585590D01*
X103465925Y-89522007D01*
X103400099Y-89407993D01*
X103307007Y-89314901D01*
X103192993Y-89249075D01*
X103129409Y-89232037D01*
X103761716Y-88599728D01*
X103707550Y-88560375D01*
X103706786Y-88559986D01*
X103706546Y-88559759D01*
X103703396Y-88557829D01*
X103703801Y-88557167D01*
X103655988Y-88512013D01*
X103639191Y-88444192D01*
X103661726Y-88378057D01*
X103716440Y-88334604D01*
X103763076Y-88325499D01*
X103894864Y-88325499D01*
X103894879Y-88325497D01*
X103894882Y-88325497D01*
X103919987Y-88322586D01*
X103919988Y-88322585D01*
X103919991Y-88322585D01*
X104022765Y-88277206D01*
X104102206Y-88197765D01*
X104147585Y-88094991D01*
X104150500Y-88069865D01*
X104150499Y-86280136D01*
X104149433Y-86270941D01*
X104147586Y-86255012D01*
X104147585Y-86255010D01*
X104147585Y-86255009D01*
X104102206Y-86152235D01*
X104022765Y-86072794D01*
X104022763Y-86072793D01*
X103919992Y-86027415D01*
X103894865Y-86024500D01*
X102105143Y-86024500D01*
X102105117Y-86024502D01*
X102080012Y-86027413D01*
X102080008Y-86027415D01*
X101977235Y-86072793D01*
X101897794Y-86152234D01*
X101852415Y-86255006D01*
X101852415Y-86255008D01*
X101849500Y-86280131D01*
X101849500Y-88069856D01*
X101849502Y-88069882D01*
X101852413Y-88094987D01*
X101852415Y-88094991D01*
X101897793Y-88197764D01*
X101897794Y-88197765D01*
X101977235Y-88277206D01*
X102080009Y-88322585D01*
X102105135Y-88325500D01*
X102236923Y-88325499D01*
X102303960Y-88345183D01*
X102349715Y-88397987D01*
X102359659Y-88467145D01*
X102330635Y-88530701D01*
X102296387Y-88557507D01*
X102296590Y-88557838D01*
X102293715Y-88559599D01*
X102293239Y-88559972D01*
X102292451Y-88560373D01*
X102292440Y-88560380D01*
X102238282Y-88599727D01*
X102238282Y-88599728D01*
X102870591Y-89232037D01*
X102807007Y-89249075D01*
X102692993Y-89314901D01*
X102599901Y-89407993D01*
X102534075Y-89522007D01*
X102517037Y-89585591D01*
X101884728Y-88953282D01*
X101884727Y-88953282D01*
X101845380Y-89007439D01*
X101748904Y-89196782D01*
X101683242Y-89398869D01*
X101683242Y-89398872D01*
X101650000Y-89608753D01*
X100000500Y-89608753D01*
X100000500Y-85236530D01*
X145069500Y-85236530D01*
X145069500Y-85443469D01*
X145109868Y-85646412D01*
X145109870Y-85646420D01*
X145189058Y-85837596D01*
X145304024Y-86009657D01*
X145450342Y-86155975D01*
X145450345Y-86155977D01*
X145622402Y-86270941D01*
X145813580Y-86350130D01*
X146016530Y-86390499D01*
X146016534Y-86390500D01*
X146016535Y-86390500D01*
X146223466Y-86390500D01*
X146223467Y-86390499D01*
X146426420Y-86350130D01*
X146617598Y-86270941D01*
X146789655Y-86155977D01*
X146935977Y-86009655D01*
X147050941Y-85837598D01*
X147130130Y-85646420D01*
X147170500Y-85443465D01*
X147170500Y-85236535D01*
X147170499Y-85236530D01*
X149949500Y-85236530D01*
X149949500Y-85443469D01*
X149989868Y-85646412D01*
X149989870Y-85646420D01*
X150069058Y-85837596D01*
X150184024Y-86009657D01*
X150330342Y-86155975D01*
X150330345Y-86155977D01*
X150502402Y-86270941D01*
X150693580Y-86350130D01*
X150896530Y-86390499D01*
X150896534Y-86390500D01*
X150896535Y-86390500D01*
X151103466Y-86390500D01*
X151103467Y-86390499D01*
X151306420Y-86350130D01*
X151497598Y-86270941D01*
X151669655Y-86155977D01*
X151815977Y-86009655D01*
X151930941Y-85837598D01*
X152010130Y-85646420D01*
X152050500Y-85443465D01*
X152050500Y-85236535D01*
X152010130Y-85033580D01*
X151930941Y-84842402D01*
X151815977Y-84670345D01*
X151815975Y-84670342D01*
X151669657Y-84524024D01*
X151583626Y-84466541D01*
X151497598Y-84409059D01*
X151306420Y-84329870D01*
X151306412Y-84329868D01*
X151103469Y-84289500D01*
X151103465Y-84289500D01*
X150896535Y-84289500D01*
X150896530Y-84289500D01*
X150693587Y-84329868D01*
X150693579Y-84329870D01*
X150502403Y-84409058D01*
X150330342Y-84524024D01*
X150184024Y-84670342D01*
X150069058Y-84842403D01*
X149989870Y-85033579D01*
X149989868Y-85033587D01*
X149949500Y-85236530D01*
X147170499Y-85236530D01*
X147130130Y-85033580D01*
X147050941Y-84842402D01*
X146935977Y-84670345D01*
X146935975Y-84670342D01*
X146789657Y-84524024D01*
X146703626Y-84466541D01*
X146617598Y-84409059D01*
X146426420Y-84329870D01*
X146426412Y-84329868D01*
X146223469Y-84289500D01*
X146223465Y-84289500D01*
X146016535Y-84289500D01*
X146016530Y-84289500D01*
X145813587Y-84329868D01*
X145813579Y-84329870D01*
X145622403Y-84409058D01*
X145450342Y-84524024D01*
X145304024Y-84670342D01*
X145189058Y-84842403D01*
X145109870Y-85033579D01*
X145109868Y-85033587D01*
X145069500Y-85236530D01*
X100000500Y-85236530D01*
X100000500Y-82909448D01*
X169729500Y-82909448D01*
X169729500Y-83090551D01*
X169757829Y-83269410D01*
X169813787Y-83441636D01*
X169813788Y-83441639D01*
X169896006Y-83602997D01*
X170002441Y-83749494D01*
X170002445Y-83749499D01*
X170130500Y-83877554D01*
X170130505Y-83877558D01*
X170258287Y-83970396D01*
X170277006Y-83983996D01*
X170382484Y-84037740D01*
X170438360Y-84066211D01*
X170438363Y-84066212D01*
X170524476Y-84094191D01*
X170610591Y-84122171D01*
X170693429Y-84135291D01*
X170789449Y-84150500D01*
X170789454Y-84150500D01*
X170970551Y-84150500D01*
X171057259Y-84136765D01*
X171149409Y-84122171D01*
X171321639Y-84066211D01*
X171482994Y-83983996D01*
X171629501Y-83877553D01*
X171757553Y-83749501D01*
X171863996Y-83602994D01*
X171946211Y-83441639D01*
X172002171Y-83269409D01*
X172016422Y-83179425D01*
X172027527Y-83109321D01*
X172057456Y-83046186D01*
X172116768Y-83009255D01*
X172186630Y-83010253D01*
X172244863Y-83048863D01*
X172272473Y-83109321D01*
X172297829Y-83269410D01*
X172353787Y-83441636D01*
X172353788Y-83441639D01*
X172436006Y-83602997D01*
X172542441Y-83749494D01*
X172542445Y-83749499D01*
X172670500Y-83877554D01*
X172670505Y-83877558D01*
X172798287Y-83970396D01*
X172817006Y-83983996D01*
X172922484Y-84037740D01*
X172978360Y-84066211D01*
X172978363Y-84066212D01*
X173064476Y-84094191D01*
X173150591Y-84122171D01*
X173233429Y-84135291D01*
X173329449Y-84150500D01*
X173329454Y-84150500D01*
X173510551Y-84150500D01*
X173597259Y-84136765D01*
X173689409Y-84122171D01*
X173861639Y-84066211D01*
X174022994Y-83983996D01*
X174169501Y-83877553D01*
X174297553Y-83749501D01*
X174403996Y-83602994D01*
X174486211Y-83441639D01*
X174542171Y-83269409D01*
X174556422Y-83179425D01*
X174567527Y-83109321D01*
X174597456Y-83046186D01*
X174656768Y-83009255D01*
X174726630Y-83010253D01*
X174784863Y-83048863D01*
X174812473Y-83109321D01*
X174837829Y-83269410D01*
X174893787Y-83441636D01*
X174893788Y-83441639D01*
X174976006Y-83602997D01*
X175082441Y-83749494D01*
X175082445Y-83749499D01*
X175210500Y-83877554D01*
X175210505Y-83877558D01*
X175338287Y-83970396D01*
X175357006Y-83983996D01*
X175462484Y-84037740D01*
X175518360Y-84066211D01*
X175518363Y-84066212D01*
X175604476Y-84094191D01*
X175690591Y-84122171D01*
X175773429Y-84135291D01*
X175869449Y-84150500D01*
X175869454Y-84150500D01*
X176050551Y-84150500D01*
X176137259Y-84136765D01*
X176229409Y-84122171D01*
X176401639Y-84066211D01*
X176562994Y-83983996D01*
X176709501Y-83877553D01*
X176837553Y-83749501D01*
X176943996Y-83602994D01*
X177026211Y-83441639D01*
X177082171Y-83269409D01*
X177096422Y-83179425D01*
X177107527Y-83109321D01*
X177137456Y-83046186D01*
X177196768Y-83009255D01*
X177266630Y-83010253D01*
X177324863Y-83048863D01*
X177352473Y-83109321D01*
X177377829Y-83269410D01*
X177433787Y-83441636D01*
X177433788Y-83441639D01*
X177516006Y-83602997D01*
X177622441Y-83749494D01*
X177622445Y-83749499D01*
X177750500Y-83877554D01*
X177750505Y-83877558D01*
X177878287Y-83970396D01*
X177897006Y-83983996D01*
X178002484Y-84037740D01*
X178058360Y-84066211D01*
X178058363Y-84066212D01*
X178144476Y-84094191D01*
X178230591Y-84122171D01*
X178313429Y-84135291D01*
X178409449Y-84150500D01*
X178409454Y-84150500D01*
X178590551Y-84150500D01*
X178677259Y-84136765D01*
X178769409Y-84122171D01*
X178941639Y-84066211D01*
X179102994Y-83983996D01*
X179249501Y-83877553D01*
X179377553Y-83749501D01*
X179483996Y-83602994D01*
X179566211Y-83441639D01*
X179622171Y-83269409D01*
X179636765Y-83177259D01*
X179650500Y-83090551D01*
X179650500Y-82909448D01*
X179634019Y-82805397D01*
X179622171Y-82730591D01*
X179566211Y-82558361D01*
X179566211Y-82558360D01*
X179537740Y-82502484D01*
X179483996Y-82397006D01*
X179470396Y-82378287D01*
X179377558Y-82250505D01*
X179377554Y-82250500D01*
X179249499Y-82122445D01*
X179249494Y-82122441D01*
X179102997Y-82016006D01*
X179102996Y-82016005D01*
X179102994Y-82016004D01*
X179051300Y-81989664D01*
X178941639Y-81933788D01*
X178941636Y-81933787D01*
X178769410Y-81877829D01*
X178590551Y-81849500D01*
X178590546Y-81849500D01*
X178409454Y-81849500D01*
X178409449Y-81849500D01*
X178230589Y-81877829D01*
X178058363Y-81933787D01*
X178058360Y-81933788D01*
X177897002Y-82016006D01*
X177750505Y-82122441D01*
X177750500Y-82122445D01*
X177622445Y-82250500D01*
X177622441Y-82250505D01*
X177516006Y-82397002D01*
X177433788Y-82558360D01*
X177433787Y-82558363D01*
X177377829Y-82730589D01*
X177352473Y-82890678D01*
X177322544Y-82953813D01*
X177263232Y-82990744D01*
X177193369Y-82989746D01*
X177135137Y-82951136D01*
X177107527Y-82890678D01*
X177093740Y-82803639D01*
X177082171Y-82730591D01*
X177026211Y-82558361D01*
X177026211Y-82558360D01*
X176997740Y-82502484D01*
X176943996Y-82397006D01*
X176930396Y-82378287D01*
X176837558Y-82250505D01*
X176837554Y-82250500D01*
X176709499Y-82122445D01*
X176709494Y-82122441D01*
X176562997Y-82016006D01*
X176562996Y-82016005D01*
X176562994Y-82016004D01*
X176511300Y-81989664D01*
X176401639Y-81933788D01*
X176401636Y-81933787D01*
X176229410Y-81877829D01*
X176050551Y-81849500D01*
X176050546Y-81849500D01*
X175869454Y-81849500D01*
X175869449Y-81849500D01*
X175690589Y-81877829D01*
X175518363Y-81933787D01*
X175518360Y-81933788D01*
X175357002Y-82016006D01*
X175210505Y-82122441D01*
X175210500Y-82122445D01*
X175082445Y-82250500D01*
X175082441Y-82250505D01*
X174976006Y-82397002D01*
X174893788Y-82558360D01*
X174893787Y-82558363D01*
X174837829Y-82730589D01*
X174812473Y-82890678D01*
X174782544Y-82953813D01*
X174723232Y-82990744D01*
X174653369Y-82989746D01*
X174595137Y-82951136D01*
X174567527Y-82890678D01*
X174553740Y-82803639D01*
X174542171Y-82730591D01*
X174486211Y-82558361D01*
X174486211Y-82558360D01*
X174457740Y-82502484D01*
X174403996Y-82397006D01*
X174390396Y-82378287D01*
X174297558Y-82250505D01*
X174297554Y-82250500D01*
X174169499Y-82122445D01*
X174169494Y-82122441D01*
X174022997Y-82016006D01*
X174022996Y-82016005D01*
X174022994Y-82016004D01*
X173971300Y-81989664D01*
X173861639Y-81933788D01*
X173861636Y-81933787D01*
X173689410Y-81877829D01*
X173510551Y-81849500D01*
X173510546Y-81849500D01*
X173329454Y-81849500D01*
X173329449Y-81849500D01*
X173150589Y-81877829D01*
X172978363Y-81933787D01*
X172978360Y-81933788D01*
X172817002Y-82016006D01*
X172670505Y-82122441D01*
X172670500Y-82122445D01*
X172542445Y-82250500D01*
X172542441Y-82250505D01*
X172436006Y-82397002D01*
X172353788Y-82558360D01*
X172353787Y-82558363D01*
X172297829Y-82730589D01*
X172272473Y-82890678D01*
X172242544Y-82953813D01*
X172183232Y-82990744D01*
X172113369Y-82989746D01*
X172055137Y-82951136D01*
X172027527Y-82890678D01*
X172013740Y-82803639D01*
X172002171Y-82730591D01*
X171946211Y-82558361D01*
X171946211Y-82558360D01*
X171917740Y-82502484D01*
X171863996Y-82397006D01*
X171850396Y-82378287D01*
X171757558Y-82250505D01*
X171757554Y-82250500D01*
X171629499Y-82122445D01*
X171629494Y-82122441D01*
X171482997Y-82016006D01*
X171482996Y-82016005D01*
X171482994Y-82016004D01*
X171431300Y-81989664D01*
X171321639Y-81933788D01*
X171321636Y-81933787D01*
X171149410Y-81877829D01*
X170970551Y-81849500D01*
X170970546Y-81849500D01*
X170789454Y-81849500D01*
X170789449Y-81849500D01*
X170610589Y-81877829D01*
X170438363Y-81933787D01*
X170438360Y-81933788D01*
X170277002Y-82016006D01*
X170130505Y-82122441D01*
X170130500Y-82122445D01*
X170002445Y-82250500D01*
X170002441Y-82250505D01*
X169896006Y-82397002D01*
X169813788Y-82558360D01*
X169813787Y-82558363D01*
X169757829Y-82730589D01*
X169729500Y-82909448D01*
X100000500Y-82909448D01*
X100000500Y-80002871D01*
X100000632Y-79997144D01*
X100006108Y-79878711D01*
X102149500Y-79878711D01*
X102149500Y-80121288D01*
X102181161Y-80361785D01*
X102243947Y-80596104D01*
X102336773Y-80820205D01*
X102336776Y-80820212D01*
X102458064Y-81030289D01*
X102458066Y-81030292D01*
X102458067Y-81030293D01*
X102605733Y-81222736D01*
X102605739Y-81222743D01*
X102777256Y-81394260D01*
X102777262Y-81394265D01*
X102969711Y-81541936D01*
X103179788Y-81663224D01*
X103403900Y-81756054D01*
X103638211Y-81818838D01*
X103818586Y-81842584D01*
X103878711Y-81850500D01*
X103878712Y-81850500D01*
X104121289Y-81850500D01*
X104169388Y-81844167D01*
X104361789Y-81818838D01*
X104596100Y-81756054D01*
X104820212Y-81663224D01*
X105030289Y-81541936D01*
X105222738Y-81394265D01*
X105394265Y-81222738D01*
X105541936Y-81030289D01*
X105663224Y-80820212D01*
X105756054Y-80596100D01*
X105818838Y-80361789D01*
X105850500Y-80121288D01*
X105850500Y-79878712D01*
X105850500Y-79878711D01*
X191049500Y-79878711D01*
X191049500Y-80121288D01*
X191081161Y-80361785D01*
X191143947Y-80596104D01*
X191236773Y-80820205D01*
X191236776Y-80820212D01*
X191358064Y-81030289D01*
X191358066Y-81030292D01*
X191358067Y-81030293D01*
X191505733Y-81222736D01*
X191505739Y-81222743D01*
X191677256Y-81394260D01*
X191677262Y-81394265D01*
X191869711Y-81541936D01*
X192079788Y-81663224D01*
X192303900Y-81756054D01*
X192538211Y-81818838D01*
X192718586Y-81842584D01*
X192778711Y-81850500D01*
X192778712Y-81850500D01*
X193021289Y-81850500D01*
X193069388Y-81844167D01*
X193261789Y-81818838D01*
X193496100Y-81756054D01*
X193720212Y-81663224D01*
X193930289Y-81541936D01*
X194122738Y-81394265D01*
X194294265Y-81222738D01*
X194441936Y-81030289D01*
X194563224Y-80820212D01*
X194656054Y-80596100D01*
X194718838Y-80361789D01*
X194750500Y-80121288D01*
X194750500Y-79878712D01*
X194718838Y-79638211D01*
X194656054Y-79403900D01*
X194563224Y-79179788D01*
X194441936Y-78969711D01*
X194294265Y-78777262D01*
X194294260Y-78777256D01*
X194122743Y-78605739D01*
X194122736Y-78605733D01*
X193930293Y-78458067D01*
X193930292Y-78458066D01*
X193930289Y-78458064D01*
X193720212Y-78336776D01*
X193720205Y-78336773D01*
X193496104Y-78243947D01*
X193261785Y-78181161D01*
X193021289Y-78149500D01*
X193021288Y-78149500D01*
X192778712Y-78149500D01*
X192778711Y-78149500D01*
X192538214Y-78181161D01*
X192303895Y-78243947D01*
X192079794Y-78336773D01*
X192079785Y-78336777D01*
X191869706Y-78458067D01*
X191677263Y-78605733D01*
X191677256Y-78605739D01*
X191505739Y-78777256D01*
X191505733Y-78777263D01*
X191358067Y-78969706D01*
X191236777Y-79179785D01*
X191236773Y-79179794D01*
X191143947Y-79403895D01*
X191081161Y-79638214D01*
X191049500Y-79878711D01*
X105850500Y-79878711D01*
X105818838Y-79638211D01*
X105756054Y-79403900D01*
X105663224Y-79179788D01*
X105541936Y-78969711D01*
X105394265Y-78777262D01*
X105394260Y-78777256D01*
X105222743Y-78605739D01*
X105222736Y-78605733D01*
X105030293Y-78458067D01*
X105030292Y-78458066D01*
X105030289Y-78458064D01*
X104820212Y-78336776D01*
X104820205Y-78336773D01*
X104596104Y-78243947D01*
X104361785Y-78181161D01*
X104121289Y-78149500D01*
X104121288Y-78149500D01*
X103878712Y-78149500D01*
X103878711Y-78149500D01*
X103638214Y-78181161D01*
X103403895Y-78243947D01*
X103179794Y-78336773D01*
X103179785Y-78336777D01*
X102969706Y-78458067D01*
X102777263Y-78605733D01*
X102777256Y-78605739D01*
X102605739Y-78777256D01*
X102605733Y-78777263D01*
X102458067Y-78969706D01*
X102336777Y-79179785D01*
X102336773Y-79179794D01*
X102243947Y-79403895D01*
X102181161Y-79638214D01*
X102149500Y-79878711D01*
X100006108Y-79878711D01*
X100006560Y-79868926D01*
X100006560Y-79868925D01*
X100017296Y-79636697D01*
X100018353Y-79625292D01*
X100052438Y-79380946D01*
X100067809Y-79270757D01*
X100069909Y-79259520D01*
X100151869Y-78911049D01*
X100154992Y-78900070D01*
X100268763Y-78560623D01*
X100272886Y-78549984D01*
X100417482Y-78222503D01*
X100422574Y-78212277D01*
X100596768Y-77899541D01*
X100602794Y-77889809D01*
X100805103Y-77594472D01*
X100811985Y-77585360D01*
X101040682Y-77309951D01*
X101048376Y-77301511D01*
X101301511Y-77048376D01*
X101309951Y-77040682D01*
X101585360Y-76811985D01*
X101594472Y-76805103D01*
X101889814Y-76602790D01*
X101899541Y-76596768D01*
X102212277Y-76422574D01*
X102222503Y-76417482D01*
X102549984Y-76272886D01*
X102560623Y-76268763D01*
X102900070Y-76154992D01*
X102911049Y-76151869D01*
X103259520Y-76069909D01*
X103270757Y-76067809D01*
X103625301Y-76018352D01*
X103636687Y-76017296D01*
X103997145Y-76000632D01*
X104002872Y-76000500D01*
X104065892Y-76000500D01*
X192934108Y-76000500D01*
X192997128Y-76000500D01*
X193002855Y-76000632D01*
G37*
%TD.AperFunction*%
%TD*%
M02*
