M48
; DRILL file {KiCad 9.0.2} date 2025-07-28T19:38:12-0500
; FORMAT={-:-/ absolute / metric / decimal}
; #@! TF.CreationDate,2025-07-28T19:38:12-05:00
; #@! TF.GenerationSoftware,Kicad,Pcbnew,9.0.2
; #@! TF.FileFunction,MixedPlating,1,2
FMAT,2
METRIC
; #@! TA.AperFunction,Plated,PTH,ViaDrill
T1C0.300
; #@! TA.AperFunction,Plated,PTH,ViaDrill
T2C0.400
; #@! TA.AperFunction,Plated,PTH,ComponentDrill
T3C0.800
; #@! TA.AperFunction,Plated,PTH,ComponentDrill
T4C0.900
; #@! TA.AperFunction,Plated,PTH,ComponentDrill
T5C1.000
; #@! TA.AperFunction,NonPlated,NPTH,ComponentDrill
T6C3.200
%
G90
G05
T1
X111.811Y-86.919
X111.811Y-88.519
X111.811Y-89.764
X111.811Y-91.008
X116.916Y-101.092
X116.916Y-104.216
X121.92Y-97.132
X123.444Y-98.806
X123.444Y-106.934
X123.698Y-101.346
X125.476Y-98.806
X126.492Y-87.376
X127.047Y-101.139
X127.762Y-106.934
X130.81Y-102.108
X130.81Y-105.41
X132.334Y-102.108
X135.89Y-100.076
X135.89Y-102.616
X138.938Y-91.694
X142.748Y-106.172
X144.018Y-102.87
X144.272Y-88.646
X149.606Y-91.186
X150.622Y-103.886
X156.21Y-94.234
X158.496Y-103.886
X158.75Y-114.808
X160.528Y-98.806
X163.652Y-100.965
X163.678Y-102.732
X165.176Y-108.915
X168.808Y-111.227
T2
X112.878Y-97.206
X118.059Y-95.58
X173.38Y-99.416
T3
X146.12Y-85.34
X151.0Y-85.34
T4
X175.391Y-107.188
X175.391Y-113.188
X177.891Y-107.188
X177.891Y-113.188
X180.391Y-107.188
X180.391Y-113.188
T5
X102.768Y-86.797
X102.768Y-89.337
X106.46Y-95.0
X109.0Y-95.0
X111.54Y-95.0
X114.08Y-95.0
X126.394Y-116.561
X128.934Y-116.561
X132.842Y-86.5
X132.842Y-89.04
X132.842Y-91.58
X134.894Y-116.561
X136.5Y-86.5
X136.5Y-89.04
X136.5Y-91.58
X137.434Y-116.561
X147.066Y-116.586
X149.606Y-116.586
X152.146Y-116.586
X154.686Y-116.586
X157.226Y-116.586
X168.34Y-100.78
X170.88Y-83.0
X170.88Y-100.78
X173.42Y-83.0
X173.42Y-100.78
X175.96Y-83.0
X175.96Y-100.78
X178.5Y-83.0
X178.5Y-100.78
X181.04Y-100.78
T6
X104.0Y-80.0
X104.0Y-115.56
X192.9Y-80.0
X192.9Y-115.56
M30
