%TF.GenerationSoftware,KiCad,Pcbnew,9.0.2*%
%TF.CreationDate,2025-07-28T19:39:00-05:00*%
%TF.ProjectId,balance_bot,62616c61-6e63-4655-9f62-6f742e6b6963,rev?*%
%TF.SameCoordinates,Original*%
%TF.FileFunction,Legend,Top*%
%TF.FilePolarity,Positive*%
%FSLAX46Y46*%
G04 Gerber Fmt 4.6, Leading zero omitted, Abs format (unit mm)*
G04 Created by KiCad (PCBNEW 9.0.2) date 2025-07-28 19:39:00*
%MOMM*%
%LPD*%
G01*
G04 APERTURE LIST*
%ADD10C,0.100000*%
%ADD11C,0.400000*%
%ADD12C,0.150000*%
%ADD13C,0.120000*%
G04 APERTURE END LIST*
D10*
X152780419Y-114504115D02*
X151780419Y-114504115D01*
X151780419Y-114504115D02*
X152780419Y-113932687D01*
X152780419Y-113932687D02*
X151780419Y-113932687D01*
X152780419Y-112885068D02*
X152304228Y-113218401D01*
X152780419Y-113456496D02*
X151780419Y-113456496D01*
X151780419Y-113456496D02*
X151780419Y-113075544D01*
X151780419Y-113075544D02*
X151828038Y-112980306D01*
X151828038Y-112980306D02*
X151875657Y-112932687D01*
X151875657Y-112932687D02*
X151970895Y-112885068D01*
X151970895Y-112885068D02*
X152113752Y-112885068D01*
X152113752Y-112885068D02*
X152208990Y-112932687D01*
X152208990Y-112932687D02*
X152256609Y-112980306D01*
X152256609Y-112980306D02*
X152304228Y-113075544D01*
X152304228Y-113075544D02*
X152304228Y-113456496D01*
X152732800Y-112504115D02*
X152780419Y-112361258D01*
X152780419Y-112361258D02*
X152780419Y-112123163D01*
X152780419Y-112123163D02*
X152732800Y-112027925D01*
X152732800Y-112027925D02*
X152685180Y-111980306D01*
X152685180Y-111980306D02*
X152589942Y-111932687D01*
X152589942Y-111932687D02*
X152494704Y-111932687D01*
X152494704Y-111932687D02*
X152399466Y-111980306D01*
X152399466Y-111980306D02*
X152351847Y-112027925D01*
X152351847Y-112027925D02*
X152304228Y-112123163D01*
X152304228Y-112123163D02*
X152256609Y-112313639D01*
X152256609Y-112313639D02*
X152208990Y-112408877D01*
X152208990Y-112408877D02*
X152161371Y-112456496D01*
X152161371Y-112456496D02*
X152066133Y-112504115D01*
X152066133Y-112504115D02*
X151970895Y-112504115D01*
X151970895Y-112504115D02*
X151875657Y-112456496D01*
X151875657Y-112456496D02*
X151828038Y-112408877D01*
X151828038Y-112408877D02*
X151780419Y-112313639D01*
X151780419Y-112313639D02*
X151780419Y-112075544D01*
X151780419Y-112075544D02*
X151828038Y-111932687D01*
X151780419Y-111646972D02*
X151780419Y-111075544D01*
X152780419Y-111361258D02*
X151780419Y-111361258D01*
X162470112Y-78942619D02*
X162136779Y-78466428D01*
X161898684Y-78942619D02*
X161898684Y-77942619D01*
X161898684Y-77942619D02*
X162279636Y-77942619D01*
X162279636Y-77942619D02*
X162374874Y-77990238D01*
X162374874Y-77990238D02*
X162422493Y-78037857D01*
X162422493Y-78037857D02*
X162470112Y-78133095D01*
X162470112Y-78133095D02*
X162470112Y-78275952D01*
X162470112Y-78275952D02*
X162422493Y-78371190D01*
X162422493Y-78371190D02*
X162374874Y-78418809D01*
X162374874Y-78418809D02*
X162279636Y-78466428D01*
X162279636Y-78466428D02*
X161898684Y-78466428D01*
X163279636Y-78895000D02*
X163184398Y-78942619D01*
X163184398Y-78942619D02*
X162993922Y-78942619D01*
X162993922Y-78942619D02*
X162898684Y-78895000D01*
X162898684Y-78895000D02*
X162851065Y-78799761D01*
X162851065Y-78799761D02*
X162851065Y-78418809D01*
X162851065Y-78418809D02*
X162898684Y-78323571D01*
X162898684Y-78323571D02*
X162993922Y-78275952D01*
X162993922Y-78275952D02*
X163184398Y-78275952D01*
X163184398Y-78275952D02*
X163279636Y-78323571D01*
X163279636Y-78323571D02*
X163327255Y-78418809D01*
X163327255Y-78418809D02*
X163327255Y-78514047D01*
X163327255Y-78514047D02*
X162851065Y-78609285D01*
X163660589Y-78275952D02*
X163898684Y-78942619D01*
X163898684Y-78942619D02*
X164136779Y-78275952D01*
X165803446Y-78942619D02*
X165232018Y-78942619D01*
X165517732Y-78942619D02*
X165517732Y-77942619D01*
X165517732Y-77942619D02*
X165422494Y-78085476D01*
X165422494Y-78085476D02*
X165327256Y-78180714D01*
X165327256Y-78180714D02*
X165232018Y-78228333D01*
X166232018Y-78847380D02*
X166279637Y-78895000D01*
X166279637Y-78895000D02*
X166232018Y-78942619D01*
X166232018Y-78942619D02*
X166184399Y-78895000D01*
X166184399Y-78895000D02*
X166232018Y-78847380D01*
X166232018Y-78847380D02*
X166232018Y-78942619D01*
X166660589Y-78037857D02*
X166708208Y-77990238D01*
X166708208Y-77990238D02*
X166803446Y-77942619D01*
X166803446Y-77942619D02*
X167041541Y-77942619D01*
X167041541Y-77942619D02*
X167136779Y-77990238D01*
X167136779Y-77990238D02*
X167184398Y-78037857D01*
X167184398Y-78037857D02*
X167232017Y-78133095D01*
X167232017Y-78133095D02*
X167232017Y-78228333D01*
X167232017Y-78228333D02*
X167184398Y-78371190D01*
X167184398Y-78371190D02*
X166612970Y-78942619D01*
X166612970Y-78942619D02*
X167232017Y-78942619D01*
X168422494Y-78561666D02*
X169184399Y-78561666D01*
X170612970Y-77942619D02*
X170708208Y-77942619D01*
X170708208Y-77942619D02*
X170803446Y-77990238D01*
X170803446Y-77990238D02*
X170851065Y-78037857D01*
X170851065Y-78037857D02*
X170898684Y-78133095D01*
X170898684Y-78133095D02*
X170946303Y-78323571D01*
X170946303Y-78323571D02*
X170946303Y-78561666D01*
X170946303Y-78561666D02*
X170898684Y-78752142D01*
X170898684Y-78752142D02*
X170851065Y-78847380D01*
X170851065Y-78847380D02*
X170803446Y-78895000D01*
X170803446Y-78895000D02*
X170708208Y-78942619D01*
X170708208Y-78942619D02*
X170612970Y-78942619D01*
X170612970Y-78942619D02*
X170517732Y-78895000D01*
X170517732Y-78895000D02*
X170470113Y-78847380D01*
X170470113Y-78847380D02*
X170422494Y-78752142D01*
X170422494Y-78752142D02*
X170374875Y-78561666D01*
X170374875Y-78561666D02*
X170374875Y-78323571D01*
X170374875Y-78323571D02*
X170422494Y-78133095D01*
X170422494Y-78133095D02*
X170470113Y-78037857D01*
X170470113Y-78037857D02*
X170517732Y-77990238D01*
X170517732Y-77990238D02*
X170612970Y-77942619D01*
X171279637Y-77942619D02*
X171946303Y-77942619D01*
X171946303Y-77942619D02*
X171517732Y-78942619D01*
X173041541Y-77895000D02*
X172184399Y-79180714D01*
X173327256Y-78037857D02*
X173374875Y-77990238D01*
X173374875Y-77990238D02*
X173470113Y-77942619D01*
X173470113Y-77942619D02*
X173708208Y-77942619D01*
X173708208Y-77942619D02*
X173803446Y-77990238D01*
X173803446Y-77990238D02*
X173851065Y-78037857D01*
X173851065Y-78037857D02*
X173898684Y-78133095D01*
X173898684Y-78133095D02*
X173898684Y-78228333D01*
X173898684Y-78228333D02*
X173851065Y-78371190D01*
X173851065Y-78371190D02*
X173279637Y-78942619D01*
X173279637Y-78942619D02*
X173898684Y-78942619D01*
X174803446Y-77942619D02*
X174327256Y-77942619D01*
X174327256Y-77942619D02*
X174279637Y-78418809D01*
X174279637Y-78418809D02*
X174327256Y-78371190D01*
X174327256Y-78371190D02*
X174422494Y-78323571D01*
X174422494Y-78323571D02*
X174660589Y-78323571D01*
X174660589Y-78323571D02*
X174755827Y-78371190D01*
X174755827Y-78371190D02*
X174803446Y-78418809D01*
X174803446Y-78418809D02*
X174851065Y-78514047D01*
X174851065Y-78514047D02*
X174851065Y-78752142D01*
X174851065Y-78752142D02*
X174803446Y-78847380D01*
X174803446Y-78847380D02*
X174755827Y-78895000D01*
X174755827Y-78895000D02*
X174660589Y-78942619D01*
X174660589Y-78942619D02*
X174422494Y-78942619D01*
X174422494Y-78942619D02*
X174327256Y-78895000D01*
X174327256Y-78895000D02*
X174279637Y-78847380D01*
X178910704Y-86611734D02*
X178910704Y-86135544D01*
X179196419Y-86706972D02*
X178196419Y-86373639D01*
X178196419Y-86373639D02*
X179196419Y-86040306D01*
X179196419Y-85706972D02*
X178196419Y-85706972D01*
X178196419Y-85706972D02*
X178196419Y-85468877D01*
X178196419Y-85468877D02*
X178244038Y-85326020D01*
X178244038Y-85326020D02*
X178339276Y-85230782D01*
X178339276Y-85230782D02*
X178434514Y-85183163D01*
X178434514Y-85183163D02*
X178624990Y-85135544D01*
X178624990Y-85135544D02*
X178767847Y-85135544D01*
X178767847Y-85135544D02*
X178958323Y-85183163D01*
X178958323Y-85183163D02*
X179053561Y-85230782D01*
X179053561Y-85230782D02*
X179148800Y-85326020D01*
X179148800Y-85326020D02*
X179196419Y-85468877D01*
X179196419Y-85468877D02*
X179196419Y-85706972D01*
X179196419Y-84135544D02*
X178720228Y-84468877D01*
X179196419Y-84706972D02*
X178196419Y-84706972D01*
X178196419Y-84706972D02*
X178196419Y-84326020D01*
X178196419Y-84326020D02*
X178244038Y-84230782D01*
X178244038Y-84230782D02*
X178291657Y-84183163D01*
X178291657Y-84183163D02*
X178386895Y-84135544D01*
X178386895Y-84135544D02*
X178529752Y-84135544D01*
X178529752Y-84135544D02*
X178624990Y-84183163D01*
X178624990Y-84183163D02*
X178672609Y-84230782D01*
X178672609Y-84230782D02*
X178720228Y-84326020D01*
X178720228Y-84326020D02*
X178720228Y-84706972D01*
X167782419Y-99406972D02*
X168782419Y-99073639D01*
X168782419Y-99073639D02*
X167782419Y-98740306D01*
X168782419Y-98406972D02*
X168115752Y-98406972D01*
X167782419Y-98406972D02*
X167830038Y-98454591D01*
X167830038Y-98454591D02*
X167877657Y-98406972D01*
X167877657Y-98406972D02*
X167830038Y-98359353D01*
X167830038Y-98359353D02*
X167782419Y-98406972D01*
X167782419Y-98406972D02*
X167877657Y-98406972D01*
X168115752Y-97930782D02*
X168782419Y-97930782D01*
X168210990Y-97930782D02*
X168163371Y-97883163D01*
X168163371Y-97883163D02*
X168115752Y-97787925D01*
X168115752Y-97787925D02*
X168115752Y-97645068D01*
X168115752Y-97645068D02*
X168163371Y-97549830D01*
X168163371Y-97549830D02*
X168258609Y-97502211D01*
X168258609Y-97502211D02*
X168782419Y-97502211D01*
X170322419Y-99359353D02*
X170322419Y-98740306D01*
X170322419Y-98740306D02*
X170703371Y-99073639D01*
X170703371Y-99073639D02*
X170703371Y-98930782D01*
X170703371Y-98930782D02*
X170750990Y-98835544D01*
X170750990Y-98835544D02*
X170798609Y-98787925D01*
X170798609Y-98787925D02*
X170893847Y-98740306D01*
X170893847Y-98740306D02*
X171131942Y-98740306D01*
X171131942Y-98740306D02*
X171227180Y-98787925D01*
X171227180Y-98787925D02*
X171274800Y-98835544D01*
X171274800Y-98835544D02*
X171322419Y-98930782D01*
X171322419Y-98930782D02*
X171322419Y-99216496D01*
X171322419Y-99216496D02*
X171274800Y-99311734D01*
X171274800Y-99311734D02*
X171227180Y-99359353D01*
X170655752Y-98406972D02*
X171322419Y-98168877D01*
X171322419Y-98168877D02*
X170655752Y-97930782D01*
X171322419Y-97406972D02*
X171274800Y-97502210D01*
X171274800Y-97502210D02*
X171227180Y-97549829D01*
X171227180Y-97549829D02*
X171131942Y-97597448D01*
X171131942Y-97597448D02*
X170846228Y-97597448D01*
X170846228Y-97597448D02*
X170750990Y-97549829D01*
X170750990Y-97549829D02*
X170703371Y-97502210D01*
X170703371Y-97502210D02*
X170655752Y-97406972D01*
X170655752Y-97406972D02*
X170655752Y-97264115D01*
X170655752Y-97264115D02*
X170703371Y-97168877D01*
X170703371Y-97168877D02*
X170750990Y-97121258D01*
X170750990Y-97121258D02*
X170846228Y-97073639D01*
X170846228Y-97073639D02*
X171131942Y-97073639D01*
X171131942Y-97073639D02*
X171227180Y-97121258D01*
X171227180Y-97121258D02*
X171274800Y-97168877D01*
X171274800Y-97168877D02*
X171322419Y-97264115D01*
X171322419Y-97264115D02*
X171322419Y-97406972D01*
X105205884Y-86664266D02*
X105967789Y-86664266D01*
X109585580Y-97189027D02*
X108585580Y-97522360D01*
X108585580Y-97522360D02*
X109585580Y-97855693D01*
X108585580Y-98189027D02*
X109252247Y-98189027D01*
X109585580Y-98189027D02*
X109537961Y-98141408D01*
X109537961Y-98141408D02*
X109490342Y-98189027D01*
X109490342Y-98189027D02*
X109537961Y-98236646D01*
X109537961Y-98236646D02*
X109585580Y-98189027D01*
X109585580Y-98189027D02*
X109490342Y-98189027D01*
X109252247Y-98665217D02*
X108585580Y-98665217D01*
X109157009Y-98665217D02*
X109204628Y-98712836D01*
X109204628Y-98712836D02*
X109252247Y-98808074D01*
X109252247Y-98808074D02*
X109252247Y-98950931D01*
X109252247Y-98950931D02*
X109204628Y-99046169D01*
X109204628Y-99046169D02*
X109109390Y-99093788D01*
X109109390Y-99093788D02*
X108585580Y-99093788D01*
X126795884Y-88899466D02*
X127557789Y-88899466D01*
X127176836Y-89280419D02*
X127176836Y-88518514D01*
X127938741Y-88280419D02*
X128557788Y-88280419D01*
X128557788Y-88280419D02*
X128224455Y-88661371D01*
X128224455Y-88661371D02*
X128367312Y-88661371D01*
X128367312Y-88661371D02*
X128462550Y-88708990D01*
X128462550Y-88708990D02*
X128510169Y-88756609D01*
X128510169Y-88756609D02*
X128557788Y-88851847D01*
X128557788Y-88851847D02*
X128557788Y-89089942D01*
X128557788Y-89089942D02*
X128510169Y-89185180D01*
X128510169Y-89185180D02*
X128462550Y-89232800D01*
X128462550Y-89232800D02*
X128367312Y-89280419D01*
X128367312Y-89280419D02*
X128081598Y-89280419D01*
X128081598Y-89280419D02*
X127986360Y-89232800D01*
X127986360Y-89232800D02*
X127938741Y-89185180D01*
X128986360Y-89185180D02*
X129033979Y-89232800D01*
X129033979Y-89232800D02*
X128986360Y-89280419D01*
X128986360Y-89280419D02*
X128938741Y-89232800D01*
X128938741Y-89232800D02*
X128986360Y-89185180D01*
X128986360Y-89185180D02*
X128986360Y-89280419D01*
X129367312Y-88280419D02*
X129986359Y-88280419D01*
X129986359Y-88280419D02*
X129653026Y-88661371D01*
X129653026Y-88661371D02*
X129795883Y-88661371D01*
X129795883Y-88661371D02*
X129891121Y-88708990D01*
X129891121Y-88708990D02*
X129938740Y-88756609D01*
X129938740Y-88756609D02*
X129986359Y-88851847D01*
X129986359Y-88851847D02*
X129986359Y-89089942D01*
X129986359Y-89089942D02*
X129938740Y-89185180D01*
X129938740Y-89185180D02*
X129891121Y-89232800D01*
X129891121Y-89232800D02*
X129795883Y-89280419D01*
X129795883Y-89280419D02*
X129510169Y-89280419D01*
X129510169Y-89280419D02*
X129414931Y-89232800D01*
X129414931Y-89232800D02*
X129367312Y-89185180D01*
X130272074Y-88280419D02*
X130605407Y-89280419D01*
X130605407Y-89280419D02*
X130938740Y-88280419D01*
X181482419Y-98692687D02*
X181006228Y-99026020D01*
X181482419Y-99264115D02*
X180482419Y-99264115D01*
X180482419Y-99264115D02*
X180482419Y-98883163D01*
X180482419Y-98883163D02*
X180530038Y-98787925D01*
X180530038Y-98787925D02*
X180577657Y-98740306D01*
X180577657Y-98740306D02*
X180672895Y-98692687D01*
X180672895Y-98692687D02*
X180815752Y-98692687D01*
X180815752Y-98692687D02*
X180910990Y-98740306D01*
X180910990Y-98740306D02*
X180958609Y-98787925D01*
X180958609Y-98787925D02*
X181006228Y-98883163D01*
X181006228Y-98883163D02*
X181006228Y-99264115D01*
X181434800Y-98311734D02*
X181482419Y-98168877D01*
X181482419Y-98168877D02*
X181482419Y-97930782D01*
X181482419Y-97930782D02*
X181434800Y-97835544D01*
X181434800Y-97835544D02*
X181387180Y-97787925D01*
X181387180Y-97787925D02*
X181291942Y-97740306D01*
X181291942Y-97740306D02*
X181196704Y-97740306D01*
X181196704Y-97740306D02*
X181101466Y-97787925D01*
X181101466Y-97787925D02*
X181053847Y-97835544D01*
X181053847Y-97835544D02*
X181006228Y-97930782D01*
X181006228Y-97930782D02*
X180958609Y-98121258D01*
X180958609Y-98121258D02*
X180910990Y-98216496D01*
X180910990Y-98216496D02*
X180863371Y-98264115D01*
X180863371Y-98264115D02*
X180768133Y-98311734D01*
X180768133Y-98311734D02*
X180672895Y-98311734D01*
X180672895Y-98311734D02*
X180577657Y-98264115D01*
X180577657Y-98264115D02*
X180530038Y-98216496D01*
X180530038Y-98216496D02*
X180482419Y-98121258D01*
X180482419Y-98121258D02*
X180482419Y-97883163D01*
X180482419Y-97883163D02*
X180530038Y-97740306D01*
X180482419Y-97454591D02*
X180482419Y-96883163D01*
X181482419Y-97168877D02*
X180482419Y-97168877D01*
X182882217Y-103615609D02*
X183025074Y-103663228D01*
X183025074Y-103663228D02*
X183072693Y-103710847D01*
X183072693Y-103710847D02*
X183120312Y-103806085D01*
X183120312Y-103806085D02*
X183120312Y-103948942D01*
X183120312Y-103948942D02*
X183072693Y-104044180D01*
X183072693Y-104044180D02*
X183025074Y-104091800D01*
X183025074Y-104091800D02*
X182929836Y-104139419D01*
X182929836Y-104139419D02*
X182548884Y-104139419D01*
X182548884Y-104139419D02*
X182548884Y-103139419D01*
X182548884Y-103139419D02*
X182882217Y-103139419D01*
X182882217Y-103139419D02*
X182977455Y-103187038D01*
X182977455Y-103187038D02*
X183025074Y-103234657D01*
X183025074Y-103234657D02*
X183072693Y-103329895D01*
X183072693Y-103329895D02*
X183072693Y-103425133D01*
X183072693Y-103425133D02*
X183025074Y-103520371D01*
X183025074Y-103520371D02*
X182977455Y-103567990D01*
X182977455Y-103567990D02*
X182882217Y-103615609D01*
X182882217Y-103615609D02*
X182548884Y-103615609D01*
X183548884Y-104139419D02*
X183548884Y-103139419D01*
X183548884Y-103139419D02*
X184120312Y-104139419D01*
X184120312Y-104139419D02*
X184120312Y-103139419D01*
X184786979Y-103139419D02*
X184977455Y-103139419D01*
X184977455Y-103139419D02*
X185072693Y-103187038D01*
X185072693Y-103187038D02*
X185167931Y-103282276D01*
X185167931Y-103282276D02*
X185215550Y-103472752D01*
X185215550Y-103472752D02*
X185215550Y-103806085D01*
X185215550Y-103806085D02*
X185167931Y-103996561D01*
X185167931Y-103996561D02*
X185072693Y-104091800D01*
X185072693Y-104091800D02*
X184977455Y-104139419D01*
X184977455Y-104139419D02*
X184786979Y-104139419D01*
X184786979Y-104139419D02*
X184691741Y-104091800D01*
X184691741Y-104091800D02*
X184596503Y-103996561D01*
X184596503Y-103996561D02*
X184548884Y-103806085D01*
X184548884Y-103806085D02*
X184548884Y-103472752D01*
X184548884Y-103472752D02*
X184596503Y-103282276D01*
X184596503Y-103282276D02*
X184691741Y-103187038D01*
X184691741Y-103187038D02*
X184786979Y-103139419D01*
X185834598Y-103139419D02*
X185929836Y-103139419D01*
X185929836Y-103139419D02*
X186025074Y-103187038D01*
X186025074Y-103187038D02*
X186072693Y-103234657D01*
X186072693Y-103234657D02*
X186120312Y-103329895D01*
X186120312Y-103329895D02*
X186167931Y-103520371D01*
X186167931Y-103520371D02*
X186167931Y-103758466D01*
X186167931Y-103758466D02*
X186120312Y-103948942D01*
X186120312Y-103948942D02*
X186072693Y-104044180D01*
X186072693Y-104044180D02*
X186025074Y-104091800D01*
X186025074Y-104091800D02*
X185929836Y-104139419D01*
X185929836Y-104139419D02*
X185834598Y-104139419D01*
X185834598Y-104139419D02*
X185739360Y-104091800D01*
X185739360Y-104091800D02*
X185691741Y-104044180D01*
X185691741Y-104044180D02*
X185644122Y-103948942D01*
X185644122Y-103948942D02*
X185596503Y-103758466D01*
X185596503Y-103758466D02*
X185596503Y-103520371D01*
X185596503Y-103520371D02*
X185644122Y-103329895D01*
X185644122Y-103329895D02*
X185691741Y-103234657D01*
X185691741Y-103234657D02*
X185739360Y-103187038D01*
X185739360Y-103187038D02*
X185834598Y-103139419D01*
X187072693Y-103139419D02*
X186596503Y-103139419D01*
X186596503Y-103139419D02*
X186548884Y-103615609D01*
X186548884Y-103615609D02*
X186596503Y-103567990D01*
X186596503Y-103567990D02*
X186691741Y-103520371D01*
X186691741Y-103520371D02*
X186929836Y-103520371D01*
X186929836Y-103520371D02*
X187025074Y-103567990D01*
X187025074Y-103567990D02*
X187072693Y-103615609D01*
X187072693Y-103615609D02*
X187120312Y-103710847D01*
X187120312Y-103710847D02*
X187120312Y-103948942D01*
X187120312Y-103948942D02*
X187072693Y-104044180D01*
X187072693Y-104044180D02*
X187025074Y-104091800D01*
X187025074Y-104091800D02*
X186929836Y-104139419D01*
X186929836Y-104139419D02*
X186691741Y-104139419D01*
X186691741Y-104139419D02*
X186596503Y-104091800D01*
X186596503Y-104091800D02*
X186548884Y-104044180D01*
X188025074Y-103139419D02*
X187548884Y-103139419D01*
X187548884Y-103139419D02*
X187501265Y-103615609D01*
X187501265Y-103615609D02*
X187548884Y-103567990D01*
X187548884Y-103567990D02*
X187644122Y-103520371D01*
X187644122Y-103520371D02*
X187882217Y-103520371D01*
X187882217Y-103520371D02*
X187977455Y-103567990D01*
X187977455Y-103567990D02*
X188025074Y-103615609D01*
X188025074Y-103615609D02*
X188072693Y-103710847D01*
X188072693Y-103710847D02*
X188072693Y-103948942D01*
X188072693Y-103948942D02*
X188025074Y-104044180D01*
X188025074Y-104044180D02*
X187977455Y-104091800D01*
X187977455Y-104091800D02*
X187882217Y-104139419D01*
X187882217Y-104139419D02*
X187644122Y-104139419D01*
X187644122Y-104139419D02*
X187548884Y-104091800D01*
X187548884Y-104091800D02*
X187501265Y-104044180D01*
X128319884Y-86216609D02*
X128653217Y-86216609D01*
X128796074Y-86740419D02*
X128319884Y-86740419D01*
X128319884Y-86740419D02*
X128319884Y-85740419D01*
X128319884Y-85740419D02*
X128796074Y-85740419D01*
X129224646Y-86740419D02*
X129224646Y-85740419D01*
X129224646Y-85740419D02*
X129796074Y-86740419D01*
X129796074Y-86740419D02*
X129796074Y-85740419D01*
X130843693Y-86645180D02*
X130796074Y-86692800D01*
X130796074Y-86692800D02*
X130653217Y-86740419D01*
X130653217Y-86740419D02*
X130557979Y-86740419D01*
X130557979Y-86740419D02*
X130415122Y-86692800D01*
X130415122Y-86692800D02*
X130319884Y-86597561D01*
X130319884Y-86597561D02*
X130272265Y-86502323D01*
X130272265Y-86502323D02*
X130224646Y-86311847D01*
X130224646Y-86311847D02*
X130224646Y-86168990D01*
X130224646Y-86168990D02*
X130272265Y-85978514D01*
X130272265Y-85978514D02*
X130319884Y-85883276D01*
X130319884Y-85883276D02*
X130415122Y-85788038D01*
X130415122Y-85788038D02*
X130557979Y-85740419D01*
X130557979Y-85740419D02*
X130653217Y-85740419D01*
X130653217Y-85740419D02*
X130796074Y-85788038D01*
X130796074Y-85788038D02*
X130843693Y-85835657D01*
X147065466Y-114504115D02*
X147065466Y-113742211D01*
X147446419Y-114123163D02*
X146684514Y-114123163D01*
X146446419Y-113361258D02*
X146446419Y-112742211D01*
X146446419Y-112742211D02*
X146827371Y-113075544D01*
X146827371Y-113075544D02*
X146827371Y-112932687D01*
X146827371Y-112932687D02*
X146874990Y-112837449D01*
X146874990Y-112837449D02*
X146922609Y-112789830D01*
X146922609Y-112789830D02*
X147017847Y-112742211D01*
X147017847Y-112742211D02*
X147255942Y-112742211D01*
X147255942Y-112742211D02*
X147351180Y-112789830D01*
X147351180Y-112789830D02*
X147398800Y-112837449D01*
X147398800Y-112837449D02*
X147446419Y-112932687D01*
X147446419Y-112932687D02*
X147446419Y-113218401D01*
X147446419Y-113218401D02*
X147398800Y-113313639D01*
X147398800Y-113313639D02*
X147351180Y-113361258D01*
X147351180Y-112313639D02*
X147398800Y-112266020D01*
X147398800Y-112266020D02*
X147446419Y-112313639D01*
X147446419Y-112313639D02*
X147398800Y-112361258D01*
X147398800Y-112361258D02*
X147351180Y-112313639D01*
X147351180Y-112313639D02*
X147446419Y-112313639D01*
X146446419Y-111932687D02*
X146446419Y-111313640D01*
X146446419Y-111313640D02*
X146827371Y-111646973D01*
X146827371Y-111646973D02*
X146827371Y-111504116D01*
X146827371Y-111504116D02*
X146874990Y-111408878D01*
X146874990Y-111408878D02*
X146922609Y-111361259D01*
X146922609Y-111361259D02*
X147017847Y-111313640D01*
X147017847Y-111313640D02*
X147255942Y-111313640D01*
X147255942Y-111313640D02*
X147351180Y-111361259D01*
X147351180Y-111361259D02*
X147398800Y-111408878D01*
X147398800Y-111408878D02*
X147446419Y-111504116D01*
X147446419Y-111504116D02*
X147446419Y-111789830D01*
X147446419Y-111789830D02*
X147398800Y-111885068D01*
X147398800Y-111885068D02*
X147351180Y-111932687D01*
X146446419Y-111027925D02*
X147446419Y-110694592D01*
X147446419Y-110694592D02*
X146446419Y-110361259D01*
X125494074Y-114172419D02*
X125017884Y-114172419D01*
X125017884Y-114172419D02*
X125017884Y-113172419D01*
X126589313Y-114172419D02*
X126589313Y-113172419D01*
X126589313Y-113172419D02*
X126922646Y-113886704D01*
X126922646Y-113886704D02*
X127255979Y-113172419D01*
X127255979Y-113172419D02*
X127255979Y-114172419D01*
X127875027Y-114172419D02*
X127779789Y-114124800D01*
X127779789Y-114124800D02*
X127732170Y-114077180D01*
X127732170Y-114077180D02*
X127684551Y-113981942D01*
X127684551Y-113981942D02*
X127684551Y-113696228D01*
X127684551Y-113696228D02*
X127732170Y-113600990D01*
X127732170Y-113600990D02*
X127779789Y-113553371D01*
X127779789Y-113553371D02*
X127875027Y-113505752D01*
X127875027Y-113505752D02*
X128017884Y-113505752D01*
X128017884Y-113505752D02*
X128113122Y-113553371D01*
X128113122Y-113553371D02*
X128160741Y-113600990D01*
X128160741Y-113600990D02*
X128208360Y-113696228D01*
X128208360Y-113696228D02*
X128208360Y-113981942D01*
X128208360Y-113981942D02*
X128160741Y-114077180D01*
X128160741Y-114077180D02*
X128113122Y-114124800D01*
X128113122Y-114124800D02*
X128017884Y-114172419D01*
X128017884Y-114172419D02*
X127875027Y-114172419D01*
X128494075Y-113505752D02*
X128875027Y-113505752D01*
X128636932Y-113172419D02*
X128636932Y-114029561D01*
X128636932Y-114029561D02*
X128684551Y-114124800D01*
X128684551Y-114124800D02*
X128779789Y-114172419D01*
X128779789Y-114172419D02*
X128875027Y-114172419D01*
X129351218Y-114172419D02*
X129255980Y-114124800D01*
X129255980Y-114124800D02*
X129208361Y-114077180D01*
X129208361Y-114077180D02*
X129160742Y-113981942D01*
X129160742Y-113981942D02*
X129160742Y-113696228D01*
X129160742Y-113696228D02*
X129208361Y-113600990D01*
X129208361Y-113600990D02*
X129255980Y-113553371D01*
X129255980Y-113553371D02*
X129351218Y-113505752D01*
X129351218Y-113505752D02*
X129494075Y-113505752D01*
X129494075Y-113505752D02*
X129589313Y-113553371D01*
X129589313Y-113553371D02*
X129636932Y-113600990D01*
X129636932Y-113600990D02*
X129684551Y-113696228D01*
X129684551Y-113696228D02*
X129684551Y-113981942D01*
X129684551Y-113981942D02*
X129636932Y-114077180D01*
X129636932Y-114077180D02*
X129589313Y-114124800D01*
X129589313Y-114124800D02*
X129494075Y-114172419D01*
X129494075Y-114172419D02*
X129351218Y-114172419D01*
X130113123Y-114172419D02*
X130113123Y-113505752D01*
X130113123Y-113696228D02*
X130160742Y-113600990D01*
X130160742Y-113600990D02*
X130208361Y-113553371D01*
X130208361Y-113553371D02*
X130303599Y-113505752D01*
X130303599Y-113505752D02*
X130398837Y-113505752D01*
X173862419Y-86564115D02*
X172862419Y-86564115D01*
X172862419Y-86564115D02*
X172862419Y-86183163D01*
X172862419Y-86183163D02*
X172910038Y-86087925D01*
X172910038Y-86087925D02*
X172957657Y-86040306D01*
X172957657Y-86040306D02*
X173052895Y-85992687D01*
X173052895Y-85992687D02*
X173195752Y-85992687D01*
X173195752Y-85992687D02*
X173290990Y-86040306D01*
X173290990Y-86040306D02*
X173338609Y-86087925D01*
X173338609Y-86087925D02*
X173386228Y-86183163D01*
X173386228Y-86183163D02*
X173386228Y-86564115D01*
X173814800Y-85611734D02*
X173862419Y-85468877D01*
X173862419Y-85468877D02*
X173862419Y-85230782D01*
X173862419Y-85230782D02*
X173814800Y-85135544D01*
X173814800Y-85135544D02*
X173767180Y-85087925D01*
X173767180Y-85087925D02*
X173671942Y-85040306D01*
X173671942Y-85040306D02*
X173576704Y-85040306D01*
X173576704Y-85040306D02*
X173481466Y-85087925D01*
X173481466Y-85087925D02*
X173433847Y-85135544D01*
X173433847Y-85135544D02*
X173386228Y-85230782D01*
X173386228Y-85230782D02*
X173338609Y-85421258D01*
X173338609Y-85421258D02*
X173290990Y-85516496D01*
X173290990Y-85516496D02*
X173243371Y-85564115D01*
X173243371Y-85564115D02*
X173148133Y-85611734D01*
X173148133Y-85611734D02*
X173052895Y-85611734D01*
X173052895Y-85611734D02*
X172957657Y-85564115D01*
X172957657Y-85564115D02*
X172910038Y-85516496D01*
X172910038Y-85516496D02*
X172862419Y-85421258D01*
X172862419Y-85421258D02*
X172862419Y-85183163D01*
X172862419Y-85183163D02*
X172910038Y-85040306D01*
X173862419Y-84087925D02*
X173862419Y-84659353D01*
X173862419Y-84373639D02*
X172862419Y-84373639D01*
X172862419Y-84373639D02*
X173005276Y-84468877D01*
X173005276Y-84468877D02*
X173100514Y-84564115D01*
X173100514Y-84564115D02*
X173148133Y-84659353D01*
X133971312Y-114172419D02*
X133637979Y-113696228D01*
X133399884Y-114172419D02*
X133399884Y-113172419D01*
X133399884Y-113172419D02*
X133780836Y-113172419D01*
X133780836Y-113172419D02*
X133876074Y-113220038D01*
X133876074Y-113220038D02*
X133923693Y-113267657D01*
X133923693Y-113267657D02*
X133971312Y-113362895D01*
X133971312Y-113362895D02*
X133971312Y-113505752D01*
X133971312Y-113505752D02*
X133923693Y-113600990D01*
X133923693Y-113600990D02*
X133876074Y-113648609D01*
X133876074Y-113648609D02*
X133780836Y-113696228D01*
X133780836Y-113696228D02*
X133399884Y-113696228D01*
X135161789Y-114172419D02*
X135161789Y-113172419D01*
X135161789Y-113172419D02*
X135495122Y-113886704D01*
X135495122Y-113886704D02*
X135828455Y-113172419D01*
X135828455Y-113172419D02*
X135828455Y-114172419D01*
X136447503Y-114172419D02*
X136352265Y-114124800D01*
X136352265Y-114124800D02*
X136304646Y-114077180D01*
X136304646Y-114077180D02*
X136257027Y-113981942D01*
X136257027Y-113981942D02*
X136257027Y-113696228D01*
X136257027Y-113696228D02*
X136304646Y-113600990D01*
X136304646Y-113600990D02*
X136352265Y-113553371D01*
X136352265Y-113553371D02*
X136447503Y-113505752D01*
X136447503Y-113505752D02*
X136590360Y-113505752D01*
X136590360Y-113505752D02*
X136685598Y-113553371D01*
X136685598Y-113553371D02*
X136733217Y-113600990D01*
X136733217Y-113600990D02*
X136780836Y-113696228D01*
X136780836Y-113696228D02*
X136780836Y-113981942D01*
X136780836Y-113981942D02*
X136733217Y-114077180D01*
X136733217Y-114077180D02*
X136685598Y-114124800D01*
X136685598Y-114124800D02*
X136590360Y-114172419D01*
X136590360Y-114172419D02*
X136447503Y-114172419D01*
X137066551Y-113505752D02*
X137447503Y-113505752D01*
X137209408Y-113172419D02*
X137209408Y-114029561D01*
X137209408Y-114029561D02*
X137257027Y-114124800D01*
X137257027Y-114124800D02*
X137352265Y-114172419D01*
X137352265Y-114172419D02*
X137447503Y-114172419D01*
X137923694Y-114172419D02*
X137828456Y-114124800D01*
X137828456Y-114124800D02*
X137780837Y-114077180D01*
X137780837Y-114077180D02*
X137733218Y-113981942D01*
X137733218Y-113981942D02*
X137733218Y-113696228D01*
X137733218Y-113696228D02*
X137780837Y-113600990D01*
X137780837Y-113600990D02*
X137828456Y-113553371D01*
X137828456Y-113553371D02*
X137923694Y-113505752D01*
X137923694Y-113505752D02*
X138066551Y-113505752D01*
X138066551Y-113505752D02*
X138161789Y-113553371D01*
X138161789Y-113553371D02*
X138209408Y-113600990D01*
X138209408Y-113600990D02*
X138257027Y-113696228D01*
X138257027Y-113696228D02*
X138257027Y-113981942D01*
X138257027Y-113981942D02*
X138209408Y-114077180D01*
X138209408Y-114077180D02*
X138161789Y-114124800D01*
X138161789Y-114124800D02*
X138066551Y-114172419D01*
X138066551Y-114172419D02*
X137923694Y-114172419D01*
X138685599Y-114172419D02*
X138685599Y-113505752D01*
X138685599Y-113696228D02*
X138733218Y-113600990D01*
X138733218Y-113600990D02*
X138780837Y-113553371D01*
X138780837Y-113553371D02*
X138876075Y-113505752D01*
X138876075Y-113505752D02*
X138971313Y-113505752D01*
X149938800Y-114297734D02*
X149986419Y-114154877D01*
X149986419Y-114154877D02*
X149986419Y-113916782D01*
X149986419Y-113916782D02*
X149938800Y-113821544D01*
X149938800Y-113821544D02*
X149891180Y-113773925D01*
X149891180Y-113773925D02*
X149795942Y-113726306D01*
X149795942Y-113726306D02*
X149700704Y-113726306D01*
X149700704Y-113726306D02*
X149605466Y-113773925D01*
X149605466Y-113773925D02*
X149557847Y-113821544D01*
X149557847Y-113821544D02*
X149510228Y-113916782D01*
X149510228Y-113916782D02*
X149462609Y-114107258D01*
X149462609Y-114107258D02*
X149414990Y-114202496D01*
X149414990Y-114202496D02*
X149367371Y-114250115D01*
X149367371Y-114250115D02*
X149272133Y-114297734D01*
X149272133Y-114297734D02*
X149176895Y-114297734D01*
X149176895Y-114297734D02*
X149081657Y-114250115D01*
X149081657Y-114250115D02*
X149034038Y-114202496D01*
X149034038Y-114202496D02*
X148986419Y-114107258D01*
X148986419Y-114107258D02*
X148986419Y-113869163D01*
X148986419Y-113869163D02*
X149034038Y-113726306D01*
X148986419Y-113392972D02*
X149986419Y-113154877D01*
X149986419Y-113154877D02*
X149272133Y-112964401D01*
X149272133Y-112964401D02*
X149986419Y-112773925D01*
X149986419Y-112773925D02*
X148986419Y-112535830D01*
X149986419Y-112154877D02*
X148986419Y-112154877D01*
X148986419Y-112154877D02*
X148986419Y-111916782D01*
X148986419Y-111916782D02*
X149034038Y-111773925D01*
X149034038Y-111773925D02*
X149129276Y-111678687D01*
X149129276Y-111678687D02*
X149224514Y-111631068D01*
X149224514Y-111631068D02*
X149414990Y-111583449D01*
X149414990Y-111583449D02*
X149557847Y-111583449D01*
X149557847Y-111583449D02*
X149748323Y-111631068D01*
X149748323Y-111631068D02*
X149843561Y-111678687D01*
X149843561Y-111678687D02*
X149938800Y-111773925D01*
X149938800Y-111773925D02*
X149986419Y-111916782D01*
X149986419Y-111916782D02*
X149986419Y-112154877D01*
X149986419Y-111154877D02*
X148986419Y-111154877D01*
X148986419Y-110488211D02*
X148986419Y-110297735D01*
X148986419Y-110297735D02*
X149034038Y-110202497D01*
X149034038Y-110202497D02*
X149129276Y-110107259D01*
X149129276Y-110107259D02*
X149319752Y-110059640D01*
X149319752Y-110059640D02*
X149653085Y-110059640D01*
X149653085Y-110059640D02*
X149843561Y-110107259D01*
X149843561Y-110107259D02*
X149938800Y-110202497D01*
X149938800Y-110202497D02*
X149986419Y-110297735D01*
X149986419Y-110297735D02*
X149986419Y-110488211D01*
X149986419Y-110488211D02*
X149938800Y-110583449D01*
X149938800Y-110583449D02*
X149843561Y-110678687D01*
X149843561Y-110678687D02*
X149653085Y-110726306D01*
X149653085Y-110726306D02*
X149319752Y-110726306D01*
X149319752Y-110726306D02*
X149129276Y-110678687D01*
X149129276Y-110678687D02*
X149034038Y-110583449D01*
X149034038Y-110583449D02*
X148986419Y-110488211D01*
D11*
X138566014Y-77934819D02*
X138851728Y-78030057D01*
X138851728Y-78030057D02*
X138946966Y-78125295D01*
X138946966Y-78125295D02*
X139042204Y-78315771D01*
X139042204Y-78315771D02*
X139042204Y-78601485D01*
X139042204Y-78601485D02*
X138946966Y-78791961D01*
X138946966Y-78791961D02*
X138851728Y-78887200D01*
X138851728Y-78887200D02*
X138661252Y-78982438D01*
X138661252Y-78982438D02*
X137899347Y-78982438D01*
X137899347Y-78982438D02*
X137899347Y-76982438D01*
X137899347Y-76982438D02*
X138566014Y-76982438D01*
X138566014Y-76982438D02*
X138756490Y-77077676D01*
X138756490Y-77077676D02*
X138851728Y-77172914D01*
X138851728Y-77172914D02*
X138946966Y-77363390D01*
X138946966Y-77363390D02*
X138946966Y-77553866D01*
X138946966Y-77553866D02*
X138851728Y-77744342D01*
X138851728Y-77744342D02*
X138756490Y-77839580D01*
X138756490Y-77839580D02*
X138566014Y-77934819D01*
X138566014Y-77934819D02*
X137899347Y-77934819D01*
X140756490Y-78982438D02*
X140756490Y-77934819D01*
X140756490Y-77934819D02*
X140661252Y-77744342D01*
X140661252Y-77744342D02*
X140470776Y-77649104D01*
X140470776Y-77649104D02*
X140089823Y-77649104D01*
X140089823Y-77649104D02*
X139899347Y-77744342D01*
X140756490Y-78887200D02*
X140566014Y-78982438D01*
X140566014Y-78982438D02*
X140089823Y-78982438D01*
X140089823Y-78982438D02*
X139899347Y-78887200D01*
X139899347Y-78887200D02*
X139804109Y-78696723D01*
X139804109Y-78696723D02*
X139804109Y-78506247D01*
X139804109Y-78506247D02*
X139899347Y-78315771D01*
X139899347Y-78315771D02*
X140089823Y-78220533D01*
X140089823Y-78220533D02*
X140566014Y-78220533D01*
X140566014Y-78220533D02*
X140756490Y-78125295D01*
X141994585Y-78982438D02*
X141804109Y-78887200D01*
X141804109Y-78887200D02*
X141708871Y-78696723D01*
X141708871Y-78696723D02*
X141708871Y-76982438D01*
X143613633Y-78982438D02*
X143613633Y-77934819D01*
X143613633Y-77934819D02*
X143518395Y-77744342D01*
X143518395Y-77744342D02*
X143327919Y-77649104D01*
X143327919Y-77649104D02*
X142946966Y-77649104D01*
X142946966Y-77649104D02*
X142756490Y-77744342D01*
X143613633Y-78887200D02*
X143423157Y-78982438D01*
X143423157Y-78982438D02*
X142946966Y-78982438D01*
X142946966Y-78982438D02*
X142756490Y-78887200D01*
X142756490Y-78887200D02*
X142661252Y-78696723D01*
X142661252Y-78696723D02*
X142661252Y-78506247D01*
X142661252Y-78506247D02*
X142756490Y-78315771D01*
X142756490Y-78315771D02*
X142946966Y-78220533D01*
X142946966Y-78220533D02*
X143423157Y-78220533D01*
X143423157Y-78220533D02*
X143613633Y-78125295D01*
X144566014Y-77649104D02*
X144566014Y-78982438D01*
X144566014Y-77839580D02*
X144661252Y-77744342D01*
X144661252Y-77744342D02*
X144851728Y-77649104D01*
X144851728Y-77649104D02*
X145137443Y-77649104D01*
X145137443Y-77649104D02*
X145327919Y-77744342D01*
X145327919Y-77744342D02*
X145423157Y-77934819D01*
X145423157Y-77934819D02*
X145423157Y-78982438D01*
X147232681Y-78887200D02*
X147042205Y-78982438D01*
X147042205Y-78982438D02*
X146661252Y-78982438D01*
X146661252Y-78982438D02*
X146470776Y-78887200D01*
X146470776Y-78887200D02*
X146375538Y-78791961D01*
X146375538Y-78791961D02*
X146280300Y-78601485D01*
X146280300Y-78601485D02*
X146280300Y-78030057D01*
X146280300Y-78030057D02*
X146375538Y-77839580D01*
X146375538Y-77839580D02*
X146470776Y-77744342D01*
X146470776Y-77744342D02*
X146661252Y-77649104D01*
X146661252Y-77649104D02*
X147042205Y-77649104D01*
X147042205Y-77649104D02*
X147232681Y-77744342D01*
X148851729Y-78887200D02*
X148661253Y-78982438D01*
X148661253Y-78982438D02*
X148280300Y-78982438D01*
X148280300Y-78982438D02*
X148089824Y-78887200D01*
X148089824Y-78887200D02*
X147994586Y-78696723D01*
X147994586Y-78696723D02*
X147994586Y-77934819D01*
X147994586Y-77934819D02*
X148089824Y-77744342D01*
X148089824Y-77744342D02*
X148280300Y-77649104D01*
X148280300Y-77649104D02*
X148661253Y-77649104D01*
X148661253Y-77649104D02*
X148851729Y-77744342D01*
X148851729Y-77744342D02*
X148946967Y-77934819D01*
X148946967Y-77934819D02*
X148946967Y-78125295D01*
X148946967Y-78125295D02*
X147994586Y-78315771D01*
X151994587Y-77934819D02*
X152280301Y-78030057D01*
X152280301Y-78030057D02*
X152375539Y-78125295D01*
X152375539Y-78125295D02*
X152470777Y-78315771D01*
X152470777Y-78315771D02*
X152470777Y-78601485D01*
X152470777Y-78601485D02*
X152375539Y-78791961D01*
X152375539Y-78791961D02*
X152280301Y-78887200D01*
X152280301Y-78887200D02*
X152089825Y-78982438D01*
X152089825Y-78982438D02*
X151327920Y-78982438D01*
X151327920Y-78982438D02*
X151327920Y-76982438D01*
X151327920Y-76982438D02*
X151994587Y-76982438D01*
X151994587Y-76982438D02*
X152185063Y-77077676D01*
X152185063Y-77077676D02*
X152280301Y-77172914D01*
X152280301Y-77172914D02*
X152375539Y-77363390D01*
X152375539Y-77363390D02*
X152375539Y-77553866D01*
X152375539Y-77553866D02*
X152280301Y-77744342D01*
X152280301Y-77744342D02*
X152185063Y-77839580D01*
X152185063Y-77839580D02*
X151994587Y-77934819D01*
X151994587Y-77934819D02*
X151327920Y-77934819D01*
X153613634Y-78982438D02*
X153423158Y-78887200D01*
X153423158Y-78887200D02*
X153327920Y-78791961D01*
X153327920Y-78791961D02*
X153232682Y-78601485D01*
X153232682Y-78601485D02*
X153232682Y-78030057D01*
X153232682Y-78030057D02*
X153327920Y-77839580D01*
X153327920Y-77839580D02*
X153423158Y-77744342D01*
X153423158Y-77744342D02*
X153613634Y-77649104D01*
X153613634Y-77649104D02*
X153899349Y-77649104D01*
X153899349Y-77649104D02*
X154089825Y-77744342D01*
X154089825Y-77744342D02*
X154185063Y-77839580D01*
X154185063Y-77839580D02*
X154280301Y-78030057D01*
X154280301Y-78030057D02*
X154280301Y-78601485D01*
X154280301Y-78601485D02*
X154185063Y-78791961D01*
X154185063Y-78791961D02*
X154089825Y-78887200D01*
X154089825Y-78887200D02*
X153899349Y-78982438D01*
X153899349Y-78982438D02*
X153613634Y-78982438D01*
X154851730Y-77649104D02*
X155613634Y-77649104D01*
X155137444Y-76982438D02*
X155137444Y-78696723D01*
X155137444Y-78696723D02*
X155232682Y-78887200D01*
X155232682Y-78887200D02*
X155423158Y-78982438D01*
X155423158Y-78982438D02*
X155613634Y-78982438D01*
D10*
X111032027Y-78247419D02*
X111365360Y-79247419D01*
X111365360Y-79247419D02*
X111698693Y-78247419D01*
X112032027Y-79247419D02*
X112032027Y-78580752D01*
X112032027Y-78247419D02*
X111984408Y-78295038D01*
X111984408Y-78295038D02*
X112032027Y-78342657D01*
X112032027Y-78342657D02*
X112079646Y-78295038D01*
X112079646Y-78295038D02*
X112032027Y-78247419D01*
X112032027Y-78247419D02*
X112032027Y-78342657D01*
X112508217Y-78580752D02*
X112508217Y-79247419D01*
X112508217Y-78675990D02*
X112555836Y-78628371D01*
X112555836Y-78628371D02*
X112651074Y-78580752D01*
X112651074Y-78580752D02*
X112793931Y-78580752D01*
X112793931Y-78580752D02*
X112889169Y-78628371D01*
X112889169Y-78628371D02*
X112936788Y-78723609D01*
X112936788Y-78723609D02*
X112936788Y-79247419D01*
X114174884Y-78866466D02*
X114936789Y-78866466D01*
X116651074Y-78247419D02*
X116174884Y-78247419D01*
X116174884Y-78247419D02*
X116127265Y-78723609D01*
X116127265Y-78723609D02*
X116174884Y-78675990D01*
X116174884Y-78675990D02*
X116270122Y-78628371D01*
X116270122Y-78628371D02*
X116508217Y-78628371D01*
X116508217Y-78628371D02*
X116603455Y-78675990D01*
X116603455Y-78675990D02*
X116651074Y-78723609D01*
X116651074Y-78723609D02*
X116698693Y-78818847D01*
X116698693Y-78818847D02*
X116698693Y-79056942D01*
X116698693Y-79056942D02*
X116651074Y-79152180D01*
X116651074Y-79152180D02*
X116603455Y-79199800D01*
X116603455Y-79199800D02*
X116508217Y-79247419D01*
X116508217Y-79247419D02*
X116270122Y-79247419D01*
X116270122Y-79247419D02*
X116174884Y-79199800D01*
X116174884Y-79199800D02*
X116127265Y-79152180D01*
X116984408Y-78247419D02*
X117317741Y-79247419D01*
X117317741Y-79247419D02*
X117651074Y-78247419D01*
X118603456Y-78580752D02*
X118984408Y-78580752D01*
X118746313Y-78247419D02*
X118746313Y-79104561D01*
X118746313Y-79104561D02*
X118793932Y-79199800D01*
X118793932Y-79199800D02*
X118889170Y-79247419D01*
X118889170Y-79247419D02*
X118984408Y-79247419D01*
X119460599Y-79247419D02*
X119365361Y-79199800D01*
X119365361Y-79199800D02*
X119317742Y-79152180D01*
X119317742Y-79152180D02*
X119270123Y-79056942D01*
X119270123Y-79056942D02*
X119270123Y-78771228D01*
X119270123Y-78771228D02*
X119317742Y-78675990D01*
X119317742Y-78675990D02*
X119365361Y-78628371D01*
X119365361Y-78628371D02*
X119460599Y-78580752D01*
X119460599Y-78580752D02*
X119603456Y-78580752D01*
X119603456Y-78580752D02*
X119698694Y-78628371D01*
X119698694Y-78628371D02*
X119746313Y-78675990D01*
X119746313Y-78675990D02*
X119793932Y-78771228D01*
X119793932Y-78771228D02*
X119793932Y-79056942D01*
X119793932Y-79056942D02*
X119746313Y-79152180D01*
X119746313Y-79152180D02*
X119698694Y-79199800D01*
X119698694Y-79199800D02*
X119603456Y-79247419D01*
X119603456Y-79247419D02*
X119460599Y-79247419D01*
X121508218Y-79247419D02*
X120936790Y-79247419D01*
X121222504Y-79247419D02*
X121222504Y-78247419D01*
X121222504Y-78247419D02*
X121127266Y-78390276D01*
X121127266Y-78390276D02*
X121032028Y-78485514D01*
X121032028Y-78485514D02*
X120936790Y-78533133D01*
X122079647Y-78675990D02*
X121984409Y-78628371D01*
X121984409Y-78628371D02*
X121936790Y-78580752D01*
X121936790Y-78580752D02*
X121889171Y-78485514D01*
X121889171Y-78485514D02*
X121889171Y-78437895D01*
X121889171Y-78437895D02*
X121936790Y-78342657D01*
X121936790Y-78342657D02*
X121984409Y-78295038D01*
X121984409Y-78295038D02*
X122079647Y-78247419D01*
X122079647Y-78247419D02*
X122270123Y-78247419D01*
X122270123Y-78247419D02*
X122365361Y-78295038D01*
X122365361Y-78295038D02*
X122412980Y-78342657D01*
X122412980Y-78342657D02*
X122460599Y-78437895D01*
X122460599Y-78437895D02*
X122460599Y-78485514D01*
X122460599Y-78485514D02*
X122412980Y-78580752D01*
X122412980Y-78580752D02*
X122365361Y-78628371D01*
X122365361Y-78628371D02*
X122270123Y-78675990D01*
X122270123Y-78675990D02*
X122079647Y-78675990D01*
X122079647Y-78675990D02*
X121984409Y-78723609D01*
X121984409Y-78723609D02*
X121936790Y-78771228D01*
X121936790Y-78771228D02*
X121889171Y-78866466D01*
X121889171Y-78866466D02*
X121889171Y-79056942D01*
X121889171Y-79056942D02*
X121936790Y-79152180D01*
X121936790Y-79152180D02*
X121984409Y-79199800D01*
X121984409Y-79199800D02*
X122079647Y-79247419D01*
X122079647Y-79247419D02*
X122270123Y-79247419D01*
X122270123Y-79247419D02*
X122365361Y-79199800D01*
X122365361Y-79199800D02*
X122412980Y-79152180D01*
X122412980Y-79152180D02*
X122460599Y-79056942D01*
X122460599Y-79056942D02*
X122460599Y-78866466D01*
X122460599Y-78866466D02*
X122412980Y-78771228D01*
X122412980Y-78771228D02*
X122365361Y-78723609D01*
X122365361Y-78723609D02*
X122270123Y-78675990D01*
X122746314Y-78247419D02*
X123079647Y-79247419D01*
X123079647Y-79247419D02*
X123412980Y-78247419D01*
X106569390Y-97331884D02*
X106569390Y-97665217D01*
X106045580Y-97808074D02*
X106045580Y-97331884D01*
X106045580Y-97331884D02*
X107045580Y-97331884D01*
X107045580Y-97331884D02*
X107045580Y-97808074D01*
X106712247Y-98236646D02*
X106045580Y-98236646D01*
X106617009Y-98236646D02*
X106664628Y-98284265D01*
X106664628Y-98284265D02*
X106712247Y-98379503D01*
X106712247Y-98379503D02*
X106712247Y-98522360D01*
X106712247Y-98522360D02*
X106664628Y-98617598D01*
X106664628Y-98617598D02*
X106569390Y-98665217D01*
X106569390Y-98665217D02*
X106045580Y-98665217D01*
X156654038Y-113980306D02*
X156606419Y-114075544D01*
X156606419Y-114075544D02*
X156606419Y-114218401D01*
X156606419Y-114218401D02*
X156654038Y-114361258D01*
X156654038Y-114361258D02*
X156749276Y-114456496D01*
X156749276Y-114456496D02*
X156844514Y-114504115D01*
X156844514Y-114504115D02*
X157034990Y-114551734D01*
X157034990Y-114551734D02*
X157177847Y-114551734D01*
X157177847Y-114551734D02*
X157368323Y-114504115D01*
X157368323Y-114504115D02*
X157463561Y-114456496D01*
X157463561Y-114456496D02*
X157558800Y-114361258D01*
X157558800Y-114361258D02*
X157606419Y-114218401D01*
X157606419Y-114218401D02*
X157606419Y-114123163D01*
X157606419Y-114123163D02*
X157558800Y-113980306D01*
X157558800Y-113980306D02*
X157511180Y-113932687D01*
X157511180Y-113932687D02*
X157177847Y-113932687D01*
X157177847Y-113932687D02*
X157177847Y-114123163D01*
X157606419Y-113504115D02*
X156606419Y-113504115D01*
X156606419Y-113504115D02*
X157606419Y-112932687D01*
X157606419Y-112932687D02*
X156606419Y-112932687D01*
X157606419Y-112456496D02*
X156606419Y-112456496D01*
X156606419Y-112456496D02*
X156606419Y-112218401D01*
X156606419Y-112218401D02*
X156654038Y-112075544D01*
X156654038Y-112075544D02*
X156749276Y-111980306D01*
X156749276Y-111980306D02*
X156844514Y-111932687D01*
X156844514Y-111932687D02*
X157034990Y-111885068D01*
X157034990Y-111885068D02*
X157177847Y-111885068D01*
X157177847Y-111885068D02*
X157368323Y-111932687D01*
X157368323Y-111932687D02*
X157463561Y-111980306D01*
X157463561Y-111980306D02*
X157558800Y-112075544D01*
X157558800Y-112075544D02*
X157606419Y-112218401D01*
X157606419Y-112218401D02*
X157606419Y-112456496D01*
X128589693Y-91122038D02*
X128494455Y-91074419D01*
X128494455Y-91074419D02*
X128351598Y-91074419D01*
X128351598Y-91074419D02*
X128208741Y-91122038D01*
X128208741Y-91122038D02*
X128113503Y-91217276D01*
X128113503Y-91217276D02*
X128065884Y-91312514D01*
X128065884Y-91312514D02*
X128018265Y-91502990D01*
X128018265Y-91502990D02*
X128018265Y-91645847D01*
X128018265Y-91645847D02*
X128065884Y-91836323D01*
X128065884Y-91836323D02*
X128113503Y-91931561D01*
X128113503Y-91931561D02*
X128208741Y-92026800D01*
X128208741Y-92026800D02*
X128351598Y-92074419D01*
X128351598Y-92074419D02*
X128446836Y-92074419D01*
X128446836Y-92074419D02*
X128589693Y-92026800D01*
X128589693Y-92026800D02*
X128637312Y-91979180D01*
X128637312Y-91979180D02*
X128637312Y-91645847D01*
X128637312Y-91645847D02*
X128446836Y-91645847D01*
X129065884Y-92074419D02*
X129065884Y-91074419D01*
X129065884Y-91074419D02*
X129637312Y-92074419D01*
X129637312Y-92074419D02*
X129637312Y-91074419D01*
X130113503Y-92074419D02*
X130113503Y-91074419D01*
X130113503Y-91074419D02*
X130351598Y-91074419D01*
X130351598Y-91074419D02*
X130494455Y-91122038D01*
X130494455Y-91122038D02*
X130589693Y-91217276D01*
X130589693Y-91217276D02*
X130637312Y-91312514D01*
X130637312Y-91312514D02*
X130684931Y-91502990D01*
X130684931Y-91502990D02*
X130684931Y-91645847D01*
X130684931Y-91645847D02*
X130637312Y-91836323D01*
X130637312Y-91836323D02*
X130589693Y-91931561D01*
X130589693Y-91931561D02*
X130494455Y-92026800D01*
X130494455Y-92026800D02*
X130351598Y-92074419D01*
X130351598Y-92074419D02*
X130113503Y-92074419D01*
X172910038Y-97978306D02*
X172862419Y-98073544D01*
X172862419Y-98073544D02*
X172862419Y-98216401D01*
X172862419Y-98216401D02*
X172910038Y-98359258D01*
X172910038Y-98359258D02*
X173005276Y-98454496D01*
X173005276Y-98454496D02*
X173100514Y-98502115D01*
X173100514Y-98502115D02*
X173290990Y-98549734D01*
X173290990Y-98549734D02*
X173433847Y-98549734D01*
X173433847Y-98549734D02*
X173624323Y-98502115D01*
X173624323Y-98502115D02*
X173719561Y-98454496D01*
X173719561Y-98454496D02*
X173814800Y-98359258D01*
X173814800Y-98359258D02*
X173862419Y-98216401D01*
X173862419Y-98216401D02*
X173862419Y-98121163D01*
X173862419Y-98121163D02*
X173814800Y-97978306D01*
X173814800Y-97978306D02*
X173767180Y-97930687D01*
X173767180Y-97930687D02*
X173433847Y-97930687D01*
X173433847Y-97930687D02*
X173433847Y-98121163D01*
X173862419Y-97502115D02*
X172862419Y-97502115D01*
X172862419Y-97502115D02*
X173862419Y-96930687D01*
X173862419Y-96930687D02*
X172862419Y-96930687D01*
X173862419Y-96454496D02*
X172862419Y-96454496D01*
X172862419Y-96454496D02*
X172862419Y-96216401D01*
X172862419Y-96216401D02*
X172910038Y-96073544D01*
X172910038Y-96073544D02*
X173005276Y-95978306D01*
X173005276Y-95978306D02*
X173100514Y-95930687D01*
X173100514Y-95930687D02*
X173290990Y-95883068D01*
X173290990Y-95883068D02*
X173433847Y-95883068D01*
X173433847Y-95883068D02*
X173624323Y-95930687D01*
X173624323Y-95930687D02*
X173719561Y-95978306D01*
X173719561Y-95978306D02*
X173814800Y-96073544D01*
X173814800Y-96073544D02*
X173862419Y-96216401D01*
X173862419Y-96216401D02*
X173862419Y-96454496D01*
X155018800Y-114551734D02*
X155066419Y-114408877D01*
X155066419Y-114408877D02*
X155066419Y-114170782D01*
X155066419Y-114170782D02*
X155018800Y-114075544D01*
X155018800Y-114075544D02*
X154971180Y-114027925D01*
X154971180Y-114027925D02*
X154875942Y-113980306D01*
X154875942Y-113980306D02*
X154780704Y-113980306D01*
X154780704Y-113980306D02*
X154685466Y-114027925D01*
X154685466Y-114027925D02*
X154637847Y-114075544D01*
X154637847Y-114075544D02*
X154590228Y-114170782D01*
X154590228Y-114170782D02*
X154542609Y-114361258D01*
X154542609Y-114361258D02*
X154494990Y-114456496D01*
X154494990Y-114456496D02*
X154447371Y-114504115D01*
X154447371Y-114504115D02*
X154352133Y-114551734D01*
X154352133Y-114551734D02*
X154256895Y-114551734D01*
X154256895Y-114551734D02*
X154161657Y-114504115D01*
X154161657Y-114504115D02*
X154114038Y-114456496D01*
X154114038Y-114456496D02*
X154066419Y-114361258D01*
X154066419Y-114361258D02*
X154066419Y-114123163D01*
X154066419Y-114123163D02*
X154114038Y-113980306D01*
X154066419Y-113646972D02*
X155066419Y-113408877D01*
X155066419Y-113408877D02*
X154352133Y-113218401D01*
X154352133Y-113218401D02*
X155066419Y-113027925D01*
X155066419Y-113027925D02*
X154066419Y-112789830D01*
X154971180Y-111837449D02*
X155018800Y-111885068D01*
X155018800Y-111885068D02*
X155066419Y-112027925D01*
X155066419Y-112027925D02*
X155066419Y-112123163D01*
X155066419Y-112123163D02*
X155018800Y-112266020D01*
X155018800Y-112266020D02*
X154923561Y-112361258D01*
X154923561Y-112361258D02*
X154828323Y-112408877D01*
X154828323Y-112408877D02*
X154637847Y-112456496D01*
X154637847Y-112456496D02*
X154494990Y-112456496D01*
X154494990Y-112456496D02*
X154304514Y-112408877D01*
X154304514Y-112408877D02*
X154209276Y-112361258D01*
X154209276Y-112361258D02*
X154114038Y-112266020D01*
X154114038Y-112266020D02*
X154066419Y-112123163D01*
X154066419Y-112123163D02*
X154066419Y-112027925D01*
X154066419Y-112027925D02*
X154114038Y-111885068D01*
X154114038Y-111885068D02*
X154161657Y-111837449D01*
X155066419Y-110932687D02*
X155066419Y-111408877D01*
X155066419Y-111408877D02*
X154066419Y-111408877D01*
X155066419Y-110599353D02*
X154066419Y-110599353D01*
X155066419Y-110027925D02*
X154494990Y-110456496D01*
X154066419Y-110027925D02*
X154637847Y-110599353D01*
X111506533Y-97077884D02*
X111506533Y-97839789D01*
X111125580Y-97458836D02*
X111887485Y-97458836D01*
X112125580Y-98792169D02*
X112125580Y-98315979D01*
X112125580Y-98315979D02*
X111649390Y-98268360D01*
X111649390Y-98268360D02*
X111697009Y-98315979D01*
X111697009Y-98315979D02*
X111744628Y-98411217D01*
X111744628Y-98411217D02*
X111744628Y-98649312D01*
X111744628Y-98649312D02*
X111697009Y-98744550D01*
X111697009Y-98744550D02*
X111649390Y-98792169D01*
X111649390Y-98792169D02*
X111554152Y-98839788D01*
X111554152Y-98839788D02*
X111316057Y-98839788D01*
X111316057Y-98839788D02*
X111220819Y-98792169D01*
X111220819Y-98792169D02*
X111173200Y-98744550D01*
X111173200Y-98744550D02*
X111125580Y-98649312D01*
X111125580Y-98649312D02*
X111125580Y-98411217D01*
X111125580Y-98411217D02*
X111173200Y-98315979D01*
X111173200Y-98315979D02*
X111220819Y-98268360D01*
X112125580Y-99125503D02*
X111125580Y-99458836D01*
X111125580Y-99458836D02*
X112125580Y-99792169D01*
X106755284Y-104571219D02*
X106755284Y-103571219D01*
X106755284Y-103571219D02*
X107088617Y-104285504D01*
X107088617Y-104285504D02*
X107421950Y-103571219D01*
X107421950Y-103571219D02*
X107421950Y-104571219D01*
X107898141Y-104571219D02*
X107898141Y-103571219D01*
X107898141Y-103571219D02*
X108279093Y-103571219D01*
X108279093Y-103571219D02*
X108374331Y-103618838D01*
X108374331Y-103618838D02*
X108421950Y-103666457D01*
X108421950Y-103666457D02*
X108469569Y-103761695D01*
X108469569Y-103761695D02*
X108469569Y-103904552D01*
X108469569Y-103904552D02*
X108421950Y-103999790D01*
X108421950Y-103999790D02*
X108374331Y-104047409D01*
X108374331Y-104047409D02*
X108279093Y-104095028D01*
X108279093Y-104095028D02*
X107898141Y-104095028D01*
X108898141Y-104571219D02*
X108898141Y-103571219D01*
X108898141Y-103571219D02*
X109231474Y-104285504D01*
X109231474Y-104285504D02*
X109564807Y-103571219D01*
X109564807Y-103571219D02*
X109564807Y-104571219D01*
X109945760Y-103571219D02*
X110564807Y-103571219D01*
X110564807Y-103571219D02*
X110231474Y-103952171D01*
X110231474Y-103952171D02*
X110374331Y-103952171D01*
X110374331Y-103952171D02*
X110469569Y-103999790D01*
X110469569Y-103999790D02*
X110517188Y-104047409D01*
X110517188Y-104047409D02*
X110564807Y-104142647D01*
X110564807Y-104142647D02*
X110564807Y-104380742D01*
X110564807Y-104380742D02*
X110517188Y-104475980D01*
X110517188Y-104475980D02*
X110469569Y-104523600D01*
X110469569Y-104523600D02*
X110374331Y-104571219D01*
X110374331Y-104571219D02*
X110088617Y-104571219D01*
X110088617Y-104571219D02*
X109993379Y-104523600D01*
X109993379Y-104523600D02*
X109945760Y-104475980D01*
X111421950Y-103571219D02*
X111231474Y-103571219D01*
X111231474Y-103571219D02*
X111136236Y-103618838D01*
X111136236Y-103618838D02*
X111088617Y-103666457D01*
X111088617Y-103666457D02*
X110993379Y-103809314D01*
X110993379Y-103809314D02*
X110945760Y-103999790D01*
X110945760Y-103999790D02*
X110945760Y-104380742D01*
X110945760Y-104380742D02*
X110993379Y-104475980D01*
X110993379Y-104475980D02*
X111040998Y-104523600D01*
X111040998Y-104523600D02*
X111136236Y-104571219D01*
X111136236Y-104571219D02*
X111326712Y-104571219D01*
X111326712Y-104571219D02*
X111421950Y-104523600D01*
X111421950Y-104523600D02*
X111469569Y-104475980D01*
X111469569Y-104475980D02*
X111517188Y-104380742D01*
X111517188Y-104380742D02*
X111517188Y-104142647D01*
X111517188Y-104142647D02*
X111469569Y-104047409D01*
X111469569Y-104047409D02*
X111421950Y-103999790D01*
X111421950Y-103999790D02*
X111326712Y-103952171D01*
X111326712Y-103952171D02*
X111136236Y-103952171D01*
X111136236Y-103952171D02*
X111040998Y-103999790D01*
X111040998Y-103999790D02*
X110993379Y-104047409D01*
X110993379Y-104047409D02*
X110945760Y-104142647D01*
X112469569Y-104571219D02*
X111898141Y-104571219D01*
X112183855Y-104571219D02*
X112183855Y-103571219D01*
X112183855Y-103571219D02*
X112088617Y-103714076D01*
X112088617Y-103714076D02*
X111993379Y-103809314D01*
X111993379Y-103809314D02*
X111898141Y-103856933D01*
X113088617Y-103571219D02*
X113183855Y-103571219D01*
X113183855Y-103571219D02*
X113279093Y-103618838D01*
X113279093Y-103618838D02*
X113326712Y-103666457D01*
X113326712Y-103666457D02*
X113374331Y-103761695D01*
X113374331Y-103761695D02*
X113421950Y-103952171D01*
X113421950Y-103952171D02*
X113421950Y-104190266D01*
X113421950Y-104190266D02*
X113374331Y-104380742D01*
X113374331Y-104380742D02*
X113326712Y-104475980D01*
X113326712Y-104475980D02*
X113279093Y-104523600D01*
X113279093Y-104523600D02*
X113183855Y-104571219D01*
X113183855Y-104571219D02*
X113088617Y-104571219D01*
X113088617Y-104571219D02*
X112993379Y-104523600D01*
X112993379Y-104523600D02*
X112945760Y-104475980D01*
X112945760Y-104475980D02*
X112898141Y-104380742D01*
X112898141Y-104380742D02*
X112850522Y-104190266D01*
X112850522Y-104190266D02*
X112850522Y-103952171D01*
X112850522Y-103952171D02*
X112898141Y-103761695D01*
X112898141Y-103761695D02*
X112945760Y-103666457D01*
X112945760Y-103666457D02*
X112993379Y-103618838D01*
X112993379Y-103618838D02*
X113088617Y-103571219D01*
X114617961Y-97601693D02*
X114665580Y-97506455D01*
X114665580Y-97506455D02*
X114665580Y-97363598D01*
X114665580Y-97363598D02*
X114617961Y-97220741D01*
X114617961Y-97220741D02*
X114522723Y-97125503D01*
X114522723Y-97125503D02*
X114427485Y-97077884D01*
X114427485Y-97077884D02*
X114237009Y-97030265D01*
X114237009Y-97030265D02*
X114094152Y-97030265D01*
X114094152Y-97030265D02*
X113903676Y-97077884D01*
X113903676Y-97077884D02*
X113808438Y-97125503D01*
X113808438Y-97125503D02*
X113713200Y-97220741D01*
X113713200Y-97220741D02*
X113665580Y-97363598D01*
X113665580Y-97363598D02*
X113665580Y-97458836D01*
X113665580Y-97458836D02*
X113713200Y-97601693D01*
X113713200Y-97601693D02*
X113760819Y-97649312D01*
X113760819Y-97649312D02*
X114094152Y-97649312D01*
X114094152Y-97649312D02*
X114094152Y-97458836D01*
X113665580Y-98077884D02*
X114665580Y-98077884D01*
X114665580Y-98077884D02*
X113665580Y-98649312D01*
X113665580Y-98649312D02*
X114665580Y-98649312D01*
X113665580Y-99125503D02*
X114665580Y-99125503D01*
X114665580Y-99125503D02*
X114665580Y-99363598D01*
X114665580Y-99363598D02*
X114617961Y-99506455D01*
X114617961Y-99506455D02*
X114522723Y-99601693D01*
X114522723Y-99601693D02*
X114427485Y-99649312D01*
X114427485Y-99649312D02*
X114237009Y-99696931D01*
X114237009Y-99696931D02*
X114094152Y-99696931D01*
X114094152Y-99696931D02*
X113903676Y-99649312D01*
X113903676Y-99649312D02*
X113808438Y-99601693D01*
X113808438Y-99601693D02*
X113713200Y-99506455D01*
X113713200Y-99506455D02*
X113665580Y-99363598D01*
X113665580Y-99363598D02*
X113665580Y-99125503D01*
X105205884Y-89458266D02*
X105967789Y-89458266D01*
X105586836Y-89839219D02*
X105586836Y-89077314D01*
X102015027Y-91658619D02*
X102348360Y-92658619D01*
X102348360Y-92658619D02*
X102681693Y-91658619D01*
X103015027Y-92658619D02*
X103015027Y-91991952D01*
X103015027Y-91658619D02*
X102967408Y-91706238D01*
X102967408Y-91706238D02*
X103015027Y-91753857D01*
X103015027Y-91753857D02*
X103062646Y-91706238D01*
X103062646Y-91706238D02*
X103015027Y-91658619D01*
X103015027Y-91658619D02*
X103015027Y-91753857D01*
X103491217Y-91991952D02*
X103491217Y-92658619D01*
X103491217Y-92087190D02*
X103538836Y-92039571D01*
X103538836Y-92039571D02*
X103634074Y-91991952D01*
X103634074Y-91991952D02*
X103776931Y-91991952D01*
X103776931Y-91991952D02*
X103872169Y-92039571D01*
X103872169Y-92039571D02*
X103919788Y-92134809D01*
X103919788Y-92134809D02*
X103919788Y-92658619D01*
X171322419Y-86818115D02*
X170322419Y-86818115D01*
X170322419Y-86818115D02*
X170322419Y-86437163D01*
X170322419Y-86437163D02*
X170370038Y-86341925D01*
X170370038Y-86341925D02*
X170417657Y-86294306D01*
X170417657Y-86294306D02*
X170512895Y-86246687D01*
X170512895Y-86246687D02*
X170655752Y-86246687D01*
X170655752Y-86246687D02*
X170750990Y-86294306D01*
X170750990Y-86294306D02*
X170798609Y-86341925D01*
X170798609Y-86341925D02*
X170846228Y-86437163D01*
X170846228Y-86437163D02*
X170846228Y-86818115D01*
X171274800Y-85865734D02*
X171322419Y-85722877D01*
X171322419Y-85722877D02*
X171322419Y-85484782D01*
X171322419Y-85484782D02*
X171274800Y-85389544D01*
X171274800Y-85389544D02*
X171227180Y-85341925D01*
X171227180Y-85341925D02*
X171131942Y-85294306D01*
X171131942Y-85294306D02*
X171036704Y-85294306D01*
X171036704Y-85294306D02*
X170941466Y-85341925D01*
X170941466Y-85341925D02*
X170893847Y-85389544D01*
X170893847Y-85389544D02*
X170846228Y-85484782D01*
X170846228Y-85484782D02*
X170798609Y-85675258D01*
X170798609Y-85675258D02*
X170750990Y-85770496D01*
X170750990Y-85770496D02*
X170703371Y-85818115D01*
X170703371Y-85818115D02*
X170608133Y-85865734D01*
X170608133Y-85865734D02*
X170512895Y-85865734D01*
X170512895Y-85865734D02*
X170417657Y-85818115D01*
X170417657Y-85818115D02*
X170370038Y-85770496D01*
X170370038Y-85770496D02*
X170322419Y-85675258D01*
X170322419Y-85675258D02*
X170322419Y-85437163D01*
X170322419Y-85437163D02*
X170370038Y-85294306D01*
X170322419Y-84675258D02*
X170322419Y-84580020D01*
X170322419Y-84580020D02*
X170370038Y-84484782D01*
X170370038Y-84484782D02*
X170417657Y-84437163D01*
X170417657Y-84437163D02*
X170512895Y-84389544D01*
X170512895Y-84389544D02*
X170703371Y-84341925D01*
X170703371Y-84341925D02*
X170941466Y-84341925D01*
X170941466Y-84341925D02*
X171131942Y-84389544D01*
X171131942Y-84389544D02*
X171227180Y-84437163D01*
X171227180Y-84437163D02*
X171274800Y-84484782D01*
X171274800Y-84484782D02*
X171322419Y-84580020D01*
X171322419Y-84580020D02*
X171322419Y-84675258D01*
X171322419Y-84675258D02*
X171274800Y-84770496D01*
X171274800Y-84770496D02*
X171227180Y-84818115D01*
X171227180Y-84818115D02*
X171131942Y-84865734D01*
X171131942Y-84865734D02*
X170941466Y-84913353D01*
X170941466Y-84913353D02*
X170703371Y-84913353D01*
X170703371Y-84913353D02*
X170512895Y-84865734D01*
X170512895Y-84865734D02*
X170417657Y-84818115D01*
X170417657Y-84818115D02*
X170370038Y-84770496D01*
X170370038Y-84770496D02*
X170322419Y-84675258D01*
X176656419Y-86056115D02*
X175656419Y-86056115D01*
X176656419Y-85579925D02*
X175656419Y-85579925D01*
X175656419Y-85579925D02*
X176656419Y-85008497D01*
X176656419Y-85008497D02*
X175656419Y-85008497D01*
X175656419Y-84675163D02*
X175656419Y-84103735D01*
X176656419Y-84389449D02*
X175656419Y-84389449D01*
X108904761Y-92552657D02*
X108809523Y-92505038D01*
X108809523Y-92505038D02*
X108714285Y-92409800D01*
X108714285Y-92409800D02*
X108571428Y-92266942D01*
X108571428Y-92266942D02*
X108476190Y-92219323D01*
X108476190Y-92219323D02*
X108380952Y-92219323D01*
X108428571Y-92457419D02*
X108333333Y-92409800D01*
X108333333Y-92409800D02*
X108238095Y-92314561D01*
X108238095Y-92314561D02*
X108190476Y-92124085D01*
X108190476Y-92124085D02*
X108190476Y-91790752D01*
X108190476Y-91790752D02*
X108238095Y-91600276D01*
X108238095Y-91600276D02*
X108333333Y-91505038D01*
X108333333Y-91505038D02*
X108428571Y-91457419D01*
X108428571Y-91457419D02*
X108619047Y-91457419D01*
X108619047Y-91457419D02*
X108714285Y-91505038D01*
X108714285Y-91505038D02*
X108809523Y-91600276D01*
X108809523Y-91600276D02*
X108857142Y-91790752D01*
X108857142Y-91790752D02*
X108857142Y-92124085D01*
X108857142Y-92124085D02*
X108809523Y-92314561D01*
X108809523Y-92314561D02*
X108714285Y-92409800D01*
X108714285Y-92409800D02*
X108619047Y-92457419D01*
X108619047Y-92457419D02*
X108428571Y-92457419D01*
X109809523Y-92457419D02*
X109238095Y-92457419D01*
X109523809Y-92457419D02*
X109523809Y-91457419D01*
X109523809Y-91457419D02*
X109428571Y-91600276D01*
X109428571Y-91600276D02*
X109333333Y-91695514D01*
X109333333Y-91695514D02*
X109238095Y-91743133D01*
D12*
X119981742Y-94060180D02*
X119934123Y-94107800D01*
X119934123Y-94107800D02*
X119791266Y-94155419D01*
X119791266Y-94155419D02*
X119696028Y-94155419D01*
X119696028Y-94155419D02*
X119553171Y-94107800D01*
X119553171Y-94107800D02*
X119457933Y-94012561D01*
X119457933Y-94012561D02*
X119410314Y-93917323D01*
X119410314Y-93917323D02*
X119362695Y-93726847D01*
X119362695Y-93726847D02*
X119362695Y-93583990D01*
X119362695Y-93583990D02*
X119410314Y-93393514D01*
X119410314Y-93393514D02*
X119457933Y-93298276D01*
X119457933Y-93298276D02*
X119553171Y-93203038D01*
X119553171Y-93203038D02*
X119696028Y-93155419D01*
X119696028Y-93155419D02*
X119791266Y-93155419D01*
X119791266Y-93155419D02*
X119934123Y-93203038D01*
X119934123Y-93203038D02*
X119981742Y-93250657D01*
X120934123Y-94155419D02*
X120362695Y-94155419D01*
X120648409Y-94155419D02*
X120648409Y-93155419D01*
X120648409Y-93155419D02*
X120553171Y-93298276D01*
X120553171Y-93298276D02*
X120457933Y-93393514D01*
X120457933Y-93393514D02*
X120362695Y-93441133D01*
X121791266Y-93155419D02*
X121600790Y-93155419D01*
X121600790Y-93155419D02*
X121505552Y-93203038D01*
X121505552Y-93203038D02*
X121457933Y-93250657D01*
X121457933Y-93250657D02*
X121362695Y-93393514D01*
X121362695Y-93393514D02*
X121315076Y-93583990D01*
X121315076Y-93583990D02*
X121315076Y-93964942D01*
X121315076Y-93964942D02*
X121362695Y-94060180D01*
X121362695Y-94060180D02*
X121410314Y-94107800D01*
X121410314Y-94107800D02*
X121505552Y-94155419D01*
X121505552Y-94155419D02*
X121696028Y-94155419D01*
X121696028Y-94155419D02*
X121791266Y-94107800D01*
X121791266Y-94107800D02*
X121838885Y-94060180D01*
X121838885Y-94060180D02*
X121886504Y-93964942D01*
X121886504Y-93964942D02*
X121886504Y-93726847D01*
X121886504Y-93726847D02*
X121838885Y-93631609D01*
X121838885Y-93631609D02*
X121791266Y-93583990D01*
X121791266Y-93583990D02*
X121696028Y-93536371D01*
X121696028Y-93536371D02*
X121505552Y-93536371D01*
X121505552Y-93536371D02*
X121410314Y-93583990D01*
X121410314Y-93583990D02*
X121362695Y-93631609D01*
X121362695Y-93631609D02*
X121315076Y-93726847D01*
X130903095Y-95459819D02*
X130903095Y-96269342D01*
X130903095Y-96269342D02*
X130950714Y-96364580D01*
X130950714Y-96364580D02*
X130998333Y-96412200D01*
X130998333Y-96412200D02*
X131093571Y-96459819D01*
X131093571Y-96459819D02*
X131284047Y-96459819D01*
X131284047Y-96459819D02*
X131379285Y-96412200D01*
X131379285Y-96412200D02*
X131426904Y-96364580D01*
X131426904Y-96364580D02*
X131474523Y-96269342D01*
X131474523Y-96269342D02*
X131474523Y-95459819D01*
X132379285Y-95793152D02*
X132379285Y-96459819D01*
X132141190Y-95412200D02*
X131903095Y-96126485D01*
X131903095Y-96126485D02*
X132522142Y-96126485D01*
X131790666Y-116015819D02*
X131790666Y-116730104D01*
X131790666Y-116730104D02*
X131743047Y-116872961D01*
X131743047Y-116872961D02*
X131647809Y-116968200D01*
X131647809Y-116968200D02*
X131504952Y-117015819D01*
X131504952Y-117015819D02*
X131409714Y-117015819D01*
X132743047Y-116015819D02*
X132266857Y-116015819D01*
X132266857Y-116015819D02*
X132219238Y-116492009D01*
X132219238Y-116492009D02*
X132266857Y-116444390D01*
X132266857Y-116444390D02*
X132362095Y-116396771D01*
X132362095Y-116396771D02*
X132600190Y-116396771D01*
X132600190Y-116396771D02*
X132695428Y-116444390D01*
X132695428Y-116444390D02*
X132743047Y-116492009D01*
X132743047Y-116492009D02*
X132790666Y-116587247D01*
X132790666Y-116587247D02*
X132790666Y-116825342D01*
X132790666Y-116825342D02*
X132743047Y-116920580D01*
X132743047Y-116920580D02*
X132695428Y-116968200D01*
X132695428Y-116968200D02*
X132600190Y-117015819D01*
X132600190Y-117015819D02*
X132362095Y-117015819D01*
X132362095Y-117015819D02*
X132266857Y-116968200D01*
X132266857Y-116968200D02*
X132219238Y-116920580D01*
X162496833Y-111705819D02*
X162163500Y-111229628D01*
X161925405Y-111705819D02*
X161925405Y-110705819D01*
X161925405Y-110705819D02*
X162306357Y-110705819D01*
X162306357Y-110705819D02*
X162401595Y-110753438D01*
X162401595Y-110753438D02*
X162449214Y-110801057D01*
X162449214Y-110801057D02*
X162496833Y-110896295D01*
X162496833Y-110896295D02*
X162496833Y-111039152D01*
X162496833Y-111039152D02*
X162449214Y-111134390D01*
X162449214Y-111134390D02*
X162401595Y-111182009D01*
X162401595Y-111182009D02*
X162306357Y-111229628D01*
X162306357Y-111229628D02*
X161925405Y-111229628D01*
X162830167Y-110705819D02*
X163496833Y-110705819D01*
X163496833Y-110705819D02*
X163068262Y-111705819D01*
X170175933Y-115065980D02*
X170128314Y-115113600D01*
X170128314Y-115113600D02*
X169985457Y-115161219D01*
X169985457Y-115161219D02*
X169890219Y-115161219D01*
X169890219Y-115161219D02*
X169747362Y-115113600D01*
X169747362Y-115113600D02*
X169652124Y-115018361D01*
X169652124Y-115018361D02*
X169604505Y-114923123D01*
X169604505Y-114923123D02*
X169556886Y-114732647D01*
X169556886Y-114732647D02*
X169556886Y-114589790D01*
X169556886Y-114589790D02*
X169604505Y-114399314D01*
X169604505Y-114399314D02*
X169652124Y-114304076D01*
X169652124Y-114304076D02*
X169747362Y-114208838D01*
X169747362Y-114208838D02*
X169890219Y-114161219D01*
X169890219Y-114161219D02*
X169985457Y-114161219D01*
X169985457Y-114161219D02*
X170128314Y-114208838D01*
X170128314Y-114208838D02*
X170175933Y-114256457D01*
X171128314Y-115161219D02*
X170556886Y-115161219D01*
X170842600Y-115161219D02*
X170842600Y-114161219D01*
X170842600Y-114161219D02*
X170747362Y-114304076D01*
X170747362Y-114304076D02*
X170652124Y-114399314D01*
X170652124Y-114399314D02*
X170556886Y-114446933D01*
X123563142Y-85957580D02*
X123515523Y-86005200D01*
X123515523Y-86005200D02*
X123372666Y-86052819D01*
X123372666Y-86052819D02*
X123277428Y-86052819D01*
X123277428Y-86052819D02*
X123134571Y-86005200D01*
X123134571Y-86005200D02*
X123039333Y-85909961D01*
X123039333Y-85909961D02*
X122991714Y-85814723D01*
X122991714Y-85814723D02*
X122944095Y-85624247D01*
X122944095Y-85624247D02*
X122944095Y-85481390D01*
X122944095Y-85481390D02*
X122991714Y-85290914D01*
X122991714Y-85290914D02*
X123039333Y-85195676D01*
X123039333Y-85195676D02*
X123134571Y-85100438D01*
X123134571Y-85100438D02*
X123277428Y-85052819D01*
X123277428Y-85052819D02*
X123372666Y-85052819D01*
X123372666Y-85052819D02*
X123515523Y-85100438D01*
X123515523Y-85100438D02*
X123563142Y-85148057D01*
X124515523Y-86052819D02*
X123944095Y-86052819D01*
X124229809Y-86052819D02*
X124229809Y-85052819D01*
X124229809Y-85052819D02*
X124134571Y-85195676D01*
X124134571Y-85195676D02*
X124039333Y-85290914D01*
X124039333Y-85290914D02*
X123944095Y-85338533D01*
X124848857Y-85052819D02*
X125467904Y-85052819D01*
X125467904Y-85052819D02*
X125134571Y-85433771D01*
X125134571Y-85433771D02*
X125277428Y-85433771D01*
X125277428Y-85433771D02*
X125372666Y-85481390D01*
X125372666Y-85481390D02*
X125420285Y-85529009D01*
X125420285Y-85529009D02*
X125467904Y-85624247D01*
X125467904Y-85624247D02*
X125467904Y-85862342D01*
X125467904Y-85862342D02*
X125420285Y-85957580D01*
X125420285Y-85957580D02*
X125372666Y-86005200D01*
X125372666Y-86005200D02*
X125277428Y-86052819D01*
X125277428Y-86052819D02*
X124991714Y-86052819D01*
X124991714Y-86052819D02*
X124896476Y-86005200D01*
X124896476Y-86005200D02*
X124848857Y-85957580D01*
X113657142Y-85957580D02*
X113609523Y-86005200D01*
X113609523Y-86005200D02*
X113466666Y-86052819D01*
X113466666Y-86052819D02*
X113371428Y-86052819D01*
X113371428Y-86052819D02*
X113228571Y-86005200D01*
X113228571Y-86005200D02*
X113133333Y-85909961D01*
X113133333Y-85909961D02*
X113085714Y-85814723D01*
X113085714Y-85814723D02*
X113038095Y-85624247D01*
X113038095Y-85624247D02*
X113038095Y-85481390D01*
X113038095Y-85481390D02*
X113085714Y-85290914D01*
X113085714Y-85290914D02*
X113133333Y-85195676D01*
X113133333Y-85195676D02*
X113228571Y-85100438D01*
X113228571Y-85100438D02*
X113371428Y-85052819D01*
X113371428Y-85052819D02*
X113466666Y-85052819D01*
X113466666Y-85052819D02*
X113609523Y-85100438D01*
X113609523Y-85100438D02*
X113657142Y-85148057D01*
X114609523Y-86052819D02*
X114038095Y-86052819D01*
X114323809Y-86052819D02*
X114323809Y-85052819D01*
X114323809Y-85052819D02*
X114228571Y-85195676D01*
X114228571Y-85195676D02*
X114133333Y-85290914D01*
X114133333Y-85290914D02*
X114038095Y-85338533D01*
X115561904Y-86052819D02*
X114990476Y-86052819D01*
X115276190Y-86052819D02*
X115276190Y-85052819D01*
X115276190Y-85052819D02*
X115180952Y-85195676D01*
X115180952Y-85195676D02*
X115085714Y-85290914D01*
X115085714Y-85290914D02*
X114990476Y-85338533D01*
X119213333Y-102459819D02*
X118880000Y-101983628D01*
X118641905Y-102459819D02*
X118641905Y-101459819D01*
X118641905Y-101459819D02*
X119022857Y-101459819D01*
X119022857Y-101459819D02*
X119118095Y-101507438D01*
X119118095Y-101507438D02*
X119165714Y-101555057D01*
X119165714Y-101555057D02*
X119213333Y-101650295D01*
X119213333Y-101650295D02*
X119213333Y-101793152D01*
X119213333Y-101793152D02*
X119165714Y-101888390D01*
X119165714Y-101888390D02*
X119118095Y-101936009D01*
X119118095Y-101936009D02*
X119022857Y-101983628D01*
X119022857Y-101983628D02*
X118641905Y-101983628D01*
X120118095Y-101459819D02*
X119641905Y-101459819D01*
X119641905Y-101459819D02*
X119594286Y-101936009D01*
X119594286Y-101936009D02*
X119641905Y-101888390D01*
X119641905Y-101888390D02*
X119737143Y-101840771D01*
X119737143Y-101840771D02*
X119975238Y-101840771D01*
X119975238Y-101840771D02*
X120070476Y-101888390D01*
X120070476Y-101888390D02*
X120118095Y-101936009D01*
X120118095Y-101936009D02*
X120165714Y-102031247D01*
X120165714Y-102031247D02*
X120165714Y-102269342D01*
X120165714Y-102269342D02*
X120118095Y-102364580D01*
X120118095Y-102364580D02*
X120070476Y-102412200D01*
X120070476Y-102412200D02*
X119975238Y-102459819D01*
X119975238Y-102459819D02*
X119737143Y-102459819D01*
X119737143Y-102459819D02*
X119641905Y-102412200D01*
X119641905Y-102412200D02*
X119594286Y-102364580D01*
X118284095Y-85642819D02*
X118284095Y-86452342D01*
X118284095Y-86452342D02*
X118331714Y-86547580D01*
X118331714Y-86547580D02*
X118379333Y-86595200D01*
X118379333Y-86595200D02*
X118474571Y-86642819D01*
X118474571Y-86642819D02*
X118665047Y-86642819D01*
X118665047Y-86642819D02*
X118760285Y-86595200D01*
X118760285Y-86595200D02*
X118807904Y-86547580D01*
X118807904Y-86547580D02*
X118855523Y-86452342D01*
X118855523Y-86452342D02*
X118855523Y-85642819D01*
X119760285Y-85642819D02*
X119569809Y-85642819D01*
X119569809Y-85642819D02*
X119474571Y-85690438D01*
X119474571Y-85690438D02*
X119426952Y-85738057D01*
X119426952Y-85738057D02*
X119331714Y-85880914D01*
X119331714Y-85880914D02*
X119284095Y-86071390D01*
X119284095Y-86071390D02*
X119284095Y-86452342D01*
X119284095Y-86452342D02*
X119331714Y-86547580D01*
X119331714Y-86547580D02*
X119379333Y-86595200D01*
X119379333Y-86595200D02*
X119474571Y-86642819D01*
X119474571Y-86642819D02*
X119665047Y-86642819D01*
X119665047Y-86642819D02*
X119760285Y-86595200D01*
X119760285Y-86595200D02*
X119807904Y-86547580D01*
X119807904Y-86547580D02*
X119855523Y-86452342D01*
X119855523Y-86452342D02*
X119855523Y-86214247D01*
X119855523Y-86214247D02*
X119807904Y-86119009D01*
X119807904Y-86119009D02*
X119760285Y-86071390D01*
X119760285Y-86071390D02*
X119665047Y-86023771D01*
X119665047Y-86023771D02*
X119474571Y-86023771D01*
X119474571Y-86023771D02*
X119379333Y-86071390D01*
X119379333Y-86071390D02*
X119331714Y-86119009D01*
X119331714Y-86119009D02*
X119284095Y-86214247D01*
X161580533Y-104671019D02*
X161247200Y-104194828D01*
X161009105Y-104671019D02*
X161009105Y-103671019D01*
X161009105Y-103671019D02*
X161390057Y-103671019D01*
X161390057Y-103671019D02*
X161485295Y-103718638D01*
X161485295Y-103718638D02*
X161532914Y-103766257D01*
X161532914Y-103766257D02*
X161580533Y-103861495D01*
X161580533Y-103861495D02*
X161580533Y-104004352D01*
X161580533Y-104004352D02*
X161532914Y-104099590D01*
X161532914Y-104099590D02*
X161485295Y-104147209D01*
X161485295Y-104147209D02*
X161390057Y-104194828D01*
X161390057Y-104194828D02*
X161009105Y-104194828D01*
X161913867Y-103671019D02*
X162532914Y-103671019D01*
X162532914Y-103671019D02*
X162199581Y-104051971D01*
X162199581Y-104051971D02*
X162342438Y-104051971D01*
X162342438Y-104051971D02*
X162437676Y-104099590D01*
X162437676Y-104099590D02*
X162485295Y-104147209D01*
X162485295Y-104147209D02*
X162532914Y-104242447D01*
X162532914Y-104242447D02*
X162532914Y-104480542D01*
X162532914Y-104480542D02*
X162485295Y-104575780D01*
X162485295Y-104575780D02*
X162437676Y-104623400D01*
X162437676Y-104623400D02*
X162342438Y-104671019D01*
X162342438Y-104671019D02*
X162056724Y-104671019D01*
X162056724Y-104671019D02*
X161961486Y-104623400D01*
X161961486Y-104623400D02*
X161913867Y-104575780D01*
X161732933Y-107185619D02*
X161399600Y-106709428D01*
X161161505Y-107185619D02*
X161161505Y-106185619D01*
X161161505Y-106185619D02*
X161542457Y-106185619D01*
X161542457Y-106185619D02*
X161637695Y-106233238D01*
X161637695Y-106233238D02*
X161685314Y-106280857D01*
X161685314Y-106280857D02*
X161732933Y-106376095D01*
X161732933Y-106376095D02*
X161732933Y-106518952D01*
X161732933Y-106518952D02*
X161685314Y-106614190D01*
X161685314Y-106614190D02*
X161637695Y-106661809D01*
X161637695Y-106661809D02*
X161542457Y-106709428D01*
X161542457Y-106709428D02*
X161161505Y-106709428D01*
X162113886Y-106280857D02*
X162161505Y-106233238D01*
X162161505Y-106233238D02*
X162256743Y-106185619D01*
X162256743Y-106185619D02*
X162494838Y-106185619D01*
X162494838Y-106185619D02*
X162590076Y-106233238D01*
X162590076Y-106233238D02*
X162637695Y-106280857D01*
X162637695Y-106280857D02*
X162685314Y-106376095D01*
X162685314Y-106376095D02*
X162685314Y-106471333D01*
X162685314Y-106471333D02*
X162637695Y-106614190D01*
X162637695Y-106614190D02*
X162066267Y-107185619D01*
X162066267Y-107185619D02*
X162685314Y-107185619D01*
X157313333Y-96488328D02*
X157265714Y-96535948D01*
X157265714Y-96535948D02*
X157122857Y-96583567D01*
X157122857Y-96583567D02*
X157027619Y-96583567D01*
X157027619Y-96583567D02*
X156884762Y-96535948D01*
X156884762Y-96535948D02*
X156789524Y-96440709D01*
X156789524Y-96440709D02*
X156741905Y-96345471D01*
X156741905Y-96345471D02*
X156694286Y-96154995D01*
X156694286Y-96154995D02*
X156694286Y-96012138D01*
X156694286Y-96012138D02*
X156741905Y-95821662D01*
X156741905Y-95821662D02*
X156789524Y-95726424D01*
X156789524Y-95726424D02*
X156884762Y-95631186D01*
X156884762Y-95631186D02*
X157027619Y-95583567D01*
X157027619Y-95583567D02*
X157122857Y-95583567D01*
X157122857Y-95583567D02*
X157265714Y-95631186D01*
X157265714Y-95631186D02*
X157313333Y-95678805D01*
X158170476Y-95916900D02*
X158170476Y-96583567D01*
X157932381Y-95535948D02*
X157694286Y-96250233D01*
X157694286Y-96250233D02*
X158313333Y-96250233D01*
X122022405Y-81862819D02*
X122022405Y-80862819D01*
X122022405Y-80862819D02*
X122260500Y-80862819D01*
X122260500Y-80862819D02*
X122403357Y-80910438D01*
X122403357Y-80910438D02*
X122498595Y-81005676D01*
X122498595Y-81005676D02*
X122546214Y-81100914D01*
X122546214Y-81100914D02*
X122593833Y-81291390D01*
X122593833Y-81291390D02*
X122593833Y-81434247D01*
X122593833Y-81434247D02*
X122546214Y-81624723D01*
X122546214Y-81624723D02*
X122498595Y-81719961D01*
X122498595Y-81719961D02*
X122403357Y-81815200D01*
X122403357Y-81815200D02*
X122260500Y-81862819D01*
X122260500Y-81862819D02*
X122022405Y-81862819D01*
X123546214Y-81862819D02*
X122974786Y-81862819D01*
X123260500Y-81862819D02*
X123260500Y-80862819D01*
X123260500Y-80862819D02*
X123165262Y-81005676D01*
X123165262Y-81005676D02*
X123070024Y-81100914D01*
X123070024Y-81100914D02*
X122974786Y-81148533D01*
X102358866Y-83605019D02*
X102358866Y-84319304D01*
X102358866Y-84319304D02*
X102311247Y-84462161D01*
X102311247Y-84462161D02*
X102216009Y-84557400D01*
X102216009Y-84557400D02*
X102073152Y-84605019D01*
X102073152Y-84605019D02*
X101977914Y-84605019D01*
X103263628Y-83938352D02*
X103263628Y-84605019D01*
X103025533Y-83557400D02*
X102787438Y-84271685D01*
X102787438Y-84271685D02*
X103406485Y-84271685D01*
X143333333Y-90199580D02*
X143285714Y-90247200D01*
X143285714Y-90247200D02*
X143142857Y-90294819D01*
X143142857Y-90294819D02*
X143047619Y-90294819D01*
X143047619Y-90294819D02*
X142904762Y-90247200D01*
X142904762Y-90247200D02*
X142809524Y-90151961D01*
X142809524Y-90151961D02*
X142761905Y-90056723D01*
X142761905Y-90056723D02*
X142714286Y-89866247D01*
X142714286Y-89866247D02*
X142714286Y-89723390D01*
X142714286Y-89723390D02*
X142761905Y-89532914D01*
X142761905Y-89532914D02*
X142809524Y-89437676D01*
X142809524Y-89437676D02*
X142904762Y-89342438D01*
X142904762Y-89342438D02*
X143047619Y-89294819D01*
X143047619Y-89294819D02*
X143142857Y-89294819D01*
X143142857Y-89294819D02*
X143285714Y-89342438D01*
X143285714Y-89342438D02*
X143333333Y-89390057D01*
X143809524Y-90294819D02*
X144000000Y-90294819D01*
X144000000Y-90294819D02*
X144095238Y-90247200D01*
X144095238Y-90247200D02*
X144142857Y-90199580D01*
X144142857Y-90199580D02*
X144238095Y-90056723D01*
X144238095Y-90056723D02*
X144285714Y-89866247D01*
X144285714Y-89866247D02*
X144285714Y-89485295D01*
X144285714Y-89485295D02*
X144238095Y-89390057D01*
X144238095Y-89390057D02*
X144190476Y-89342438D01*
X144190476Y-89342438D02*
X144095238Y-89294819D01*
X144095238Y-89294819D02*
X143904762Y-89294819D01*
X143904762Y-89294819D02*
X143809524Y-89342438D01*
X143809524Y-89342438D02*
X143761905Y-89390057D01*
X143761905Y-89390057D02*
X143714286Y-89485295D01*
X143714286Y-89485295D02*
X143714286Y-89723390D01*
X143714286Y-89723390D02*
X143761905Y-89818628D01*
X143761905Y-89818628D02*
X143809524Y-89866247D01*
X143809524Y-89866247D02*
X143904762Y-89913866D01*
X143904762Y-89913866D02*
X144095238Y-89913866D01*
X144095238Y-89913866D02*
X144190476Y-89866247D01*
X144190476Y-89866247D02*
X144238095Y-89818628D01*
X144238095Y-89818628D02*
X144285714Y-89723390D01*
X153008333Y-90199580D02*
X152960714Y-90247200D01*
X152960714Y-90247200D02*
X152817857Y-90294819D01*
X152817857Y-90294819D02*
X152722619Y-90294819D01*
X152722619Y-90294819D02*
X152579762Y-90247200D01*
X152579762Y-90247200D02*
X152484524Y-90151961D01*
X152484524Y-90151961D02*
X152436905Y-90056723D01*
X152436905Y-90056723D02*
X152389286Y-89866247D01*
X152389286Y-89866247D02*
X152389286Y-89723390D01*
X152389286Y-89723390D02*
X152436905Y-89532914D01*
X152436905Y-89532914D02*
X152484524Y-89437676D01*
X152484524Y-89437676D02*
X152579762Y-89342438D01*
X152579762Y-89342438D02*
X152722619Y-89294819D01*
X152722619Y-89294819D02*
X152817857Y-89294819D01*
X152817857Y-89294819D02*
X152960714Y-89342438D01*
X152960714Y-89342438D02*
X153008333Y-89390057D01*
X153579762Y-89723390D02*
X153484524Y-89675771D01*
X153484524Y-89675771D02*
X153436905Y-89628152D01*
X153436905Y-89628152D02*
X153389286Y-89532914D01*
X153389286Y-89532914D02*
X153389286Y-89485295D01*
X153389286Y-89485295D02*
X153436905Y-89390057D01*
X153436905Y-89390057D02*
X153484524Y-89342438D01*
X153484524Y-89342438D02*
X153579762Y-89294819D01*
X153579762Y-89294819D02*
X153770238Y-89294819D01*
X153770238Y-89294819D02*
X153865476Y-89342438D01*
X153865476Y-89342438D02*
X153913095Y-89390057D01*
X153913095Y-89390057D02*
X153960714Y-89485295D01*
X153960714Y-89485295D02*
X153960714Y-89532914D01*
X153960714Y-89532914D02*
X153913095Y-89628152D01*
X153913095Y-89628152D02*
X153865476Y-89675771D01*
X153865476Y-89675771D02*
X153770238Y-89723390D01*
X153770238Y-89723390D02*
X153579762Y-89723390D01*
X153579762Y-89723390D02*
X153484524Y-89771009D01*
X153484524Y-89771009D02*
X153436905Y-89818628D01*
X153436905Y-89818628D02*
X153389286Y-89913866D01*
X153389286Y-89913866D02*
X153389286Y-90104342D01*
X153389286Y-90104342D02*
X153436905Y-90199580D01*
X153436905Y-90199580D02*
X153484524Y-90247200D01*
X153484524Y-90247200D02*
X153579762Y-90294819D01*
X153579762Y-90294819D02*
X153770238Y-90294819D01*
X153770238Y-90294819D02*
X153865476Y-90247200D01*
X153865476Y-90247200D02*
X153913095Y-90199580D01*
X153913095Y-90199580D02*
X153960714Y-90104342D01*
X153960714Y-90104342D02*
X153960714Y-89913866D01*
X153960714Y-89913866D02*
X153913095Y-89818628D01*
X153913095Y-89818628D02*
X153865476Y-89771009D01*
X153865476Y-89771009D02*
X153770238Y-89723390D01*
X152146933Y-107979380D02*
X152099314Y-108027000D01*
X152099314Y-108027000D02*
X151956457Y-108074619D01*
X151956457Y-108074619D02*
X151861219Y-108074619D01*
X151861219Y-108074619D02*
X151718362Y-108027000D01*
X151718362Y-108027000D02*
X151623124Y-107931761D01*
X151623124Y-107931761D02*
X151575505Y-107836523D01*
X151575505Y-107836523D02*
X151527886Y-107646047D01*
X151527886Y-107646047D02*
X151527886Y-107503190D01*
X151527886Y-107503190D02*
X151575505Y-107312714D01*
X151575505Y-107312714D02*
X151623124Y-107217476D01*
X151623124Y-107217476D02*
X151718362Y-107122238D01*
X151718362Y-107122238D02*
X151861219Y-107074619D01*
X151861219Y-107074619D02*
X151956457Y-107074619D01*
X151956457Y-107074619D02*
X152099314Y-107122238D01*
X152099314Y-107122238D02*
X152146933Y-107169857D01*
X153051695Y-107074619D02*
X152575505Y-107074619D01*
X152575505Y-107074619D02*
X152527886Y-107550809D01*
X152527886Y-107550809D02*
X152575505Y-107503190D01*
X152575505Y-107503190D02*
X152670743Y-107455571D01*
X152670743Y-107455571D02*
X152908838Y-107455571D01*
X152908838Y-107455571D02*
X153004076Y-107503190D01*
X153004076Y-107503190D02*
X153051695Y-107550809D01*
X153051695Y-107550809D02*
X153099314Y-107646047D01*
X153099314Y-107646047D02*
X153099314Y-107884142D01*
X153099314Y-107884142D02*
X153051695Y-107979380D01*
X153051695Y-107979380D02*
X153004076Y-108027000D01*
X153004076Y-108027000D02*
X152908838Y-108074619D01*
X152908838Y-108074619D02*
X152670743Y-108074619D01*
X152670743Y-108074619D02*
X152575505Y-108027000D01*
X152575505Y-108027000D02*
X152527886Y-107979380D01*
X121753333Y-102562819D02*
X121420000Y-102086628D01*
X121181905Y-102562819D02*
X121181905Y-101562819D01*
X121181905Y-101562819D02*
X121562857Y-101562819D01*
X121562857Y-101562819D02*
X121658095Y-101610438D01*
X121658095Y-101610438D02*
X121705714Y-101658057D01*
X121705714Y-101658057D02*
X121753333Y-101753295D01*
X121753333Y-101753295D02*
X121753333Y-101896152D01*
X121753333Y-101896152D02*
X121705714Y-101991390D01*
X121705714Y-101991390D02*
X121658095Y-102039009D01*
X121658095Y-102039009D02*
X121562857Y-102086628D01*
X121562857Y-102086628D02*
X121181905Y-102086628D01*
X122705714Y-102562819D02*
X122134286Y-102562819D01*
X122420000Y-102562819D02*
X122420000Y-101562819D01*
X122420000Y-101562819D02*
X122324762Y-101705676D01*
X122324762Y-101705676D02*
X122229524Y-101800914D01*
X122229524Y-101800914D02*
X122134286Y-101848533D01*
X136166666Y-83279819D02*
X136166666Y-83994104D01*
X136166666Y-83994104D02*
X136119047Y-84136961D01*
X136119047Y-84136961D02*
X136023809Y-84232200D01*
X136023809Y-84232200D02*
X135880952Y-84279819D01*
X135880952Y-84279819D02*
X135785714Y-84279819D01*
X136595238Y-83375057D02*
X136642857Y-83327438D01*
X136642857Y-83327438D02*
X136738095Y-83279819D01*
X136738095Y-83279819D02*
X136976190Y-83279819D01*
X136976190Y-83279819D02*
X137071428Y-83327438D01*
X137071428Y-83327438D02*
X137119047Y-83375057D01*
X137119047Y-83375057D02*
X137166666Y-83470295D01*
X137166666Y-83470295D02*
X137166666Y-83565533D01*
X137166666Y-83565533D02*
X137119047Y-83708390D01*
X137119047Y-83708390D02*
X136547619Y-84279819D01*
X136547619Y-84279819D02*
X137166666Y-84279819D01*
X123290666Y-116015819D02*
X123290666Y-116730104D01*
X123290666Y-116730104D02*
X123243047Y-116872961D01*
X123243047Y-116872961D02*
X123147809Y-116968200D01*
X123147809Y-116968200D02*
X123004952Y-117015819D01*
X123004952Y-117015819D02*
X122909714Y-117015819D01*
X124195428Y-116015819D02*
X124004952Y-116015819D01*
X124004952Y-116015819D02*
X123909714Y-116063438D01*
X123909714Y-116063438D02*
X123862095Y-116111057D01*
X123862095Y-116111057D02*
X123766857Y-116253914D01*
X123766857Y-116253914D02*
X123719238Y-116444390D01*
X123719238Y-116444390D02*
X123719238Y-116825342D01*
X123719238Y-116825342D02*
X123766857Y-116920580D01*
X123766857Y-116920580D02*
X123814476Y-116968200D01*
X123814476Y-116968200D02*
X123909714Y-117015819D01*
X123909714Y-117015819D02*
X124100190Y-117015819D01*
X124100190Y-117015819D02*
X124195428Y-116968200D01*
X124195428Y-116968200D02*
X124243047Y-116920580D01*
X124243047Y-116920580D02*
X124290666Y-116825342D01*
X124290666Y-116825342D02*
X124290666Y-116587247D01*
X124290666Y-116587247D02*
X124243047Y-116492009D01*
X124243047Y-116492009D02*
X124195428Y-116444390D01*
X124195428Y-116444390D02*
X124100190Y-116396771D01*
X124100190Y-116396771D02*
X123909714Y-116396771D01*
X123909714Y-116396771D02*
X123814476Y-116444390D01*
X123814476Y-116444390D02*
X123766857Y-116492009D01*
X123766857Y-116492009D02*
X123719238Y-116587247D01*
X176557467Y-104845200D02*
X176700324Y-104892819D01*
X176700324Y-104892819D02*
X176938419Y-104892819D01*
X176938419Y-104892819D02*
X177033657Y-104845200D01*
X177033657Y-104845200D02*
X177081276Y-104797580D01*
X177081276Y-104797580D02*
X177128895Y-104702342D01*
X177128895Y-104702342D02*
X177128895Y-104607104D01*
X177128895Y-104607104D02*
X177081276Y-104511866D01*
X177081276Y-104511866D02*
X177033657Y-104464247D01*
X177033657Y-104464247D02*
X176938419Y-104416628D01*
X176938419Y-104416628D02*
X176747943Y-104369009D01*
X176747943Y-104369009D02*
X176652705Y-104321390D01*
X176652705Y-104321390D02*
X176605086Y-104273771D01*
X176605086Y-104273771D02*
X176557467Y-104178533D01*
X176557467Y-104178533D02*
X176557467Y-104083295D01*
X176557467Y-104083295D02*
X176605086Y-103988057D01*
X176605086Y-103988057D02*
X176652705Y-103940438D01*
X176652705Y-103940438D02*
X176747943Y-103892819D01*
X176747943Y-103892819D02*
X176986038Y-103892819D01*
X176986038Y-103892819D02*
X177128895Y-103940438D01*
X177462229Y-103892819D02*
X177700324Y-104892819D01*
X177700324Y-104892819D02*
X177890800Y-104178533D01*
X177890800Y-104178533D02*
X178081276Y-104892819D01*
X178081276Y-104892819D02*
X178319372Y-103892819D01*
X179224133Y-104892819D02*
X178652705Y-104892819D01*
X178938419Y-104892819D02*
X178938419Y-103892819D01*
X178938419Y-103892819D02*
X178843181Y-104035676D01*
X178843181Y-104035676D02*
X178747943Y-104130914D01*
X178747943Y-104130914D02*
X178652705Y-104178533D01*
X128643142Y-107655832D02*
X128595523Y-107703452D01*
X128595523Y-107703452D02*
X128452666Y-107751071D01*
X128452666Y-107751071D02*
X128357428Y-107751071D01*
X128357428Y-107751071D02*
X128214571Y-107703452D01*
X128214571Y-107703452D02*
X128119333Y-107608213D01*
X128119333Y-107608213D02*
X128071714Y-107512975D01*
X128071714Y-107512975D02*
X128024095Y-107322499D01*
X128024095Y-107322499D02*
X128024095Y-107179642D01*
X128024095Y-107179642D02*
X128071714Y-106989166D01*
X128071714Y-106989166D02*
X128119333Y-106893928D01*
X128119333Y-106893928D02*
X128214571Y-106798690D01*
X128214571Y-106798690D02*
X128357428Y-106751071D01*
X128357428Y-106751071D02*
X128452666Y-106751071D01*
X128452666Y-106751071D02*
X128595523Y-106798690D01*
X128595523Y-106798690D02*
X128643142Y-106846309D01*
X129595523Y-107751071D02*
X129024095Y-107751071D01*
X129309809Y-107751071D02*
X129309809Y-106751071D01*
X129309809Y-106751071D02*
X129214571Y-106893928D01*
X129214571Y-106893928D02*
X129119333Y-106989166D01*
X129119333Y-106989166D02*
X129024095Y-107036785D01*
X130452666Y-107084404D02*
X130452666Y-107751071D01*
X130214571Y-106703452D02*
X129976476Y-107417737D01*
X129976476Y-107417737D02*
X130595523Y-107417737D01*
X123817142Y-93069580D02*
X123769523Y-93117200D01*
X123769523Y-93117200D02*
X123626666Y-93164819D01*
X123626666Y-93164819D02*
X123531428Y-93164819D01*
X123531428Y-93164819D02*
X123388571Y-93117200D01*
X123388571Y-93117200D02*
X123293333Y-93021961D01*
X123293333Y-93021961D02*
X123245714Y-92926723D01*
X123245714Y-92926723D02*
X123198095Y-92736247D01*
X123198095Y-92736247D02*
X123198095Y-92593390D01*
X123198095Y-92593390D02*
X123245714Y-92402914D01*
X123245714Y-92402914D02*
X123293333Y-92307676D01*
X123293333Y-92307676D02*
X123388571Y-92212438D01*
X123388571Y-92212438D02*
X123531428Y-92164819D01*
X123531428Y-92164819D02*
X123626666Y-92164819D01*
X123626666Y-92164819D02*
X123769523Y-92212438D01*
X123769523Y-92212438D02*
X123817142Y-92260057D01*
X124769523Y-93164819D02*
X124198095Y-93164819D01*
X124483809Y-93164819D02*
X124483809Y-92164819D01*
X124483809Y-92164819D02*
X124388571Y-92307676D01*
X124388571Y-92307676D02*
X124293333Y-92402914D01*
X124293333Y-92402914D02*
X124198095Y-92450533D01*
X125150476Y-92260057D02*
X125198095Y-92212438D01*
X125198095Y-92212438D02*
X125293333Y-92164819D01*
X125293333Y-92164819D02*
X125531428Y-92164819D01*
X125531428Y-92164819D02*
X125626666Y-92212438D01*
X125626666Y-92212438D02*
X125674285Y-92260057D01*
X125674285Y-92260057D02*
X125721904Y-92355295D01*
X125721904Y-92355295D02*
X125721904Y-92450533D01*
X125721904Y-92450533D02*
X125674285Y-92593390D01*
X125674285Y-92593390D02*
X125102857Y-93164819D01*
X125102857Y-93164819D02*
X125721904Y-93164819D01*
X132508666Y-83279819D02*
X132508666Y-83994104D01*
X132508666Y-83994104D02*
X132461047Y-84136961D01*
X132461047Y-84136961D02*
X132365809Y-84232200D01*
X132365809Y-84232200D02*
X132222952Y-84279819D01*
X132222952Y-84279819D02*
X132127714Y-84279819D01*
X133508666Y-84279819D02*
X132937238Y-84279819D01*
X133222952Y-84279819D02*
X133222952Y-83279819D01*
X133222952Y-83279819D02*
X133127714Y-83422676D01*
X133127714Y-83422676D02*
X133032476Y-83517914D01*
X133032476Y-83517914D02*
X132937238Y-83565533D01*
X141573333Y-109833580D02*
X141525714Y-109881200D01*
X141525714Y-109881200D02*
X141382857Y-109928819D01*
X141382857Y-109928819D02*
X141287619Y-109928819D01*
X141287619Y-109928819D02*
X141144762Y-109881200D01*
X141144762Y-109881200D02*
X141049524Y-109785961D01*
X141049524Y-109785961D02*
X141001905Y-109690723D01*
X141001905Y-109690723D02*
X140954286Y-109500247D01*
X140954286Y-109500247D02*
X140954286Y-109357390D01*
X140954286Y-109357390D02*
X141001905Y-109166914D01*
X141001905Y-109166914D02*
X141049524Y-109071676D01*
X141049524Y-109071676D02*
X141144762Y-108976438D01*
X141144762Y-108976438D02*
X141287619Y-108928819D01*
X141287619Y-108928819D02*
X141382857Y-108928819D01*
X141382857Y-108928819D02*
X141525714Y-108976438D01*
X141525714Y-108976438D02*
X141573333Y-109024057D01*
X141954286Y-109024057D02*
X142001905Y-108976438D01*
X142001905Y-108976438D02*
X142097143Y-108928819D01*
X142097143Y-108928819D02*
X142335238Y-108928819D01*
X142335238Y-108928819D02*
X142430476Y-108976438D01*
X142430476Y-108976438D02*
X142478095Y-109024057D01*
X142478095Y-109024057D02*
X142525714Y-109119295D01*
X142525714Y-109119295D02*
X142525714Y-109214533D01*
X142525714Y-109214533D02*
X142478095Y-109357390D01*
X142478095Y-109357390D02*
X141906667Y-109928819D01*
X141906667Y-109928819D02*
X142525714Y-109928819D01*
X157833333Y-93199580D02*
X157785714Y-93247200D01*
X157785714Y-93247200D02*
X157642857Y-93294819D01*
X157642857Y-93294819D02*
X157547619Y-93294819D01*
X157547619Y-93294819D02*
X157404762Y-93247200D01*
X157404762Y-93247200D02*
X157309524Y-93151961D01*
X157309524Y-93151961D02*
X157261905Y-93056723D01*
X157261905Y-93056723D02*
X157214286Y-92866247D01*
X157214286Y-92866247D02*
X157214286Y-92723390D01*
X157214286Y-92723390D02*
X157261905Y-92532914D01*
X157261905Y-92532914D02*
X157309524Y-92437676D01*
X157309524Y-92437676D02*
X157404762Y-92342438D01*
X157404762Y-92342438D02*
X157547619Y-92294819D01*
X157547619Y-92294819D02*
X157642857Y-92294819D01*
X157642857Y-92294819D02*
X157785714Y-92342438D01*
X157785714Y-92342438D02*
X157833333Y-92390057D01*
X158166667Y-92294819D02*
X158785714Y-92294819D01*
X158785714Y-92294819D02*
X158452381Y-92675771D01*
X158452381Y-92675771D02*
X158595238Y-92675771D01*
X158595238Y-92675771D02*
X158690476Y-92723390D01*
X158690476Y-92723390D02*
X158738095Y-92771009D01*
X158738095Y-92771009D02*
X158785714Y-92866247D01*
X158785714Y-92866247D02*
X158785714Y-93104342D01*
X158785714Y-93104342D02*
X158738095Y-93199580D01*
X158738095Y-93199580D02*
X158690476Y-93247200D01*
X158690476Y-93247200D02*
X158595238Y-93294819D01*
X158595238Y-93294819D02*
X158309524Y-93294819D01*
X158309524Y-93294819D02*
X158214286Y-93247200D01*
X158214286Y-93247200D02*
X158166667Y-93199580D01*
X118404333Y-81932819D02*
X118071000Y-81456628D01*
X117832905Y-81932819D02*
X117832905Y-80932819D01*
X117832905Y-80932819D02*
X118213857Y-80932819D01*
X118213857Y-80932819D02*
X118309095Y-80980438D01*
X118309095Y-80980438D02*
X118356714Y-81028057D01*
X118356714Y-81028057D02*
X118404333Y-81123295D01*
X118404333Y-81123295D02*
X118404333Y-81266152D01*
X118404333Y-81266152D02*
X118356714Y-81361390D01*
X118356714Y-81361390D02*
X118309095Y-81409009D01*
X118309095Y-81409009D02*
X118213857Y-81456628D01*
X118213857Y-81456628D02*
X117832905Y-81456628D01*
X119261476Y-80932819D02*
X119071000Y-80932819D01*
X119071000Y-80932819D02*
X118975762Y-80980438D01*
X118975762Y-80980438D02*
X118928143Y-81028057D01*
X118928143Y-81028057D02*
X118832905Y-81170914D01*
X118832905Y-81170914D02*
X118785286Y-81361390D01*
X118785286Y-81361390D02*
X118785286Y-81742342D01*
X118785286Y-81742342D02*
X118832905Y-81837580D01*
X118832905Y-81837580D02*
X118880524Y-81885200D01*
X118880524Y-81885200D02*
X118975762Y-81932819D01*
X118975762Y-81932819D02*
X119166238Y-81932819D01*
X119166238Y-81932819D02*
X119261476Y-81885200D01*
X119261476Y-81885200D02*
X119309095Y-81837580D01*
X119309095Y-81837580D02*
X119356714Y-81742342D01*
X119356714Y-81742342D02*
X119356714Y-81504247D01*
X119356714Y-81504247D02*
X119309095Y-81409009D01*
X119309095Y-81409009D02*
X119261476Y-81361390D01*
X119261476Y-81361390D02*
X119166238Y-81313771D01*
X119166238Y-81313771D02*
X118975762Y-81313771D01*
X118975762Y-81313771D02*
X118880524Y-81361390D01*
X118880524Y-81361390D02*
X118832905Y-81409009D01*
X118832905Y-81409009D02*
X118785286Y-81504247D01*
X155153095Y-99294819D02*
X155153095Y-100104342D01*
X155153095Y-100104342D02*
X155200714Y-100199580D01*
X155200714Y-100199580D02*
X155248333Y-100247200D01*
X155248333Y-100247200D02*
X155343571Y-100294819D01*
X155343571Y-100294819D02*
X155534047Y-100294819D01*
X155534047Y-100294819D02*
X155629285Y-100247200D01*
X155629285Y-100247200D02*
X155676904Y-100199580D01*
X155676904Y-100199580D02*
X155724523Y-100104342D01*
X155724523Y-100104342D02*
X155724523Y-99294819D01*
X156724523Y-100294819D02*
X156153095Y-100294819D01*
X156438809Y-100294819D02*
X156438809Y-99294819D01*
X156438809Y-99294819D02*
X156343571Y-99437676D01*
X156343571Y-99437676D02*
X156248333Y-99532914D01*
X156248333Y-99532914D02*
X156153095Y-99580533D01*
X102057295Y-95085819D02*
X102057295Y-95895342D01*
X102057295Y-95895342D02*
X102104914Y-95990580D01*
X102104914Y-95990580D02*
X102152533Y-96038200D01*
X102152533Y-96038200D02*
X102247771Y-96085819D01*
X102247771Y-96085819D02*
X102438247Y-96085819D01*
X102438247Y-96085819D02*
X102533485Y-96038200D01*
X102533485Y-96038200D02*
X102581104Y-95990580D01*
X102581104Y-95990580D02*
X102628723Y-95895342D01*
X102628723Y-95895342D02*
X102628723Y-95085819D01*
X103057295Y-95181057D02*
X103104914Y-95133438D01*
X103104914Y-95133438D02*
X103200152Y-95085819D01*
X103200152Y-95085819D02*
X103438247Y-95085819D01*
X103438247Y-95085819D02*
X103533485Y-95133438D01*
X103533485Y-95133438D02*
X103581104Y-95181057D01*
X103581104Y-95181057D02*
X103628723Y-95276295D01*
X103628723Y-95276295D02*
X103628723Y-95371533D01*
X103628723Y-95371533D02*
X103581104Y-95514390D01*
X103581104Y-95514390D02*
X103009676Y-96085819D01*
X103009676Y-96085819D02*
X103628723Y-96085819D01*
X148023809Y-81478628D02*
X148023809Y-81954819D01*
X147690476Y-80954819D02*
X148023809Y-81478628D01*
X148023809Y-81478628D02*
X148357142Y-80954819D01*
X149214285Y-81954819D02*
X148642857Y-81954819D01*
X148928571Y-81954819D02*
X148928571Y-80954819D01*
X148928571Y-80954819D02*
X148833333Y-81097676D01*
X148833333Y-81097676D02*
X148738095Y-81192914D01*
X148738095Y-81192914D02*
X148642857Y-81240533D01*
X144140819Y-116919333D02*
X144855104Y-116919333D01*
X144855104Y-116919333D02*
X144997961Y-116966952D01*
X144997961Y-116966952D02*
X145093200Y-117062190D01*
X145093200Y-117062190D02*
X145140819Y-117205047D01*
X145140819Y-117205047D02*
X145140819Y-117300285D01*
X144140819Y-116538380D02*
X144140819Y-115919333D01*
X144140819Y-115919333D02*
X144521771Y-116252666D01*
X144521771Y-116252666D02*
X144521771Y-116109809D01*
X144521771Y-116109809D02*
X144569390Y-116014571D01*
X144569390Y-116014571D02*
X144617009Y-115966952D01*
X144617009Y-115966952D02*
X144712247Y-115919333D01*
X144712247Y-115919333D02*
X144950342Y-115919333D01*
X144950342Y-115919333D02*
X145045580Y-115966952D01*
X145045580Y-115966952D02*
X145093200Y-116014571D01*
X145093200Y-116014571D02*
X145140819Y-116109809D01*
X145140819Y-116109809D02*
X145140819Y-116395523D01*
X145140819Y-116395523D02*
X145093200Y-116490761D01*
X145093200Y-116490761D02*
X145045580Y-116538380D01*
X157333333Y-104954819D02*
X157000000Y-104478628D01*
X156761905Y-104954819D02*
X156761905Y-103954819D01*
X156761905Y-103954819D02*
X157142857Y-103954819D01*
X157142857Y-103954819D02*
X157238095Y-104002438D01*
X157238095Y-104002438D02*
X157285714Y-104050057D01*
X157285714Y-104050057D02*
X157333333Y-104145295D01*
X157333333Y-104145295D02*
X157333333Y-104288152D01*
X157333333Y-104288152D02*
X157285714Y-104383390D01*
X157285714Y-104383390D02*
X157238095Y-104431009D01*
X157238095Y-104431009D02*
X157142857Y-104478628D01*
X157142857Y-104478628D02*
X156761905Y-104478628D01*
X158190476Y-104288152D02*
X158190476Y-104954819D01*
X157952381Y-103907200D02*
X157714286Y-104621485D01*
X157714286Y-104621485D02*
X158333333Y-104621485D01*
X113657142Y-89513580D02*
X113609523Y-89561200D01*
X113609523Y-89561200D02*
X113466666Y-89608819D01*
X113466666Y-89608819D02*
X113371428Y-89608819D01*
X113371428Y-89608819D02*
X113228571Y-89561200D01*
X113228571Y-89561200D02*
X113133333Y-89465961D01*
X113133333Y-89465961D02*
X113085714Y-89370723D01*
X113085714Y-89370723D02*
X113038095Y-89180247D01*
X113038095Y-89180247D02*
X113038095Y-89037390D01*
X113038095Y-89037390D02*
X113085714Y-88846914D01*
X113085714Y-88846914D02*
X113133333Y-88751676D01*
X113133333Y-88751676D02*
X113228571Y-88656438D01*
X113228571Y-88656438D02*
X113371428Y-88608819D01*
X113371428Y-88608819D02*
X113466666Y-88608819D01*
X113466666Y-88608819D02*
X113609523Y-88656438D01*
X113609523Y-88656438D02*
X113657142Y-88704057D01*
X114609523Y-89608819D02*
X114038095Y-89608819D01*
X114323809Y-89608819D02*
X114323809Y-88608819D01*
X114323809Y-88608819D02*
X114228571Y-88751676D01*
X114228571Y-88751676D02*
X114133333Y-88846914D01*
X114133333Y-88846914D02*
X114038095Y-88894533D01*
X115228571Y-88608819D02*
X115323809Y-88608819D01*
X115323809Y-88608819D02*
X115419047Y-88656438D01*
X115419047Y-88656438D02*
X115466666Y-88704057D01*
X115466666Y-88704057D02*
X115514285Y-88799295D01*
X115514285Y-88799295D02*
X115561904Y-88989771D01*
X115561904Y-88989771D02*
X115561904Y-89227866D01*
X115561904Y-89227866D02*
X115514285Y-89418342D01*
X115514285Y-89418342D02*
X115466666Y-89513580D01*
X115466666Y-89513580D02*
X115419047Y-89561200D01*
X115419047Y-89561200D02*
X115323809Y-89608819D01*
X115323809Y-89608819D02*
X115228571Y-89608819D01*
X115228571Y-89608819D02*
X115133333Y-89561200D01*
X115133333Y-89561200D02*
X115085714Y-89513580D01*
X115085714Y-89513580D02*
X115038095Y-89418342D01*
X115038095Y-89418342D02*
X114990476Y-89227866D01*
X114990476Y-89227866D02*
X114990476Y-88989771D01*
X114990476Y-88989771D02*
X115038095Y-88799295D01*
X115038095Y-88799295D02*
X115085714Y-88704057D01*
X115085714Y-88704057D02*
X115133333Y-88656438D01*
X115133333Y-88656438D02*
X115228571Y-88608819D01*
X137279333Y-96625580D02*
X137231714Y-96673200D01*
X137231714Y-96673200D02*
X137088857Y-96720819D01*
X137088857Y-96720819D02*
X136993619Y-96720819D01*
X136993619Y-96720819D02*
X136850762Y-96673200D01*
X136850762Y-96673200D02*
X136755524Y-96577961D01*
X136755524Y-96577961D02*
X136707905Y-96482723D01*
X136707905Y-96482723D02*
X136660286Y-96292247D01*
X136660286Y-96292247D02*
X136660286Y-96149390D01*
X136660286Y-96149390D02*
X136707905Y-95958914D01*
X136707905Y-95958914D02*
X136755524Y-95863676D01*
X136755524Y-95863676D02*
X136850762Y-95768438D01*
X136850762Y-95768438D02*
X136993619Y-95720819D01*
X136993619Y-95720819D02*
X137088857Y-95720819D01*
X137088857Y-95720819D02*
X137231714Y-95768438D01*
X137231714Y-95768438D02*
X137279333Y-95816057D01*
X137612667Y-95720819D02*
X138279333Y-95720819D01*
X138279333Y-95720819D02*
X137850762Y-96720819D01*
X137333333Y-103809580D02*
X137285714Y-103857200D01*
X137285714Y-103857200D02*
X137142857Y-103904819D01*
X137142857Y-103904819D02*
X137047619Y-103904819D01*
X137047619Y-103904819D02*
X136904762Y-103857200D01*
X136904762Y-103857200D02*
X136809524Y-103761961D01*
X136809524Y-103761961D02*
X136761905Y-103666723D01*
X136761905Y-103666723D02*
X136714286Y-103476247D01*
X136714286Y-103476247D02*
X136714286Y-103333390D01*
X136714286Y-103333390D02*
X136761905Y-103142914D01*
X136761905Y-103142914D02*
X136809524Y-103047676D01*
X136809524Y-103047676D02*
X136904762Y-102952438D01*
X136904762Y-102952438D02*
X137047619Y-102904819D01*
X137047619Y-102904819D02*
X137142857Y-102904819D01*
X137142857Y-102904819D02*
X137285714Y-102952438D01*
X137285714Y-102952438D02*
X137333333Y-103000057D01*
X138190476Y-102904819D02*
X138000000Y-102904819D01*
X138000000Y-102904819D02*
X137904762Y-102952438D01*
X137904762Y-102952438D02*
X137857143Y-103000057D01*
X137857143Y-103000057D02*
X137761905Y-103142914D01*
X137761905Y-103142914D02*
X137714286Y-103333390D01*
X137714286Y-103333390D02*
X137714286Y-103714342D01*
X137714286Y-103714342D02*
X137761905Y-103809580D01*
X137761905Y-103809580D02*
X137809524Y-103857200D01*
X137809524Y-103857200D02*
X137904762Y-103904819D01*
X137904762Y-103904819D02*
X138095238Y-103904819D01*
X138095238Y-103904819D02*
X138190476Y-103857200D01*
X138190476Y-103857200D02*
X138238095Y-103809580D01*
X138238095Y-103809580D02*
X138285714Y-103714342D01*
X138285714Y-103714342D02*
X138285714Y-103476247D01*
X138285714Y-103476247D02*
X138238095Y-103381009D01*
X138238095Y-103381009D02*
X138190476Y-103333390D01*
X138190476Y-103333390D02*
X138095238Y-103285771D01*
X138095238Y-103285771D02*
X137904762Y-103285771D01*
X137904762Y-103285771D02*
X137809524Y-103333390D01*
X137809524Y-103333390D02*
X137761905Y-103381009D01*
X137761905Y-103381009D02*
X137714286Y-103476247D01*
X133469142Y-107547580D02*
X133421523Y-107595200D01*
X133421523Y-107595200D02*
X133278666Y-107642819D01*
X133278666Y-107642819D02*
X133183428Y-107642819D01*
X133183428Y-107642819D02*
X133040571Y-107595200D01*
X133040571Y-107595200D02*
X132945333Y-107499961D01*
X132945333Y-107499961D02*
X132897714Y-107404723D01*
X132897714Y-107404723D02*
X132850095Y-107214247D01*
X132850095Y-107214247D02*
X132850095Y-107071390D01*
X132850095Y-107071390D02*
X132897714Y-106880914D01*
X132897714Y-106880914D02*
X132945333Y-106785676D01*
X132945333Y-106785676D02*
X133040571Y-106690438D01*
X133040571Y-106690438D02*
X133183428Y-106642819D01*
X133183428Y-106642819D02*
X133278666Y-106642819D01*
X133278666Y-106642819D02*
X133421523Y-106690438D01*
X133421523Y-106690438D02*
X133469142Y-106738057D01*
X134421523Y-107642819D02*
X133850095Y-107642819D01*
X134135809Y-107642819D02*
X134135809Y-106642819D01*
X134135809Y-106642819D02*
X134040571Y-106785676D01*
X134040571Y-106785676D02*
X133945333Y-106880914D01*
X133945333Y-106880914D02*
X133850095Y-106928533D01*
X135326285Y-106642819D02*
X134850095Y-106642819D01*
X134850095Y-106642819D02*
X134802476Y-107119009D01*
X134802476Y-107119009D02*
X134850095Y-107071390D01*
X134850095Y-107071390D02*
X134945333Y-107023771D01*
X134945333Y-107023771D02*
X135183428Y-107023771D01*
X135183428Y-107023771D02*
X135278666Y-107071390D01*
X135278666Y-107071390D02*
X135326285Y-107119009D01*
X135326285Y-107119009D02*
X135373904Y-107214247D01*
X135373904Y-107214247D02*
X135373904Y-107452342D01*
X135373904Y-107452342D02*
X135326285Y-107547580D01*
X135326285Y-107547580D02*
X135278666Y-107595200D01*
X135278666Y-107595200D02*
X135183428Y-107642819D01*
X135183428Y-107642819D02*
X134945333Y-107642819D01*
X134945333Y-107642819D02*
X134850095Y-107595200D01*
X134850095Y-107595200D02*
X134802476Y-107547580D01*
X157531605Y-108252419D02*
X157531605Y-107252419D01*
X157531605Y-107252419D02*
X157769700Y-107252419D01*
X157769700Y-107252419D02*
X157912557Y-107300038D01*
X157912557Y-107300038D02*
X158007795Y-107395276D01*
X158007795Y-107395276D02*
X158055414Y-107490514D01*
X158055414Y-107490514D02*
X158103033Y-107680990D01*
X158103033Y-107680990D02*
X158103033Y-107823847D01*
X158103033Y-107823847D02*
X158055414Y-108014323D01*
X158055414Y-108014323D02*
X158007795Y-108109561D01*
X158007795Y-108109561D02*
X157912557Y-108204800D01*
X157912557Y-108204800D02*
X157769700Y-108252419D01*
X157769700Y-108252419D02*
X157531605Y-108252419D01*
X158483986Y-107347657D02*
X158531605Y-107300038D01*
X158531605Y-107300038D02*
X158626843Y-107252419D01*
X158626843Y-107252419D02*
X158864938Y-107252419D01*
X158864938Y-107252419D02*
X158960176Y-107300038D01*
X158960176Y-107300038D02*
X159007795Y-107347657D01*
X159007795Y-107347657D02*
X159055414Y-107442895D01*
X159055414Y-107442895D02*
X159055414Y-107538133D01*
X159055414Y-107538133D02*
X159007795Y-107680990D01*
X159007795Y-107680990D02*
X158436367Y-108252419D01*
X158436367Y-108252419D02*
X159055414Y-108252419D01*
D13*
%TO.C,Q1*%
X109000000Y-86940000D02*
X108350000Y-86940000D01*
X109000000Y-86940000D02*
X109650000Y-86940000D01*
X109000000Y-90060000D02*
X108350000Y-90060000D01*
X109000000Y-90060000D02*
X109650000Y-90060000D01*
X107837500Y-86990000D02*
X107597500Y-86660000D01*
X108077500Y-86660000D01*
X107837500Y-86990000D01*
G36*
X107837500Y-86990000D02*
G01*
X107597500Y-86660000D01*
X108077500Y-86660000D01*
X107837500Y-86990000D01*
G37*
%TO.C,C16*%
X118768800Y-93363148D02*
X118768800Y-93885652D01*
X117298800Y-93363148D02*
X117298800Y-93885652D01*
D12*
%TO.C,U4*%
X129415000Y-96830000D02*
X133915000Y-96830000D01*
X129415000Y-102280000D02*
X133915000Y-102280000D01*
D13*
X128115000Y-97280000D02*
X127785000Y-97520000D01*
X127785000Y-97040000D01*
X128115000Y-97280000D01*
G36*
X128115000Y-97280000D02*
G01*
X127785000Y-97520000D01*
X127785000Y-97040000D01*
X128115000Y-97280000D01*
G37*
%TO.C,J5*%
X133564000Y-115231000D02*
X134894000Y-115231000D01*
X133564000Y-116561000D02*
X133564000Y-115231000D01*
X136164000Y-115231000D02*
X138764000Y-115231000D01*
X136164000Y-117891000D02*
X136164000Y-115231000D01*
X136164000Y-117891000D02*
X138764000Y-117891000D01*
X138764000Y-117891000D02*
X138764000Y-115231000D01*
%TO.C,R7*%
X162890564Y-108866000D02*
X162436436Y-108866000D01*
X162890564Y-110336000D02*
X162436436Y-110336000D01*
%TO.C,C1*%
X169673600Y-112427652D02*
X169673600Y-111905148D01*
X171143600Y-112427652D02*
X171143600Y-111905148D01*
%TO.C,C13*%
X124010748Y-86641000D02*
X124533252Y-86641000D01*
X124010748Y-88111000D02*
X124533252Y-88111000D01*
%TO.C,C11*%
X114373252Y-86641000D02*
X113850748Y-86641000D01*
X114373252Y-88111000D02*
X113850748Y-88111000D01*
%TO.C,R5*%
X118645000Y-99644564D02*
X118645000Y-99190436D01*
X120115000Y-99644564D02*
X120115000Y-99190436D01*
%TO.C,U6*%
X118146000Y-90698000D02*
X119946000Y-90698000D01*
X119146000Y-87478000D02*
X118346000Y-87478000D01*
X119146000Y-87478000D02*
X119946000Y-87478000D01*
X117846000Y-87528000D02*
X117606000Y-87198000D01*
X118086000Y-87198000D01*
X117846000Y-87528000D01*
G36*
X117846000Y-87528000D02*
G01*
X117606000Y-87198000D01*
X118086000Y-87198000D01*
X117846000Y-87528000D01*
G37*
%TO.C,R3*%
X164443036Y-103354200D02*
X164897164Y-103354200D01*
X164443036Y-104824200D02*
X164897164Y-104824200D01*
%TO.C,R2*%
X164466536Y-106021200D02*
X164920664Y-106021200D01*
X164466536Y-107491200D02*
X164920664Y-107491200D01*
%TO.C,C4*%
X158765000Y-96128748D02*
X158765000Y-96651252D01*
X160235000Y-96128748D02*
X160235000Y-96651252D01*
%TO.C,D1*%
X121075500Y-82098000D02*
X121075500Y-84018000D01*
X121075500Y-84018000D02*
X123760500Y-84018000D01*
X123760500Y-82098000D02*
X121075500Y-82098000D01*
%TO.C,J4*%
X101388400Y-88066800D02*
X101388400Y-85416800D01*
X104148400Y-85416800D02*
X101388400Y-85416800D01*
X104148400Y-88066800D02*
X101388400Y-88066800D01*
X104148400Y-88066800D02*
X104148400Y-85416800D01*
X104148400Y-89336800D02*
X104148400Y-90716800D01*
X104148400Y-90716800D02*
X102768400Y-90716800D01*
%TO.C,C9*%
X146811252Y-89105000D02*
X146288748Y-89105000D01*
X146811252Y-90575000D02*
X146288748Y-90575000D01*
%TO.C,C8*%
X150811252Y-89105000D02*
X150288748Y-89105000D01*
X150811252Y-90575000D02*
X150288748Y-90575000D01*
%TO.C,C5*%
X152574852Y-108662800D02*
X152052348Y-108662800D01*
X152574852Y-110132800D02*
X152052348Y-110132800D01*
%TO.C,R1*%
X121185000Y-99644564D02*
X121185000Y-99190436D01*
X122655000Y-99644564D02*
X122655000Y-99190436D01*
%TO.C,J2*%
X135120000Y-85120000D02*
X136500000Y-85120000D01*
X135120000Y-86500000D02*
X135120000Y-85120000D01*
X135120000Y-87770000D02*
X135120000Y-92960000D01*
X135120000Y-87770000D02*
X137880000Y-87770000D01*
X135120000Y-92960000D02*
X137880000Y-92960000D01*
X137880000Y-87770000D02*
X137880000Y-92960000D01*
%TO.C,J6*%
X125064000Y-115231000D02*
X126394000Y-115231000D01*
X125064000Y-116561000D02*
X125064000Y-115231000D01*
X127664000Y-115231000D02*
X130264000Y-115231000D01*
X127664000Y-117891000D02*
X127664000Y-115231000D01*
X127664000Y-117891000D02*
X130264000Y-117891000D01*
X130264000Y-117891000D02*
X130264000Y-115231000D01*
%TO.C,SW1*%
X172620800Y-106218000D02*
X172620800Y-105218000D01*
X172870800Y-114908000D02*
X172870800Y-105468000D01*
X173620800Y-105218000D02*
X172620800Y-105218000D01*
X175940800Y-108488000D02*
X175940800Y-111788000D01*
X179740800Y-108488000D02*
X175940800Y-108488000D01*
X179740800Y-108488000D02*
X179740800Y-111788000D01*
X179740800Y-111788000D02*
X175940800Y-111788000D01*
X182910800Y-105468000D02*
X172870800Y-105468000D01*
X182910800Y-114908000D02*
X172870800Y-114908000D01*
X182910800Y-114908000D02*
X182910800Y-105468000D01*
%TO.C,C14*%
X128551000Y-104320748D02*
X128551000Y-104843252D01*
X130021000Y-104320748D02*
X130021000Y-104843252D01*
%TO.C,C12*%
X124010748Y-90141000D02*
X124533252Y-90141000D01*
X124010748Y-91611000D02*
X124533252Y-91611000D01*
%TO.C,J1*%
X131462000Y-85120000D02*
X132842000Y-85120000D01*
X131462000Y-86500000D02*
X131462000Y-85120000D01*
X131462000Y-87770000D02*
X131462000Y-92960000D01*
X131462000Y-87770000D02*
X134222000Y-87770000D01*
X131462000Y-92960000D02*
X134222000Y-92960000D01*
X134222000Y-87770000D02*
X134222000Y-92960000D01*
%TO.C,C2*%
X141478748Y-106765000D02*
X142001252Y-106765000D01*
X141478748Y-108235000D02*
X142001252Y-108235000D01*
%TO.C,U5*%
D10*
X161295000Y-102000000D02*
X187965000Y-102000000D01*
X187965000Y-81680000D01*
X161295000Y-81680000D01*
X161295000Y-102000000D01*
D13*
%TO.C,C3*%
X154978748Y-92105000D02*
X155501252Y-92105000D01*
X154978748Y-93575000D02*
X155501252Y-93575000D01*
%TO.C,R6*%
X118798064Y-82267000D02*
X118343936Y-82267000D01*
X118798064Y-83737000D02*
X118343936Y-83737000D01*
%TO.C,U1*%
X143130000Y-94730000D02*
X144080000Y-94730000D01*
X143130000Y-95680000D02*
X143130000Y-94730000D01*
X143130000Y-104000000D02*
X143130000Y-104950000D01*
X143130000Y-104950000D02*
X144080000Y-104950000D01*
X153350000Y-94730000D02*
X152400000Y-94730000D01*
X153350000Y-95680000D02*
X153350000Y-94730000D01*
X153350000Y-104000000D02*
X153350000Y-104950000D01*
X153350000Y-104950000D02*
X152400000Y-104950000D01*
X152870000Y-94455000D02*
X152400000Y-94115000D01*
X152870000Y-93775000D01*
X152870000Y-94455000D01*
G36*
X152870000Y-94455000D02*
G01*
X152400000Y-94115000D01*
X152870000Y-93775000D01*
X152870000Y-94455000D01*
G37*
%TO.C,U2*%
X105080000Y-93620000D02*
X105080000Y-96380000D01*
X112810000Y-93620000D02*
X105080000Y-93620000D01*
X112810000Y-93620000D02*
X112810000Y-96380000D01*
X112810000Y-96380000D02*
X105080000Y-96380000D01*
X114080000Y-93620000D02*
X115460000Y-93620000D01*
X115460000Y-93620000D02*
X115460000Y-95000000D01*
%TO.C,Y1*%
X151685000Y-82905000D02*
X145435000Y-82905000D01*
X151685000Y-87775000D02*
X145435000Y-87775000D01*
X145435000Y-87775000D02*
G75*
G02*
X145435000Y-82905000I0J2435000D01*
G01*
X151685000Y-82905000D02*
G75*
G02*
X151685000Y-87775000I0J-2435000D01*
G01*
%TO.C,J3*%
X145686000Y-117966000D02*
X145686000Y-116586000D01*
X147066000Y-117966000D02*
X145686000Y-117966000D01*
X148336000Y-115206000D02*
X158606000Y-115206000D01*
X148336000Y-117966000D02*
X148336000Y-115206000D01*
X148336000Y-117966000D02*
X158606000Y-117966000D01*
X158606000Y-117966000D02*
X158606000Y-115206000D01*
%TO.C,R4*%
X157360436Y-101765000D02*
X157814564Y-101765000D01*
X157360436Y-103235000D02*
X157814564Y-103235000D01*
%TO.C,C10*%
X114323252Y-90141000D02*
X113800748Y-90141000D01*
X114323252Y-91611000D02*
X113800748Y-91611000D01*
%TO.C,C7*%
X138711000Y-96527252D02*
X138711000Y-96004748D01*
X140181000Y-96527252D02*
X140181000Y-96004748D01*
%TO.C,C6*%
X138765000Y-103711252D02*
X138765000Y-103188748D01*
X140235000Y-103711252D02*
X140235000Y-103188748D01*
%TO.C,C15*%
X133377000Y-104909252D02*
X133377000Y-104386748D01*
X134847000Y-104909252D02*
X134847000Y-104386748D01*
%TO.C,D2*%
X157269700Y-110535600D02*
X159954700Y-110535600D01*
X159954700Y-108615600D02*
X157269700Y-108615600D01*
X159954700Y-110535600D02*
X159954700Y-108615600D01*
%TD*%
M02*
