%TF.GenerationSoftware,KiCad,Pcbnew,9.0.2*%
%TF.CreationDate,2025-07-28T19:39:00-05:00*%
%TF.ProjectId,balance_bot,62616c61-6e63-4655-9f62-6f742e6b6963,rev?*%
%TF.SameCoordinates,Original*%
%TF.FileFunction,Soldermask,Top*%
%TF.FilePolarity,Negative*%
%FSLAX46Y46*%
G04 Gerber Fmt 4.6, Leading zero omitted, Abs format (unit mm)*
G04 Created by KiCad (PCBNEW 9.0.2) date 2025-07-28 19:39:00*
%MOMM*%
%LPD*%
G01*
G04 APERTURE LIST*
G04 Aperture macros list*
%AMRoundRect*
0 Rectangle with rounded corners*
0 $1 Rounding radius*
0 $2 $3 $4 $5 $6 $7 $8 $9 X,Y pos of 4 corners*
0 Add a 4 corners polygon primitive as box body*
4,1,4,$2,$3,$4,$5,$6,$7,$8,$9,$2,$3,0*
0 Add four circle primitives for the rounded corners*
1,1,$1+$1,$2,$3*
1,1,$1+$1,$4,$5*
1,1,$1+$1,$6,$7*
1,1,$1+$1,$8,$9*
0 Add four rect primitives between the rounded corners*
20,1,$1+$1,$2,$3,$4,$5,0*
20,1,$1+$1,$4,$5,$6,$7,0*
20,1,$1+$1,$6,$7,$8,$9,0*
20,1,$1+$1,$8,$9,$2,$3,0*%
G04 Aperture macros list end*
%ADD10RoundRect,0.150000X-0.587500X-0.150000X0.587500X-0.150000X0.587500X0.150000X-0.587500X0.150000X0*%
%ADD11RoundRect,0.250000X-0.475000X0.250000X-0.475000X-0.250000X0.475000X-0.250000X0.475000X0.250000X0*%
%ADD12C,3.200000*%
%ADD13R,1.050000X0.450000*%
%ADD14R,1.470000X0.895000*%
%ADD15R,1.700000X1.700000*%
%ADD16C,1.700000*%
%ADD17RoundRect,0.250000X0.262500X0.450000X-0.262500X0.450000X-0.262500X-0.450000X0.262500X-0.450000X0*%
%ADD18RoundRect,0.250000X0.475000X-0.250000X0.475000X0.250000X-0.475000X0.250000X-0.475000X-0.250000X0*%
%ADD19RoundRect,0.250000X-0.250000X-0.475000X0.250000X-0.475000X0.250000X0.475000X-0.250000X0.475000X0*%
%ADD20RoundRect,0.250000X0.250000X0.475000X-0.250000X0.475000X-0.250000X-0.475000X0.250000X-0.475000X0*%
%ADD21RoundRect,0.250000X0.450000X-0.262500X0.450000X0.262500X-0.450000X0.262500X-0.450000X-0.262500X0*%
%ADD22RoundRect,0.162500X-0.617500X-0.162500X0.617500X-0.162500X0.617500X0.162500X-0.617500X0.162500X0*%
%ADD23RoundRect,0.250000X-0.262500X-0.450000X0.262500X-0.450000X0.262500X0.450000X-0.262500X0.450000X0*%
%ADD24RoundRect,0.243750X-0.243750X-0.456250X0.243750X-0.456250X0.243750X0.456250X-0.243750X0.456250X0*%
%ADD25R,1.800000X1.800000*%
%ADD26C,1.800000*%
%ADD27RoundRect,0.075000X-0.075000X0.700000X-0.075000X-0.700000X0.075000X-0.700000X0.075000X0.700000X0*%
%ADD28RoundRect,0.075000X-0.700000X0.075000X-0.700000X-0.075000X0.700000X-0.075000X0.700000X0.075000X0*%
%ADD29C,1.500000*%
%ADD30RoundRect,0.243750X0.243750X0.456250X-0.243750X0.456250X-0.243750X-0.456250X0.243750X-0.456250X0*%
G04 APERTURE END LIST*
D10*
%TO.C,Q1*%
X109937500Y-88500000D03*
X108062500Y-87550000D03*
X108062500Y-89450000D03*
%TD*%
D11*
%TO.C,C16*%
X118033800Y-92674400D03*
X118033800Y-94574400D03*
%TD*%
D12*
%TO.C,H4*%
X192900000Y-115560000D03*
%TD*%
D13*
%TO.C,U4*%
X128890000Y-97280000D03*
X128890000Y-97930000D03*
X128890000Y-98580000D03*
X128890000Y-99230000D03*
X128890000Y-99880000D03*
X128890000Y-100530000D03*
X128890000Y-101180000D03*
X128890000Y-101830000D03*
X134440000Y-101830000D03*
X134440000Y-101180000D03*
X134440000Y-100530000D03*
X134440000Y-99880000D03*
X134440000Y-99230000D03*
X134440000Y-98580000D03*
X134440000Y-97930000D03*
X134440000Y-97280000D03*
D14*
X130930000Y-98212500D03*
X130930000Y-99107500D03*
X130930000Y-100002500D03*
X130930000Y-100897500D03*
X132400000Y-98212500D03*
X132400000Y-99107500D03*
X132400000Y-100002500D03*
X132400000Y-100897500D03*
%TD*%
D15*
%TO.C,J5*%
X134894000Y-116561000D03*
D16*
X137434000Y-116561000D03*
%TD*%
D17*
%TO.C,R7*%
X163576000Y-109601000D03*
X161751000Y-109601000D03*
%TD*%
D18*
%TO.C,C1*%
X170408600Y-113116400D03*
X170408600Y-111216400D03*
%TD*%
D19*
%TO.C,C13*%
X123322000Y-87376000D03*
X125222000Y-87376000D03*
%TD*%
D20*
%TO.C,C11*%
X115062000Y-87376000D03*
X113162000Y-87376000D03*
%TD*%
D21*
%TO.C,R5*%
X119380000Y-100330000D03*
X119380000Y-98505000D03*
%TD*%
D22*
%TO.C,U6*%
X117696000Y-88138000D03*
X117696000Y-89088000D03*
X117696000Y-90038000D03*
X120396000Y-90038000D03*
X120396000Y-88138000D03*
%TD*%
D23*
%TO.C,R3*%
X163757600Y-104089200D03*
X165582600Y-104089200D03*
%TD*%
%TO.C,R2*%
X163781100Y-106756200D03*
X165606100Y-106756200D03*
%TD*%
D11*
%TO.C,C4*%
X159500000Y-95440000D03*
X159500000Y-97340000D03*
%TD*%
D24*
%TO.C,D1*%
X121823000Y-83058000D03*
X123698000Y-83058000D03*
%TD*%
D15*
%TO.C,J4*%
X102768400Y-89336800D03*
D16*
X102768400Y-86796800D03*
%TD*%
D20*
%TO.C,C9*%
X147500000Y-89840000D03*
X145600000Y-89840000D03*
%TD*%
%TO.C,C8*%
X151500000Y-89840000D03*
X149600000Y-89840000D03*
%TD*%
%TO.C,C5*%
X153263600Y-109397800D03*
X151363600Y-109397800D03*
%TD*%
D12*
%TO.C,H2*%
X104000000Y-115560000D03*
%TD*%
D21*
%TO.C,R1*%
X121920000Y-100330000D03*
X121920000Y-98505000D03*
%TD*%
D15*
%TO.C,J2*%
X136500000Y-86500000D03*
D16*
X136500000Y-89040000D03*
X136500000Y-91580000D03*
%TD*%
D15*
%TO.C,J6*%
X126394000Y-116561000D03*
D16*
X128934000Y-116561000D03*
%TD*%
D25*
%TO.C,SW1*%
X175390800Y-107188000D03*
D26*
X177890800Y-107188000D03*
X180390800Y-107188000D03*
X175390800Y-113188000D03*
X177890800Y-113188000D03*
X180390800Y-113188000D03*
%TD*%
D11*
%TO.C,C14*%
X129286000Y-103632000D03*
X129286000Y-105532000D03*
%TD*%
D19*
%TO.C,C12*%
X123322000Y-90876000D03*
X125222000Y-90876000D03*
%TD*%
D12*
%TO.C,H3*%
X192900000Y-80000000D03*
%TD*%
D15*
%TO.C,J1*%
X132842000Y-86500000D03*
D16*
X132842000Y-89040000D03*
X132842000Y-91580000D03*
%TD*%
D19*
%TO.C,C2*%
X140790000Y-107500000D03*
X142690000Y-107500000D03*
%TD*%
D15*
%TO.C,U5*%
X168340000Y-100780000D03*
D16*
X170880000Y-100780000D03*
X173420000Y-100780000D03*
X175960000Y-100780000D03*
X178500000Y-100780000D03*
X181040000Y-100780000D03*
X178500000Y-83000000D03*
X175960000Y-83000000D03*
X173420000Y-83000000D03*
X170880000Y-83000000D03*
%TD*%
D19*
%TO.C,C3*%
X154290000Y-92840000D03*
X156190000Y-92840000D03*
%TD*%
D17*
%TO.C,R6*%
X119483500Y-83002000D03*
X117658500Y-83002000D03*
%TD*%
D12*
%TO.C,H1*%
X104000000Y-80000000D03*
%TD*%
D27*
%TO.C,U1*%
X151990000Y-94165000D03*
X151490000Y-94165000D03*
X150990000Y-94165000D03*
X150490000Y-94165000D03*
X149990000Y-94165000D03*
X149490000Y-94165000D03*
X148990000Y-94165000D03*
X148490000Y-94165000D03*
X147990000Y-94165000D03*
X147490000Y-94165000D03*
X146990000Y-94165000D03*
X146490000Y-94165000D03*
X145990000Y-94165000D03*
X145490000Y-94165000D03*
X144990000Y-94165000D03*
X144490000Y-94165000D03*
D28*
X142565000Y-96090000D03*
X142565000Y-96590000D03*
X142565000Y-97090000D03*
X142565000Y-97590000D03*
X142565000Y-98090000D03*
X142565000Y-98590000D03*
X142565000Y-99090000D03*
X142565000Y-99590000D03*
X142565000Y-100090000D03*
X142565000Y-100590000D03*
X142565000Y-101090000D03*
X142565000Y-101590000D03*
X142565000Y-102090000D03*
X142565000Y-102590000D03*
X142565000Y-103090000D03*
X142565000Y-103590000D03*
D27*
X144490000Y-105515000D03*
X144990000Y-105515000D03*
X145490000Y-105515000D03*
X145990000Y-105515000D03*
X146490000Y-105515000D03*
X146990000Y-105515000D03*
X147490000Y-105515000D03*
X147990000Y-105515000D03*
X148490000Y-105515000D03*
X148990000Y-105515000D03*
X149490000Y-105515000D03*
X149990000Y-105515000D03*
X150490000Y-105515000D03*
X150990000Y-105515000D03*
X151490000Y-105515000D03*
X151990000Y-105515000D03*
D28*
X153915000Y-103590000D03*
X153915000Y-103090000D03*
X153915000Y-102590000D03*
X153915000Y-102090000D03*
X153915000Y-101590000D03*
X153915000Y-101090000D03*
X153915000Y-100590000D03*
X153915000Y-100090000D03*
X153915000Y-99590000D03*
X153915000Y-99090000D03*
X153915000Y-98590000D03*
X153915000Y-98090000D03*
X153915000Y-97590000D03*
X153915000Y-97090000D03*
X153915000Y-96590000D03*
X153915000Y-96090000D03*
%TD*%
D15*
%TO.C,U2*%
X114080000Y-95000000D03*
D16*
X111540000Y-95000000D03*
X109000000Y-95000000D03*
X106460000Y-95000000D03*
%TD*%
D29*
%TO.C,Y1*%
X151000000Y-85340000D03*
X146120000Y-85340000D03*
%TD*%
D15*
%TO.C,J3*%
X147066000Y-116586000D03*
D16*
X149606000Y-116586000D03*
X152146000Y-116586000D03*
X154686000Y-116586000D03*
X157226000Y-116586000D03*
%TD*%
D23*
%TO.C,R4*%
X156675000Y-102500000D03*
X158500000Y-102500000D03*
%TD*%
D20*
%TO.C,C10*%
X115012000Y-90876000D03*
X113112000Y-90876000D03*
%TD*%
D18*
%TO.C,C7*%
X139446000Y-97216000D03*
X139446000Y-95316000D03*
%TD*%
%TO.C,C6*%
X139500000Y-104400000D03*
X139500000Y-102500000D03*
%TD*%
%TO.C,C15*%
X134112000Y-105598000D03*
X134112000Y-103698000D03*
%TD*%
D30*
%TO.C,D2*%
X159207200Y-109575600D03*
X157332200Y-109575600D03*
%TD*%
M02*
