%TF.GenerationSoftware,KiCad,Pcbnew,9.0.2*%
%TF.CreationDate,2025-07-28T19:39:00-05:00*%
%TF.ProjectId,balance_bot,62616c61-6e63-4655-9f62-6f742e6b6963,rev?*%
%TF.SameCoordinates,Original*%
%TF.FileFunction,Soldermask,Bot*%
%TF.FilePolarity,Negative*%
%FSLAX46Y46*%
G04 Gerber Fmt 4.6, Leading zero omitted, Abs format (unit mm)*
G04 Created by KiCad (PCBNEW 9.0.2) date 2025-07-28 19:39:00*
%MOMM*%
%LPD*%
G01*
G04 APERTURE LIST*
%ADD10C,3.200000*%
%ADD11R,1.700000X1.700000*%
%ADD12C,1.700000*%
%ADD13R,1.800000X1.800000*%
%ADD14C,1.800000*%
%ADD15C,1.500000*%
G04 APERTURE END LIST*
D10*
%TO.C,H4*%
X192900000Y-115560000D03*
%TD*%
D11*
%TO.C,J5*%
X134894000Y-116561000D03*
D12*
X137434000Y-116561000D03*
%TD*%
D11*
%TO.C,J4*%
X102768400Y-89336800D03*
D12*
X102768400Y-86796800D03*
%TD*%
D10*
%TO.C,H2*%
X104000000Y-115560000D03*
%TD*%
D11*
%TO.C,J2*%
X136500000Y-86500000D03*
D12*
X136500000Y-89040000D03*
X136500000Y-91580000D03*
%TD*%
D11*
%TO.C,J6*%
X126394000Y-116561000D03*
D12*
X128934000Y-116561000D03*
%TD*%
D13*
%TO.C,SW1*%
X175390800Y-107188000D03*
D14*
X177890800Y-107188000D03*
X180390800Y-107188000D03*
X175390800Y-113188000D03*
X177890800Y-113188000D03*
X180390800Y-113188000D03*
%TD*%
D10*
%TO.C,H3*%
X192900000Y-80000000D03*
%TD*%
D11*
%TO.C,J1*%
X132842000Y-86500000D03*
D12*
X132842000Y-89040000D03*
X132842000Y-91580000D03*
%TD*%
D11*
%TO.C,U5*%
X168340000Y-100780000D03*
D12*
X170880000Y-100780000D03*
X173420000Y-100780000D03*
X175960000Y-100780000D03*
X178500000Y-100780000D03*
X181040000Y-100780000D03*
X178500000Y-83000000D03*
X175960000Y-83000000D03*
X173420000Y-83000000D03*
X170880000Y-83000000D03*
%TD*%
D10*
%TO.C,H1*%
X104000000Y-80000000D03*
%TD*%
D11*
%TO.C,U2*%
X114080000Y-95000000D03*
D12*
X111540000Y-95000000D03*
X109000000Y-95000000D03*
X106460000Y-95000000D03*
%TD*%
D15*
%TO.C,Y1*%
X151000000Y-85340000D03*
X146120000Y-85340000D03*
%TD*%
D11*
%TO.C,J3*%
X147066000Y-116586000D03*
D12*
X149606000Y-116586000D03*
X152146000Y-116586000D03*
X154686000Y-116586000D03*
X157226000Y-116586000D03*
%TD*%
M02*
